<svg width="16" height="17" viewBox="0 0 16 17" fill="none" xmlns="http://www.w3.org/2000/svg">
<path d="M8 0.277344C3.58065 0.277344 0 3.85799 0 8.27734C0 12.6967 3.58065 16.2773 8 16.2773C12.4194 16.2773 16 12.6967 16 8.27734C16 3.85799 12.4194 0.277344 8 0.277344ZM8 3.37412C9.56774 3.37412 10.8387 4.64509 10.8387 6.21283C10.8387 7.78057 9.56774 9.05154 8 9.05154C6.43226 9.05154 5.16129 7.78057 5.16129 6.21283C5.16129 4.64509 6.43226 3.37412 8 3.37412ZM8 14.4709C6.10645 14.4709 4.40968 13.6128 3.27419 12.2709C3.88065 11.129 5.06774 10.3419 6.45161 10.3419C6.52903 10.3419 6.60645 10.3548 6.68065 10.3773C7.1 10.5128 7.53871 10.5999 8 10.5999C8.46129 10.5999 8.90323 10.5128 9.31936 10.3773C9.39355 10.3548 9.47097 10.3419 9.54839 10.3419C10.9323 10.3419 12.1194 11.129 12.7258 12.2709C11.5903 13.6128 9.89355 14.4709 8 14.4709Z" fill="#A09EAB"/>
</svg>
