<svg width="24" height="24" viewBox="0 0 24 24" fill="none" xmlns="http://www.w3.org/2000/svg">
<path fill-rule="evenodd" clip-rule="evenodd" d="M1.81818 2H22.1818C23.186 2 24 2.89543 24 4V9V11V12V14V15C24 16.1046 23.186 17 22.1818 17H1.81818C0.814028 17 0 16.1046 0 15V4C0 2.89543 0.814028 2 1.81818 2ZM22 11V12H2V11H22ZM2 15V14H22V15H2ZM22 9V4H2V9H22ZM19 6C19 6.55228 19.4477 7 20 7C20.5523 7 21 6.55228 21 6C21 5.44772 20.5523 5 20 5C19.4477 5 19 5.44772 19 6ZM16 7C15.4477 7 15 6.55228 15 6C15 5.44772 15.4477 5 16 5C16.5523 5 17 5.44772 17 6C17 6.55228 16.5523 7 16 7ZM13 19V22H11V19H13ZM5 22V19H3V22H5ZM9 19V22H7V19H9ZM17 22V19H15V22H17ZM21 19V22H19V19H21Z" fill="#B0BEC5"/>
</svg>
