<svg width="25" height="24" viewBox="0 0 25 24" fill="none" xmlns="http://www.w3.org/2000/svg">
<path fill-rule="evenodd" clip-rule="evenodd" d="M4.5625 2H9.5625C10.6671 2 11.5625 2.89543 11.5625 4V9C11.5625 10.1046 10.6671 11 9.5625 11H4.5625C3.45793 11 2.5625 10.1046 2.5625 9V4C2.5625 2.89543 3.45793 2 4.5625 2ZM4.5625 13H9.5625C10.6671 13 11.5625 13.8954 11.5625 15V20C11.5625 21.1046 10.6671 22 9.5625 22H4.5625C3.45793 22 2.5625 21.1046 2.5625 20V15C2.5625 13.8954 3.45793 13 4.5625 13ZM18.5625 13H16.5625V16H13.5625V18H16.5625V21H18.5625V18H21.5625V16H18.5625V13ZM4.5625 20V15H9.5625V20H4.5625ZM4.5625 9V4H9.5625V9H4.5625ZM15.5625 2H20.5625C21.6671 2 22.5625 2.89543 22.5625 4V9C22.5625 10.1046 21.6671 11 20.5625 11H15.5625C14.4579 11 13.5625 10.1046 13.5625 9V4C13.5625 2.89543 14.4579 2 15.5625 2ZM15.5625 9V4H20.5625V9H15.5625Z" fill="#69C200"/>
</svg>
