<svg width="24" height="24" viewBox="0 0 24 24" fill="none" xmlns="http://www.w3.org/2000/svg">
<path fill-rule="evenodd" clip-rule="evenodd" d="M19.5858 13H13V19.5858L15.2929 17.2929L16.7071 18.7071L12 23.4142L7.29292 18.7071L8.70714 17.2929L11 19.5858V13H4.41424L6.70714 15.2929L5.29292 16.7071L0.585815 12L5.29292 7.29292L6.70714 8.70714L4.41424 11H11V4.41424L8.70714 6.70714L7.29292 5.29292L12 0.585815L16.7071 5.29292L15.2929 6.70714L13 4.41424V11H19.5858L17.2929 8.70714L18.7071 7.29292L23.4142 12L18.7071 16.7071L17.2929 15.2929L19.5858 13Z" fill="#263238"/>
</svg>
