<svg width="44" height="44" viewBox="0 0 44 44" fill="none" xmlns="http://www.w3.org/2000/svg">
<path fill-rule="evenodd" clip-rule="evenodd" d="M30.1818 21H13.8182C12.814 21 12 21.8954 12 23V25C12 26.1046 12.814 27 13.8182 27H30.1818C31.186 27 32 26.1046 32 25V23C32 21.8954 31.186 21 30.1818 21ZM13.8182 29H30.1818C31.186 29 32 29.8954 32 31V33C32 34.1046 31.186 35 30.1818 35H13.8182C12.814 35 12 34.1046 12 33V31C12 29.8954 12.814 29 13.8182 29ZM14 31V33H30V31H14ZM14 23V25H30V23H14ZM28 37H16V39H28V37Z" fill="#556068"/>
<path fill-rule="evenodd" clip-rule="evenodd" d="M19 9V7C19 5.34315 20.3431 4 22 4C23.6569 4 25 5.34315 25 7V9C26.1046 9 27 9.89543 27 11V15C27 16.1046 26.1046 17 25 17H19C17.8954 17 17 16.1046 17 15V11C17 9.89543 17.8954 9 19 9ZM23 7V9H21V7C21 6.44772 21.4477 6 22 6C22.5523 6 23 6.44772 23 7ZM19 15V11H25V15H19ZM21 13C21 13.5523 21.4477 14 22 14C22.5523 14 23 13.5523 23 13C23 12.4477 22.5523 12 22 12C21.4477 12 21 12.4477 21 13Z" fill="#556068"/>
</svg>
