<svg width="24" height="24" viewBox="0 0 24 24" fill="none" xmlns="http://www.w3.org/2000/svg">
<path fill-rule="evenodd" clip-rule="evenodd" d="M3 21.1818V14.8182C3 13.814 3.89543 13 5 13H7V4C7 2.89543 7.81403 2 8.81818 2H15.1818C16.186 2 17 2.89543 17 4V13H19C20.1046 13 21 13.814 21 14.8182V21.1818C21 22.186 20.1046 23 19 23H15.1818H8.81818H5C3.89543 23 3 22.186 3 21.1818ZM13 21L15 21V18.0065L14.1944 15H13V21ZM11 21V15H9.73745L9 17.7522V21L11 21ZM5 15H7V17.4889V21H5V15ZM15 4V10.2791L13.3175 4H15ZM9 4H10.6143L9 10.0248V4ZM13.6585 13H10.2733L11.9659 6.68321L13.6585 13ZM19 15H17V21H19V15Z" fill="#B0BEC5"/>
</svg>
