<svg width="16" height="10" viewBox="0 0 16 10" fill="none" xmlns="http://www.w3.org/2000/svg">
<path d="M14 3.25H5.88533C5.74708 2.86037 5.49166 2.52307 5.15411 2.28435C4.81657 2.04563 4.41343 1.9172 4 1.91667H1.33333V0H0V9.91667H1.33333V8.58333H14.6667V9.91667H16V5.25C15.9994 4.71975 15.7885 4.21139 15.4136 3.83644C15.0386 3.4615 14.5303 3.2506 14 3.25ZM4 3.25C4.17675 3.2502 4.3462 3.3205 4.47119 3.44548C4.59617 3.57046 4.66647 3.73992 4.66667 3.91667V4.58333H1.33333V3.25H4ZM1.33333 5.91667H4.66667V7.25H1.33333V5.91667ZM6 4.58333H14C14.1768 4.58353 14.3462 4.65383 14.4712 4.77881C14.5962 4.9038 14.6665 5.07325 14.6667 5.25V7.25H6V4.58333Z" fill="#B0BEC5"/>
</svg>
