<svg width="24" height="24" viewBox="0 0 24 24" fill="none" xmlns="http://www.w3.org/2000/svg">
<path fill-rule="evenodd" clip-rule="evenodd" d="M24 18C24 17.4477 23.5523 17 23 17H1C0.447716 17 0 17.4477 0 18C0 18.5523 0.447715 19 1 19H23C23.5523 19 24 18.5523 24 18Z" fill="#B0BEC5"/>
<path fill-rule="evenodd" clip-rule="evenodd" d="M2 19C2.55228 19 3 18.5523 3 18V2C3 1.44772 2.55228 1 2 1C1.44772 1 1 1.44772 1 2V18C1 18.5523 1.44772 19 2 19Z" fill="#B0BEC5"/>
<path fill-rule="evenodd" clip-rule="evenodd" d="M3 2C3 1.44772 2.55228 1 2 1H1C0.447715 1 0 1.44772 0 2C0 2.55228 0.447715 3 1 3H2C2.55228 3 3 2.55229 3 2Z" fill="#B0BEC5"/>
<path fill-rule="evenodd" clip-rule="evenodd" d="M7 24C8.65685 24 10 22.6569 10 21C10 19.3431 8.65685 18 7 18C5.34315 18 4 19.3431 4 21C4 22.6569 5.34315 24 7 24ZM7 22C7.55228 22 8 21.5523 8 21C8 20.4477 7.55228 20 7 20C6.44772 20 6 20.4477 6 21C6 21.5523 6.44772 22 7 22Z" fill="#B0BEC5"/>
<path fill-rule="evenodd" clip-rule="evenodd" d="M19 24C20.6569 24 22 22.6569 22 21C22 19.3431 20.6569 18 19 18C17.3431 18 16 19.3431 16 21C16 22.6569 17.3431 24 19 24ZM19 22C19.5523 22 20 21.5523 20 21C20 20.4477 19.5523 20 19 20C18.4477 20 18 20.4477 18 21C18 21.5523 18.4477 22 19 22Z" fill="#B0BEC5"/>
<path fill-rule="evenodd" clip-rule="evenodd" d="M11 5H15C16.1046 5 17 5.89543 17 7V8H19C20.1046 8 21 8.89543 21 10V17C21 18.1046 20.1046 19 19 19H7C5.89543 19 5 18.1046 5 17V10C5 8.89543 5.89543 8 7 8H9V7C9 5.89543 9.89543 5 11 5ZM7 10H19V12H7V10ZM7 17V14H12V15H14V14H19V17H7ZM15 7V8H11V7H15Z" fill="#B0BEC5"/>
</svg>
