<svg width="24" height="24" viewBox="0 0 24 24" fill="none" xmlns="http://www.w3.org/2000/svg">
<path fill-rule="evenodd" clip-rule="evenodd" d="M12 15C13.6569 15 15 13.6569 15 12C15 10.3431 13.6569 9 12 9C10.3431 9 9 10.3431 9 12C9 13.6569 10.3431 15 12 15ZM12 13C12.5523 13 13 12.5523 13 12C13 11.4477 12.5523 11 12 11C11.4477 11 11 11.4477 11 12C11 12.5523 11.4477 13 12 13Z" fill="#B0BEC5"/>
<path fill-rule="evenodd" clip-rule="evenodd" d="M1 12C1 18.0751 5.92487 23 12 23C18.0751 23 23 18.0751 23 12C23 5.92487 18.0751 1 12 1C5.92487 1 1 5.92487 1 12ZM21 12C21 16.9706 16.9706 21 12 21C7.02944 21 3 16.9706 3 12C3 7.02944 7.02944 3 12 3C16.9706 3 21 7.02944 21 12Z" fill="#B0BEC5"/>
<path d="M6.0316 15.6595C6.16515 15.8769 6.40671 16 6.6618 16C7.41138 16 7.85115 14.8904 7.51807 14.2189C7.18644 13.5503 7 12.7969 7 12C7 11.2031 7.18644 10.4497 7.51807 9.78112C7.85115 9.10962 7.41138 8 6.6618 8C6.40671 8 6.16515 8.12314 6.0316 8.34048C5.37731 9.4053 5 10.6586 5 12C5 13.3414 5.37732 14.5947 6.0316 15.6595Z" fill="#B0BEC5"/>
<path d="M16.4819 9.78112C16.1488 9.10962 16.5886 8 17.3382 8C17.5933 8 17.8349 8.12314 17.9684 8.34048C18.6227 9.4053 19 10.6586 19 12C19 13.3414 18.6227 14.5947 17.9684 15.6595C17.8349 15.8769 17.5933 16 17.3382 16C16.5886 16 16.1488 14.8904 16.4819 14.2189C16.8136 13.5503 17 12.7969 17 12C17 11.2031 16.8136 10.4497 16.4819 9.78112Z" fill="#B0BEC5"/>
</svg>
