<svg width="25" height="24" viewBox="0 0 25 24" fill="none" xmlns="http://www.w3.org/2000/svg">
<path fill-rule="evenodd" clip-rule="evenodd" d="M10.5625 3H14.5625C15.6671 3 16.5625 3.89543 16.5625 5V6H20.5625C21.6671 6 22.5625 6.89543 22.5625 8V19C22.5625 20.1046 21.6671 21 20.5625 21H4.5625C3.45793 21 2.5625 20.1046 2.5625 19V8C2.5625 6.89543 3.45793 6 4.5625 6H8.5625V5C8.5625 3.89543 9.45793 3 10.5625 3ZM4.5625 8H8.5625H16.5625H20.5625V13H13.5625H11.5625H4.5625V8ZM4.5625 19V15H11.5625V16H13.5625V15H20.5625V19H4.5625ZM14.5625 5V6H10.5625V5H14.5625Z" fill="#69C200"/>
</svg>
