<svg width="25" height="24" viewBox="0 0 25 24" fill="none" xmlns="http://www.w3.org/2000/svg">
<path fill-rule="evenodd" clip-rule="evenodd" d="M22.5623 10.5C22.5623 12.9985 20.443 15 17.8564 15H13.5623V16.1707C14.4147 16.472 15.0903 17.1476 15.3916 18H20.5623V20H15.3916C14.9797 21.1652 13.8685 22 12.5623 22C11.256 22 10.1448 21.1652 9.73296 20H4.56226V18H9.73296C10.0342 17.1476 10.7098 16.472 11.5623 16.1707V15H7.79755C4.91855 15 2.56226 12.7746 2.56226 10C2.56226 7.6561 4.25418 5.67388 6.55971 5.14064C7.74098 3.22079 10.0328 2 12.5623 2C15.5429 2 18.1555 3.69385 19.0554 6.14742C21.0794 6.65541 22.5623 8.41553 22.5623 10.5ZM13.5623 19C13.5623 19.5523 13.1145 20 12.5623 20C12.01 20 11.5623 19.5523 11.5623 19C11.5623 18.4477 12.01 18 12.5623 18C13.1145 18 13.5623 18.4477 13.5623 19ZM18.169 8.01645C19.5364 8.16144 20.5623 9.23821 20.5623 10.5C20.5623 11.8675 19.3632 13 17.8564 13H7.79755C5.99837 13 4.56226 11.6437 4.56226 10C4.56226 8.51381 5.74309 7.24132 7.33505 7.03035L7.86238 6.96046L8.09915 6.48412C8.83321 5.00734 10.5758 4 12.5623 4C14.9086 4 16.8736 5.4006 17.3001 7.24705L17.4604 7.94132L18.169 8.01645Z" fill="#69C200"/>
</svg>
