<svg width="24" height="24" viewBox="0 0 24 24" fill="none" xmlns="http://www.w3.org/2000/svg">
<path fill-rule="evenodd" clip-rule="evenodd" d="M2 22.1818V1.81818C2 0.814028 2.89543 0 4 0H20C21.1046 0 22 0.814028 22 1.81818V22.1818C22 23.186 21.1046 24 20 24H4C2.89543 24 2 23.186 2 22.1818ZM4 22H20V6H4V22ZM4 2V4H20V2H4ZM19 15C19 12.2386 16.7614 10 14 10C13.2889 10 12.6125 10.1484 12 10.416C11.3875 10.1484 10.7111 10 10 10C7.23858 10 5 12.2386 5 15C5 17.7614 7.23858 20 10 20C10.7111 20 11.3875 19.8516 12 19.584C12.6125 19.8516 13.2889 20 14 20C16.7614 20 19 17.7614 19 15ZM9.99963 18C9.37194 17.1643 9 16.1256 9 15C9 13.8744 9.37195 12.8357 9.99964 12C8.34296 12.0002 7 13.3433 7 15C7 16.6567 8.34295 17.9998 9.99963 18ZM11 15C11 13.3431 12.3431 12 14 12C15.6569 12 17 13.3431 17 15C17 16.6569 15.6569 18 14 18C12.3431 18 11 16.6569 11 15Z" fill="#B0BEC5"/>
<path fill-rule="evenodd" clip-rule="evenodd" d="M13 9V4H11V9H13Z" fill="#B0BEC5"/>
<path fill-rule="evenodd" clip-rule="evenodd" d="M7.41432 8.94975L10.9499 5.41421L9.53564 4L6.00011 7.53553L7.41432 8.94975Z" fill="#B0BEC5"/>
<path fill-rule="evenodd" clip-rule="evenodd" d="M17.9497 7.53563L14.4142 4.00009L13 5.41431L16.5355 8.94984L17.9497 7.53563Z" fill="#B0BEC5"/>
</svg>
