<svg width="24" height="24" viewBox="0 0 24 24" fill="none" xmlns="http://www.w3.org/2000/svg">
<path fill-rule="evenodd" clip-rule="evenodd" d="M17 2L17.124 3.98456L4 5.87506V8.12494L17.124 10.0154L17 12L2 9.8905V4.1095L17 2Z" fill="#B0BEC5"/>
<path d="M17 12C19.7614 12 22 9.76151 22 7.00009C22 4.23867 19.7614 2 17 2V4.00009C18.6569 4.00009 20.0001 5.34324 20.0001 7.00009C20.0001 8.65694 18.6569 10.0001 17.0001 10.0001L17 12Z" fill="#B0BEC5"/>
<path d="M19.8772 11H17.592L13.9621 16.9574L13.9249 17.0317L13.0131 16.6212L15.0028 11H12.8832L11.1584 15.8772C10.7359 16.8073 11.1848 17.9914 12.192 18.4448L13.1038 18.8554C14.111 19.3089 15.2951 18.86 15.7486 17.8528L19.8772 11Z" fill="#B0BEC5"/>
<path fill-rule="evenodd" clip-rule="evenodd" d="M7 5H5V9H7V5Z" fill="#B0BEC5"/>
<path fill-rule="evenodd" clip-rule="evenodd" d="M14.454 17.8136L12.6269 17.0001L11 20.6543L12.8271 21.4678L14.454 17.8136Z" fill="#B0BEC5"/>
<circle cx="17" cy="7" r="1" fill="#B0BEC5"/>
</svg>
