<svg width="22" height="20" viewBox="0 0 22 20" fill="none" xmlns="http://www.w3.org/2000/svg">
<path fill-rule="evenodd" clip-rule="evenodd" d="M21.4414 13.9532L14.4361 1.97762C13.7328 0.758398 12.422 0.00166216 11.0043 2.73545e-06C9.58657 -0.00165687 8.27528 0.751956 7.56324 1.97767L0.555303 13.9576C-0.171371 15.1795 -0.18781 16.7105 0.516054 17.9592C1.2205 19.2089 2.53954 19.9866 3.97427 19.9983L18.0121 19.9983C19.4618 19.9842 20.7783 19.2089 21.4827 17.9603C22.1862 16.7132 22.1704 15.1856 21.4414 13.9532ZM2.27796 14.9737L9.29109 2.98491C9.64625 2.37354 10.2976 1.99918 11.002 2C11.7063 2.00083 12.3574 2.37673 12.7067 2.98222L19.7176 14.9672C20.0851 15.5885 20.0929 16.3533 19.7407 16.9777C19.388 17.603 18.7286 17.9913 18.0024 17.9984L3.98241 17.9983C3.2718 17.9925 2.6111 17.6029 2.25831 16.9771C1.90591 16.3519 1.91414 15.5855 2.27796 14.9737ZM11.0002 15.9983C11.5527 15.9983 12.0005 15.5506 12.0005 14.9983C12.0005 14.4461 11.5527 13.9983 11.0002 13.9983C10.4477 13.9983 9.99988 14.4461 9.99988 14.9983C9.99988 15.5506 10.4477 15.9983 11.0002 15.9983ZM12.0035 5.99835H10.0028V12.9983H12.0035V5.99835Z" fill="#D82F38"/>
</svg>
