<svg width="24" height="24" viewBox="0 0 24 24" fill="none" xmlns="http://www.w3.org/2000/svg">
<path fill-rule="evenodd" clip-rule="evenodd" d="M2.70713 1.29297L1.29292 2.70718L5.35774 6.772C4.97908 7.08582 4.60434 7.42283 4.23373 7.78123C3.40451 8.58312 2.65433 9.43923 1.99393 10.2957C1.59543 10.8125 1.3125 11.2191 1.15759 11.4613L0.812988 12.0001L1.15759 12.5389C1.3125 12.7811 1.59543 13.1876 1.99393 13.7045C2.65433 14.5609 3.40451 15.417 4.23373 16.2189C6.66434 18.5695 9.27247 20.0001 12 20.0001C13.7209 20.0001 15.3943 19.4306 17.0056 18.4198L21.2929 22.7072L22.7071 21.293L2.70713 1.29297ZM15.5447 16.9589L14.032 15.4463C13.4365 15.7981 12.7418 16.0001 12 16.0001C9.79088 16.0001 8.00002 14.2092 8.00002 12.0001C8.00002 11.2583 8.20195 10.5636 8.55384 9.96811L6.77974 8.19401C6.39235 8.50642 6.0068 8.8488 5.62406 9.21893C4.86986 9.94828 4.18241 10.7328 3.57777 11.517C3.44718 11.6863 3.32651 11.8479 3.21619 12.0001C3.32651 12.1523 3.44718 12.3138 3.57777 12.4832C4.18241 13.2674 4.86986 14.0519 5.62406 14.7812C7.71751 16.8057 9.89495 18.0001 12 18.0001C13.1682 18.0001 14.3586 17.6323 15.5447 16.9589ZM10.0678 11.482C10.0236 11.6473 10 11.8209 10 12.0001C10 13.1046 10.8955 14.0001 12 14.0001C12.1792 14.0001 12.3528 13.9765 12.5181 13.9323L10.0678 11.482ZM20.0981 15.891L18.6838 14.4768C19.318 13.8357 19.9009 13.1593 20.4223 12.4832C20.5529 12.3138 20.6735 12.1523 20.7839 12.0001C20.6735 11.8479 20.5529 11.6863 20.4223 11.517C19.8176 10.7328 19.1302 9.94828 18.376 9.21893C16.2825 7.19445 14.1051 6.00008 12 6.00008C11.4777 6.00008 10.951 6.0736 10.4221 6.21509L8.84017 4.63312C9.87262 4.22145 10.9271 4.00008 12 4.00008C14.7276 4.00008 17.3357 5.4307 19.7663 7.78123C20.5955 8.58312 21.3457 9.43923 22.0061 10.2957C22.4046 10.8125 22.6875 11.2191 22.8425 11.4613L23.1871 12.0001L22.8425 12.5389C22.6875 12.7811 22.4046 13.1876 22.0061 13.7045C21.4349 14.4452 20.7966 15.1857 20.0981 15.891Z" fill="#37474F"/>
</svg>
