<svg width="16" height="12" viewBox="0 0 16 12" fill="none" xmlns="http://www.w3.org/2000/svg">
<path fill-rule="evenodd" clip-rule="evenodd" d="M8.00002 0.666748C9.81838 0.666748 11.5571 1.6205 13.1775 3.18751C13.7304 3.72211 14.2305 4.29285 14.6707 4.86383C14.9364 5.20837 15.125 5.47941 15.2283 5.64088L15.458 6.00008L15.2283 6.35928C15.125 6.52075 14.9364 6.79179 14.6707 7.13633C14.2305 7.70731 13.7304 8.27805 13.1775 8.81265C11.5571 10.3797 9.81838 11.3334 8.00002 11.3334C6.18165 11.3334 4.4429 10.3797 2.82249 8.81265C2.26968 8.27805 1.76955 7.70731 1.32929 7.13633C1.06362 6.79179 0.874998 6.52075 0.771725 6.35928L0.541992 6.00008L0.771725 5.64088C0.874998 5.47941 1.06362 5.20837 1.32929 4.86383C1.76955 4.29285 2.26968 3.72211 2.82249 3.18751C4.4429 1.6205 6.18165 0.666748 8.00002 0.666748ZM13.6148 5.678C13.2117 5.15523 12.7534 4.63222 12.2506 4.14598C10.855 2.79633 9.40336 2.00008 7.99997 2.00008C6.59659 2.00008 5.14497 2.79633 3.74934 4.14598C3.24653 4.63222 2.78823 5.15523 2.38514 5.678C2.29808 5.7909 2.21763 5.89863 2.14409 6.00008C2.21763 6.10153 2.29808 6.20926 2.38514 6.32216C2.78823 6.84494 3.24653 7.36795 3.74934 7.85418C5.14497 9.20383 6.59659 10.0001 7.99997 10.0001C9.40336 10.0001 10.855 9.20383 12.2506 7.85418C12.7534 7.36795 13.2117 6.84494 13.6148 6.32216C13.7019 6.20926 13.7823 6.10153 13.8559 6.00008C13.7823 5.89863 13.7019 5.7909 13.6148 5.678ZM5.33336 6.00008C5.33336 7.47284 6.52726 8.66675 8.00002 8.66675C9.47278 8.66675 10.6667 7.47284 10.6667 6.00008C10.6667 4.52732 9.47278 3.33341 8.00002 3.33341C6.52726 3.33341 5.33336 4.52732 5.33336 6.00008ZM9.33336 6.00008C9.33336 6.73646 8.7364 7.33341 8.00002 7.33341C7.26364 7.33341 6.66669 6.73646 6.66669 6.00008C6.66669 5.2637 7.26364 4.66675 8.00002 4.66675C8.7364 4.66675 9.33336 5.2637 9.33336 6.00008Z" fill="#B0BEC5"/>
</svg>
