<svg width="24" height="24" viewBox="0 0 24 24" fill="none" xmlns="http://www.w3.org/2000/svg">
<path fill-rule="evenodd" clip-rule="evenodd" d="M12 15C13.6569 15 15 13.6569 15 12C15 10.3431 13.6569 9 12 9C10.3431 9 9 10.3431 9 12C9 13.6569 10.3431 15 12 15ZM12 13C12.5523 13 13 12.5523 13 12C13 11.4477 12.5523 11 12 11C11.4477 11 11 11.4477 11 12C11 12.5523 11.4477 13 12 13Z" fill="#B0BEC5"/>
<path fill-rule="evenodd" clip-rule="evenodd" d="M12 20C16.4183 20 20 16.4183 20 12C20 7.58172 16.4183 4 12 4C7.58172 4 4 7.58172 4 12C4 16.4183 7.58172 20 12 20ZM12 18C15.3137 18 18 15.3137 18 12C18 8.68629 15.3137 6 12 6C8.68629 6 6 8.68629 6 12C6 15.3137 8.68629 18 12 18Z" fill="#B0BEC5"/>
<path fill-rule="evenodd" clip-rule="evenodd" d="M20.4851 4.94972L16.9496 8.48526L15.5354 7.07104L19.0709 3.53551L20.4851 4.94972Z" fill="#B0BEC5"/>
<path fill-rule="evenodd" clip-rule="evenodd" d="M16.5 1.03564V6.03564H14.5V1.03564H16.5Z" fill="#B0BEC5"/>
<path fill-rule="evenodd" clip-rule="evenodd" d="M22.9497 9.48535H17.9497V7.48535H22.9497V9.48535Z" fill="#B0BEC5"/>
<path d="M2.87397 7.90549L1.24054 6.68042C0.446386 8.28361 0 10.0897 0 12C0 17.3909 3.55485 21.9516 8.44831 23.4657L8.03315 21.1823C4.48364 19.6468 2 16.1135 2 12C2 10.5411 2.31241 9.1552 2.87397 7.90549Z" fill="#B0BEC5"/>
<path fill-rule="evenodd" clip-rule="evenodd" d="M3 9C4.65685 9 6 7.65685 6 6C6 4.34315 4.65685 3 3 3C1.34315 3 0 4.34315 0 6C0 7.65685 1.34315 9 3 9ZM3 7C3.55228 7 4 6.55228 4 6C4 5.44772 3.55228 5 3 5C2.44772 5 2 5.44772 2 6C2 6.55228 2.44772 7 3 7Z" fill="#B0BEC5"/>
<path fill-rule="evenodd" clip-rule="evenodd" d="M14 20H10C9.44772 20 9 20.4477 9 21C9 21.5523 9.44772 22 10 22H14C14.5523 22 15 21.5523 15 21C15 20.4477 14.5523 20 14 20ZM10 18C8.34315 18 7 19.3431 7 21C7 22.6569 8.34315 24 10 24H14C15.6569 24 17 22.6569 17 21C17 19.3431 15.6569 18 14 18H10Z" fill="#B0BEC5"/>
</svg>
