<svg width="24" height="24" viewBox="0 0 24 24" fill="none" xmlns="http://www.w3.org/2000/svg">
<path d="M10.4188 13.7299L10.4235 13.4832L10.4235 13.4832C10.4523 11.9905 11.1505 10.9414 11.8484 10.2762L13.0162 9.16301L13.4936 10.7041C13.663 11.2511 13.8896 11.7481 14.1752 12.2077L10.4188 13.7299ZM10.4188 13.7299L9.51849 13.4709L8.56568 13.1968L8.28339 14.1472C8.09293 14.7884 7.99299 15.4235 8.00038 16.041L8.00043 16.0498C8.00279 18.2439 9.80966 20 11.9997 20C13.0612 20 14.0672 19.5912 14.8226 18.8476C15.5783 18.1037 16 17.1064 16 16.0476V16.0442C16.0028 15.3864 15.854 14.6771 15.4751 14.1423L15.4746 14.1416C15.067 13.5673 14.6336 12.9438 14.1753 12.2079L10.4188 13.7299Z" stroke="#B0BEC5" stroke-width="2"/>
<path fill-rule="evenodd" clip-rule="evenodd" d="M5 21L5 12H3L3 21H5Z" fill="#B0BEC5"/>
<path fill-rule="evenodd" clip-rule="evenodd" d="M19 12C19 8.13401 15.866 5 12 5C8.13401 5 5 8.13401 5 12H3C3 7.02944 7.02944 3 12 3C16.9706 3 21 7.02944 21 12H19Z" fill="#B0BEC5"/>
<path fill-rule="evenodd" clip-rule="evenodd" d="M21 21V12H19V21H21Z" fill="#B0BEC5"/>
<path fill-rule="evenodd" clip-rule="evenodd" d="M24 20C24 19.4477 23.5523 19 23 19H1C0.447716 19 0 19.4477 0 20C0 20.5523 0.447715 21 1 21H23C23.5523 21 24 20.5523 24 20Z" fill="#B0BEC5"/>
</svg>
