<svg width="24" height="24" viewBox="0 0 24 24" fill="none" xmlns="http://www.w3.org/2000/svg">
<path fill-rule="evenodd" clip-rule="evenodd" d="M8 20V6H6L6 20H8Z" fill="#B0BEC5"/>
<path fill-rule="evenodd" clip-rule="evenodd" d="M18 20V12H16V20H18Z" fill="#B0BEC5"/>
<path fill-rule="evenodd" clip-rule="evenodd" d="M22 20H2V22H22V20Z" fill="#B0BEC5"/>
<path fill-rule="evenodd" clip-rule="evenodd" d="M7 2C4.79086 2 3 3.79086 3 6V14C3 16.2091 4.79086 18 7 18C9.20914 18 11 16.2091 11 14V6C11 3.79086 9.20914 2 7 2ZM7 4C5.89543 4 5 4.89543 5 6V14C5 15.1046 5.89543 16 7 16C8.10457 16 9 15.1046 9 14V6C9 4.89543 8.10457 4 7 4Z" fill="#B0BEC5"/>
<path fill-rule="evenodd" clip-rule="evenodd" d="M17 8C14.7909 8 13 9.79086 13 12V14C13 16.2091 14.7909 18 17 18C19.2091 18 21 16.2091 21 14V12C21 9.79086 19.2091 8 17 8ZM17 10C15.8954 10 15 10.8954 15 12V14C15 15.1046 15.8954 16 17 16C18.1046 16 19 15.1046 19 14V12C19 10.8954 18.1046 10 17 10Z" fill="#B0BEC5"/>
</svg>
