<svg width="25" height="24" viewBox="0 0 25 24" fill="none" xmlns="http://www.w3.org/2000/svg">
<path fill-rule="evenodd" clip-rule="evenodd" d="M1.5625 13C1.01022 13 0.5625 12.5523 0.5625 12C0.5625 11.4477 1.01022 11 1.5625 11H1.97854C2.7501 9.2341 4.51218 8 6.5625 8C8.3869 8 9.98309 8.97712 10.8563 10.4366C11.347 10.158 11.939 10 12.5625 10C13.186 10 13.778 10.158 14.2687 10.4366C15.1419 8.97712 16.7381 8 18.5625 8C20.6128 8 22.3749 9.2341 23.1465 11H23.5625C24.1148 11 24.5625 11.4477 24.5625 12C24.5625 12.5523 24.1148 13 23.5625 13C23.5625 15.7614 21.3239 18 18.5625 18C15.8011 18 13.5625 15.7614 13.5625 13C13.5625 12.8313 13.5709 12.6645 13.5872 12.5H13.5625C13.5625 12.2966 13.1671 12 12.5625 12C11.9579 12 11.5625 12.2966 11.5625 12.5H11.5378C11.5541 12.6645 11.5625 12.8313 11.5625 13C11.5625 15.7614 9.32392 18 6.5625 18C3.80108 18 1.5625 15.7614 1.5625 13ZM6.5625 16C8.21935 16 9.5625 14.6569 9.5625 13C9.5625 11.3431 8.21935 10 6.5625 10C4.90565 10 3.5625 11.3431 3.5625 13C3.5625 14.6569 4.90565 16 6.5625 16ZM21.5625 13C21.5625 14.6569 20.2194 16 18.5625 16C16.9056 16 15.5625 14.6569 15.5625 13C15.5625 11.3431 16.9056 10 18.5625 10C20.2194 10 21.5625 11.3431 21.5625 13Z" fill="#69C200"/>
</svg>
