<svg width="44" height="44" viewBox="0 0 44 44" fill="none" xmlns="http://www.w3.org/2000/svg">
<path d="M19 23V25H9V23H19Z" fill="#556068"/>
<path d="M17 7H19V25H17V7Z" fill="#556068"/>
<path d="M17 27H19V35H17V27Z" fill="#556068"/>
<path d="M5 29V27L19 27V29H5Z" fill="#556068"/>
<path d="M21 27V29H35V27H21Z" fill="#556068"/>
<path d="M23 15H21V29H23V15Z" fill="#556068"/>
<path fill-rule="evenodd" clip-rule="evenodd" d="M33 23.2126L34.0962 22.2554C38.0116 18.8366 40 15.8112 40 13C40 9.02141 36.8965 6 33 6C29.1035 6 26 9.02141 26 13C26 15.8112 27.9884 18.8366 31.9038 22.2554L33 23.2126ZM33 8C35.8038 8 38 10.1382 38 13C38 15.047 36.3727 17.5659 33 20.556C29.6273 17.5659 28 15.047 28 13C28 10.1382 30.1962 8 33 8ZM33 10C34.6569 10 36 11.3431 36 13C36 14.6569 34.6569 16 33 16C31.3431 16 30 14.6569 30 13C30 11.3431 31.3431 10 33 10ZM32 13C32 12.4477 32.4477 12 33 12C33.5523 12 34 12.4477 34 13C34 13.5523 33.5523 14 33 14C32.4477 14 32 13.5523 32 13Z" fill="#556068"/>
<path fill-rule="evenodd" clip-rule="evenodd" d="M30 36C30 34.3431 28.6569 33 27 33C25.3431 33 24 34.3431 24 36C24 37.6569 25.3431 39 27 39C28.6569 39 30 37.6569 30 36ZM26 36C26 35.4477 26.4477 35 27 35C27.5523 35 28 35.4477 28 36C28 36.5523 27.5523 37 27 37C26.4477 37 26 36.5523 26 36Z" fill="#556068"/>
<path fill-rule="evenodd" clip-rule="evenodd" d="M11 15C11 13.3431 9.65685 12 8 12C6.34315 12 5 13.3431 5 15C5 16.6569 6.34315 18 8 18C9.65685 18 11 16.6569 11 15ZM7 15C7 14.4477 7.44772 14 8 14C8.55228 14 9 14.4477 9 15C9 15.5523 8.55228 16 8 16C7.44772 16 7 15.5523 7 15Z" fill="#556068"/>
</svg>
