<svg width="16" height="14" viewBox="0 0 16 14" fill="none" xmlns="http://www.w3.org/2000/svg">
<path fill-rule="evenodd" clip-rule="evenodd" d="M8.73518 0.7973C9.44834 0.448228 10.0705 0.333251 11.0356 0.333263C13.5054 0.343491 15.3334 2.42648 15.3334 5.07984C15.3334 7.10509 14.2042 9.06144 12.1009 10.9532C10.9968 11.9461 9.5872 12.9288 8.57768 13.4516L8.00008 13.7507L7.42248 13.4516C6.41296 12.9288 5.00334 11.9461 3.89931 10.9532C1.79597 9.06144 0.666748 7.10509 0.666748 5.07984C0.666748 2.3981 2.47771 0.333252 4.96978 0.333252C5.90027 0.333252 6.55429 0.459102 7.28129 0.818675C7.5344 0.943864 7.77221 1.09236 7.9934 1.26376C8.22344 1.08218 8.47115 0.926539 8.73518 0.7973Z" fill="#FF5A5F"/>
</svg>
