<svg width="16" height="14" viewBox="0 0 16 14" fill="none" xmlns="http://www.w3.org/2000/svg">
<path fill-rule="evenodd" clip-rule="evenodd" d="M11.0355 0.333385C10.0704 0.333374 9.44827 0.44835 8.73511 0.797422C8.47107 0.926661 8.22336 1.0823 7.99332 1.26388C7.77213 1.09248 7.53432 0.943986 7.28121 0.818797C6.55422 0.459224 5.90019 0.333374 4.9697 0.333374C2.47763 0.333374 0.666672 2.39822 0.666672 5.07996C0.666672 7.10521 1.79589 9.06156 3.89923 10.9533C5.00327 11.9463 6.41289 12.9289 7.42241 13.4517L8 13.7508L8.5776 13.4517C9.58712 12.9289 10.9967 11.9463 12.1008 10.9533C14.2041 9.06156 15.3333 7.10521 15.3333 5.07996C15.3333 2.4266 13.5053 0.343613 11.0355 0.333385ZM14 5.07996C14 6.66664 13.0575 8.29958 11.2092 9.96195C10.2015 10.8683 8.90598 11.774 8.00001 12.2492C7.09403 11.774 5.79855 10.8683 4.79086 9.96195C2.94255 8.29958 2.00001 6.66664 2.00001 5.07996C2.00001 3.09852 3.25577 1.66671 4.9697 1.66671C5.70953 1.66671 6.16542 1.75443 6.69009 2.01394C7.00001 2.16722 7.27392 2.36962 7.51103 2.62255L8.00156 3.14584L8.48764 2.61841C8.73007 2.35534 9.00801 2.14833 9.32129 1.99499C9.83059 1.7457 10.258 1.66671 11.0327 1.66671C12.7255 1.67373 14 3.12602 14 5.07996Z" fill="#263238"/>
</svg>
