<svg width="24" height="24" viewBox="0 0 24 24" fill="none" xmlns="http://www.w3.org/2000/svg">
<path fill-rule="evenodd" clip-rule="evenodd" d="M5 5H1V7H5V16H1V18H5V19.1818C5 20.186 5.89543 21 7 21H9C9.36429 21 9.70583 20.9115 10 20.7568C10.2942 20.9115 10.6357 21 11 21H13C13.3643 21 13.7058 20.9115 14 20.7568C14.2942 20.9115 14.6357 21 15 21H17C18.1046 21 19 20.186 19 19.1818V18H23V16H19V7H23V5H19V3.81818C19 2.81403 18.1046 2 17 2H15C14.6357 2 14.2942 2.08854 14 2.24324C13.7058 2.08854 13.3643 2 13 2H11C10.6357 2 10.2942 2.08854 10 2.24324C9.70583 2.08854 9.36429 2 9 2H7C5.89543 2 5 2.81403 5 3.81818V5ZM17 16V7V5V4H15V19H17V18V16ZM7 18V16V7V5V4H9V19H7V18ZM13 4H11V19H13V4Z" fill="#B0BEC5"/>
</svg>
