<svg width="16" height="16" viewBox="0 0 16 16" fill="none" xmlns="http://www.w3.org/2000/svg">
<path fill-rule="evenodd" clip-rule="evenodd" d="M0.666748 8.00002C0.666748 12.0501 3.94999 15.3334 8.00008 15.3334C12.0502 15.3334 15.3334 12.0501 15.3334 8.00002C15.3334 3.94993 12.0502 0.666687 8.00008 0.666687C3.94999 0.666687 0.666748 3.94993 0.666748 8.00002ZM14.0001 8.00002C14.0001 11.3137 11.3138 14 8.00008 14C4.68637 14 2.00008 11.3137 2.00008 8.00002C2.00008 4.68631 4.68637 2.00002 8.00008 2.00002C11.3138 2.00002 14.0001 4.68631 14.0001 8.00002ZM8.66916 9.33227H9.33539V10.6656H6.66873V9.33227H7.33539V7.99894H6.66873V6.6656H8.66916V9.33227ZM8.66719 5.33227C8.66719 5.70046 8.36861 5.99894 8.0003 5.99894C7.63199 5.99894 7.33342 5.70046 7.33342 5.33227C7.33342 4.96408 7.63199 4.6656 8.0003 4.6656C8.36861 4.6656 8.66719 4.96408 8.66719 5.33227Z" fill="#B0BEC5"/>
</svg>
