<svg width="18" height="18" viewBox="0 0 18 18" fill="none" xmlns="http://www.w3.org/2000/svg">
<path d="M3.37856 0.814844C2.80903 1.03633 2.32739 1.33164 1.84575 1.81328C1.36411 2.29141 1.0688 2.77656 0.847314 3.34258C0.632861 3.89102 0.488721 4.52031 0.446533 5.44141C0.404346 6.3625 0.393799 6.65782 0.393799 9.00626C0.393799 11.3547 0.404346 11.65 0.446533 12.5711C0.488721 13.4922 0.636377 14.1215 0.847314 14.6699C1.0688 15.2395 1.36411 15.7211 1.84575 16.2027C2.32739 16.6844 2.80903 16.9797 3.37856 17.2012C3.927 17.4156 4.5563 17.5598 5.47739 17.602C6.39849 17.6441 6.6938 17.6547 9.04224 17.6547C11.3907 17.6547 11.686 17.6441 12.6071 17.602C13.5282 17.5598 14.1575 17.4121 14.7059 17.2012C15.2754 16.9797 15.7571 16.6844 16.2387 16.2027C16.7204 15.7211 17.0157 15.2395 17.2372 14.6699C17.4516 14.1215 17.5958 13.4922 17.6379 12.5711C17.6801 11.65 17.6907 11.3547 17.6907 9.00626C17.6907 6.65782 17.6801 6.3625 17.6379 5.44141C17.5958 4.52031 17.4481 3.89102 17.2372 3.34258C17.0157 2.77656 16.7204 2.29141 16.2422 1.81328C15.7606 1.33164 15.279 1.03633 14.7094 0.814844C14.161 0.600391 13.5317 0.45625 12.6106 0.414063C11.6895 0.371875 11.3942 0.361328 9.04575 0.361328C6.69731 0.361328 6.402 0.371875 5.48091 0.414063C4.5563 0.452734 3.927 0.600391 3.37856 0.814844ZM12.5368 1.96797C13.3805 2.00664 13.8375 2.14727 14.1434 2.2668C14.5477 2.425 14.836 2.61133 15.1383 2.91367C15.4407 3.21602 15.627 3.5043 15.7852 3.9086C15.9047 4.21445 16.0454 4.67149 16.084 5.51524C16.1262 6.42578 16.1332 6.7 16.1332 9.00977C16.1332 11.3195 16.1227 11.5938 16.084 12.5043C16.0454 13.3481 15.9047 13.8051 15.7852 14.1109C15.627 14.5152 15.4407 14.8035 15.1383 15.1059C14.836 15.4082 14.5477 15.5945 14.1434 15.7527C13.8375 15.8723 13.3805 16.0129 12.5368 16.0516C11.6262 16.0938 11.352 16.1008 9.04224 16.1008C6.73247 16.1008 6.45825 16.0902 5.5477 16.0516C4.70395 16.0129 4.24692 15.8723 3.94106 15.7527C3.53677 15.5945 3.24849 15.4082 2.94614 15.1059C2.6438 14.8035 2.45747 14.5152 2.29927 14.1109C2.17974 13.8051 2.03911 13.3481 2.00044 12.5043C1.95825 11.5938 1.95122 11.3195 1.95122 9.00977C1.95122 6.7 1.96177 6.42578 2.00044 5.51524C2.03911 4.67149 2.17974 4.21445 2.29927 3.9086C2.45747 3.5043 2.6438 3.21602 2.94614 2.91367C3.24849 2.61133 3.53677 2.425 3.94106 2.2668C4.24692 2.14727 4.70395 2.00664 5.5477 1.96797C6.45825 1.92578 6.73247 1.91875 9.04224 1.91875C11.352 1.91875 11.6262 1.92578 12.5368 1.96797Z" fill="#B0BEC5"/>
<path d="M4.60205 9.01055C4.60205 11.4645 6.5919 13.4508 9.04229 13.4508C11.4927 13.4508 13.4825 11.4609 13.4825 9.01055C13.4825 6.56016 11.4962 4.57031 9.04229 4.57031C6.58838 4.57031 4.60205 6.55664 4.60205 9.01055ZM11.9251 9.01055C11.9251 10.6031 10.6349 11.8934 9.04229 11.8934C7.44971 11.8934 6.15947 10.6031 6.15947 9.01055C6.15947 7.41797 7.44971 6.12773 9.04229 6.12773C10.6349 6.12773 11.9251 7.41797 11.9251 9.01055Z" fill="#B0BEC5"/>
<path d="M13.6619 5.43164C14.2346 5.43164 14.699 4.96731 14.699 4.39453C14.699 3.82175 14.2346 3.35742 13.6619 3.35742C13.0891 3.35742 12.6248 3.82175 12.6248 4.39453C12.6248 4.96731 13.0891 5.43164 13.6619 5.43164Z" fill="#B0BEC5"/>
</svg>
