<svg width="24" height="24" viewBox="0 0 24 24" fill="none" xmlns="http://www.w3.org/2000/svg">
<path fill-rule="evenodd" clip-rule="evenodd" d="M23 15H2V17H23V15Z" fill="#B0BEC5"/>
<path fill-rule="evenodd" clip-rule="evenodd" d="M23 6H12C11.4477 6 11 6.44772 11 7C11 7.55228 11.4477 8 12 8H21C22.1046 8 23 7.10457 23 6Z" fill="#B0BEC5"/>
<path fill-rule="evenodd" clip-rule="evenodd" d="M23 20V6C21.8954 6 21 6.89543 21 8V20H23Z" fill="#B0BEC5"/>
<path fill-rule="evenodd" clip-rule="evenodd" d="M23 11H9V13H23V11Z" fill="#B0BEC5"/>
<path fill-rule="evenodd" clip-rule="evenodd" d="M9.5 13C4.62915 13 2 16.9722 2 20H0C0 16.0278 3.37085 11 9.5 11V13Z" fill="#B0BEC5"/>
<path fill-rule="evenodd" clip-rule="evenodd" d="M23 18H1V20H23V18Z" fill="#B0BEC5"/>
</svg>
