<svg width="24" height="24" viewBox="0 0 24 24" fill="none" xmlns="http://www.w3.org/2000/svg">
<path fill-rule="evenodd" clip-rule="evenodd" d="M22 21V13C22 11.8954 21.1046 11 20 11H4C2.89543 11 2 11.8954 2 13V21C2 22.1046 2.89543 23 4 23H20C21.1046 23 22 22.1046 22 21ZM20 13H16V21H20V13ZM8 21V13H4V21H8ZM10 13H14V21H10V13Z" fill="#B0BEC5"/>
<path d="M15.1707 12C15.0602 11.6872 15 11.3506 15 11C15 9.34315 16.3431 8 18 8C19.6569 8 21 9.34315 21 11C21 11.3506 20.9398 11.6872 20.8293 12H18C18.5523 12 19 11.5523 19 11C19 10.4477 18.5523 10 18 10C17.4477 10 17 10.4477 17 11C17 11.5523 17.4477 12 18 12H15.1707Z" fill="#B0BEC5"/>
<path fill-rule="evenodd" clip-rule="evenodd" d="M12 9C13.6569 9 15 7.65685 15 6C15 4.34315 13.6569 3 12 3C10.3431 3 9 4.34315 9 6C9 7.65685 10.3431 9 12 9ZM12 7C12.5523 7 13 6.55228 13 6C13 5.44772 12.5523 5 12 5C11.4477 5 11 5.44772 11 6C11 6.55228 11.4477 7 12 7Z" fill="#B0BEC5"/>
<circle cx="18" cy="2" r="1" fill="#B0BEC5"/>
</svg>
