<svg width="12" height="16" viewBox="0 0 12 16" fill="none" xmlns="http://www.w3.org/2000/svg">
<path fill-rule="evenodd" clip-rule="evenodd" d="M6 15.5517L6.43849 15.1688C10.1258 11.9491 12 9.13784 12 6.66666C12 3.16711 9.26863 0.666664 6 0.666664C2.73137 0.666664 0 3.16711 0 6.66666C0 9.13784 1.87421 11.9491 5.56151 15.1688L6 15.5517ZM6 13.7756C2.87107 10.9557 1.33333 8.56615 1.33333 6.66666C1.33333 3.93107 3.44274 2 6 2C8.55726 2 10.6667 3.93107 10.6667 6.66666C10.6667 8.56615 9.12893 10.9557 6 13.7756ZM6 3.33333C7.84095 3.33333 9.33333 4.82572 9.33333 6.66666C9.33333 8.50761 7.84095 10 6 10C4.15905 10 2.66667 8.50761 2.66667 6.66666C2.66667 4.82572 4.15905 3.33333 6 3.33333ZM4 6.66666C4 5.56209 4.89543 4.66666 6 4.66666C7.10457 4.66666 8 5.56209 8 6.66666C8 7.77123 7.10457 8.66666 6 8.66666C4.89543 8.66666 4 7.77123 4 6.66666Z" fill="#263238"/>
</svg>
