<svg width="24" height="24" viewBox="0 0 24 24" fill="none" xmlns="http://www.w3.org/2000/svg">
<path fill-rule="evenodd" clip-rule="evenodd" d="M1.81818 3H22.1818C23.186 3 24 3.89543 24 5V18C24 19.1046 23.186 20 22.1818 20H1.81818C0.814028 20 0 19.1046 0 18V5C0 3.89543 0.814028 3 1.81818 3ZM2 5V18H16V5H2ZM18 5V18H22V5H18ZM19 16C19 16.5523 19.4477 17 20 17C20.5523 17 21 16.5523 21 16C21 15.4477 20.5523 15 20 15C19.4477 15 19 15.4477 19 16ZM20 13C19.4477 13 19 12.5523 19 12C19 11.4477 19.4477 11 20 11C20.5523 11 21 11.4477 21 12C21 12.5523 20.5523 13 20 13Z" fill="#B0BEC5"/>
<path fill-rule="evenodd" clip-rule="evenodd" d="M6 14H12V16H6V14Z" fill="#B0BEC5"/>
<path fill-rule="evenodd" clip-rule="evenodd" d="M3 11H15V13H3V11Z" fill="#B0BEC5"/>
<path fill-rule="evenodd" clip-rule="evenodd" d="M3.98482 15.3307C3.34184 14.7949 3 13.9905 3 13H5C5 13.5095 5.15816 13.7051 5.26518 13.7943C5.40429 13.9102 5.64857 14 6 14V16C5.35143 16 4.59571 15.8398 3.98482 15.3307Z" fill="#B0BEC5"/>
<path fill-rule="evenodd" clip-rule="evenodd" d="M14.0152 15.3307C14.6582 14.7949 15 13.9905 15 13H13C13 13.5095 12.8418 13.7051 12.7348 13.7943C12.5957 13.9102 12.3514 14 12 14V16C12.6486 16 13.4043 15.8398 14.0152 15.3307Z" fill="#B0BEC5"/>
</svg>
