<svg width="20" height="16" viewBox="0 0 20 16" fill="none" xmlns="http://www.w3.org/2000/svg">
<path d="M20 1.89405C19.2641 2.2153 18.4733 2.43243 17.6433 2.53008C18.4905 2.03016 19.1411 1.23857 19.4475 0.295403C18.6547 0.758239 17.7765 1.0944 16.8419 1.27559C16.0933 0.490562 15.027 0 13.8468 0C11.5807 0 9.74344 1.8085 9.74344 4.03914C9.74344 4.35571 9.7798 4.66401 9.84974 4.95963C6.43952 4.79119 3.41607 3.18311 1.3923 0.739371C1.0391 1.33594 0.836753 2.0298 0.836753 2.77003C0.836753 4.17136 1.56121 5.4077 2.6622 6.13202C1.98954 6.11106 1.35689 5.92937 0.803614 5.62684C0.803321 5.64369 0.803321 5.66061 0.803321 5.67761C0.803321 7.63467 2.21771 9.26724 4.09481 9.63825C3.75047 9.73058 3.38798 9.77991 3.01372 9.77991C2.74933 9.77991 2.49226 9.75463 2.24178 9.70746C2.76389 11.3122 4.27923 12.48 6.07477 12.5126C4.67047 13.5959 2.9012 14.2417 0.978822 14.2417C0.647646 14.2417 0.321007 14.2226 0 14.1853C1.81587 15.3313 3.97271 16 6.28992 16C13.8372 16 17.9644 9.84515 17.9644 4.50752C17.9644 4.33238 17.9604 4.15818 17.9525 3.98498C18.7542 3.4155 19.4499 2.70407 20 1.89405Z" fill="#B0BEC5"/>
</svg>
