<svg width="20" height="20" viewBox="0 0 20 20" fill="none" xmlns="http://www.w3.org/2000/svg">
<path fill-rule="evenodd" clip-rule="evenodd" d="M11.3432 4.54356L12.7682 5.9469L6.44998 12.3626C6.13295 12.6862 6.13295 13.207 6.44998 13.5306C6.75083 13.8377 7.2534 13.8363 7.55103 13.5289L14.5024 6.46729C15.5172 5.43166 15.5172 3.76845 14.5024 2.73282C13.5342 1.74472 11.821 1.7667 10.8721 2.7347L3.28478 10.4369C1.57178 12.1843 1.57178 14.9902 3.28478 16.7377C4.94819 18.4345 7.80568 18.4069 9.44311 16.7361L18.2921 7.74886L19.7172 9.15208L10.8699 18.1377C8.45596 20.6007 4.31032 20.6408 1.85657 18.1377C-0.618817 15.6126 -0.618817 11.5619 1.85828 9.03505L9.44557 1.33289C11.169 -0.425179 14.1703 -0.463685 15.9309 1.33303C17.7077 3.1463 17.7077 6.05381 15.9293 7.86871L8.9821 14.926C7.90743 16.036 6.10958 16.041 5.02138 14.9303C3.94248 13.8291 3.94248 12.0642 5.02318 10.9611L11.3432 4.54356Z" fill="#37474F"/>
</svg>
