<svg width="21" height="20" viewBox="0 0 21 20" fill="none" xmlns="http://www.w3.org/2000/svg">
<path fill-rule="evenodd" clip-rule="evenodd" d="M10.5 0C4.70102 0 0 4.47716 0 9.99996C0 14.2365 2.76761 17.8581 6.6735 19.3151C6.58175 18.5239 6.49878 17.3071 6.70991 16.4434C6.90073 15.6629 7.94116 11.4728 7.94116 11.4728C7.94116 11.4728 7.62708 10.8737 7.62708 9.98808C7.62708 8.59758 8.47333 7.55948 9.52701 7.55948C10.4228 7.55948 10.8555 8.20001 10.8555 8.96809C10.8555 9.8261 10.2819 11.1089 9.98594 12.2976C9.73857 13.293 10.51 14.1046 11.5408 14.1046C13.407 14.1046 14.8415 12.2306 14.8415 9.52542C14.8415 7.1311 13.0351 5.45706 10.4556 5.45706C7.46802 5.45706 5.71442 7.59112 5.71442 9.79675C5.71442 10.6562 6.06206 11.5778 6.49585 12.0789C6.58158 12.1779 6.59423 12.2646 6.56867 12.3657C6.48897 12.6815 6.31183 13.3607 6.27706 13.4998C6.23127 13.6828 6.12489 13.7217 5.92589 13.6335C4.61452 13.0521 3.79461 11.2261 3.79461 9.75945C3.79461 6.60492 6.20115 3.70802 10.7323 3.70802C14.3747 3.70802 17.2054 6.17997 17.2054 9.48354C17.2054 12.9299 14.9237 15.7035 11.7569 15.7035C10.6928 15.7035 9.69261 15.1771 9.35022 14.5552C9.35022 14.5552 8.82373 16.4645 8.69608 16.9324C8.45904 17.801 7.81911 18.8898 7.39108 19.554C8.37349 19.8437 9.41753 19.9999 10.5 19.9999C16.299 19.9999 21 15.5228 21 9.99996C21 4.47716 16.299 0 10.5 0Z" fill="#B0BEC5"/>
</svg>
