<svg width="24" height="24" viewBox="0 0 24 24" fill="none" xmlns="http://www.w3.org/2000/svg">
<path d="M21.3 17.8C20.8 18.3 20.6 18.5 20 18.5C19.4 18.5 19.2 18.3 18.7 17.8C17.5 16.3 15.3 16.1 13.8 17.3C13.3 17.7 13 18.3 12.4 18.4C11.8 18.6 11.1 18.3 10.7 17.8C9.99998 17 9 16.5 8.00002 16.5C7.00003 16.5 6 17 5.30002 17.8C4.70002 18.7 3.3 18.7 2.7 17.8C2.00002 17 0.999984 16.5 0 16.5V18.5C0.6 18.5 0.800016 18.7 1.29998 19.2C1.99997 20 3 20.5 3.99998 20.5C4.99997 20.5 6 20 6.69998 19.2C7.29998 18.3 8.7 18.3 9.3 19.2C10.5 20.7 12.7 20.9 14.2 19.7C14.4 19.5 14.6 19.4 14.7 19.2C15.3 18.3 16.7 18.3 17.3 19.2C18.5 20.7 20.7 20.9 22.2 19.7C22.4 19.5 22.6 19.4 22.7 19.2C23.2 18.7 23.4 18.5 24 18.5V16.5C23 16.5 22 17 21.3 17.8Z" fill="#B0BEC5"/>
<path fill-rule="evenodd" clip-rule="evenodd" d="M6 3V12.2C5.7 12.4 5.49998 12.5999 5.30002 12.8C4.70002 13.7 3.3 13.7 2.7 12.8C2.00002 12 0.999984 11.5 0 11.5V13.5C0.6 13.5 0.800016 13.7 1.29998 14.2C2.00002 15 3 15.5 3.99998 15.5C4.99997 15.5 6 15 6.69998 14.2C7.29998 13.3 8.7 13.3 9.3 14.2C10.5 15.7 12.7 15.9 14.2 14.7C14.3677 14.5658 14.5129 14.4091 14.6545 14.2564C14.935 13.9537 15.2013 13.6664 15.6 13.6C16.2 13.4999 16.9 13.7 17.3 14.2C18.5 15.7 20.7 15.9 22.2 14.7C22.2709 14.6291 22.3417 14.5708 22.4081 14.5162C22.5292 14.4166 22.6354 14.3291 22.7 14.2C23.2 13.7 23.4 13.5 24 13.5V11.5C23 11.5 22 12 21.3 12.8C20.7 13.7 19.3 13.7 18.7 12.8C18.2 12.3 17.7 11.9 17 11.7V3H15V4.49999H8.00002V3H6ZM13.3 12.8C13.7 12.3 14.3 11.9 15 11.6V10.5H8.00002V11.5C9 11.5 9.99998 12 10.7 12.8C11.6 13.7 12.4 13.7 13.3 12.8ZM8.00002 8.49997H15V6.49995H8.00002V8.49997Z" fill="#B0BEC5"/>
</svg>
