<svg width="24" height="24" viewBox="0 0 24 24" fill="none" xmlns="http://www.w3.org/2000/svg">
<path fill-rule="evenodd" clip-rule="evenodd" d="M16 6V4H18V6H20V8H18V10H16V8H14V6H16Z" fill="#4FC3F7"/>
<path fill-rule="evenodd" clip-rule="evenodd" d="M22 19V3C22 2.44772 21.5523 2 21 2H5C5 0.89543 5.89543 0 7 0H22C23.1046 0 24 0.89543 24 2V17C24 18.1046 23.1046 19 22 19Z" fill="#4FC3F7"/>
<path fill-rule="evenodd" clip-rule="evenodd" d="M10 9.75995L16 14.1599V18H4V14.1599L10 9.75995ZM6 15.1734V16H14V15.1734L10 12.2401L6 15.1734Z" fill="#4FC3F7"/>
<path fill-rule="evenodd" clip-rule="evenodd" d="M12 4H2C0.89543 4 0 4.89543 0 6V22C0 23.1046 0.89543 24 2 24H18C19.1046 24 20 23.1046 20 22V12H18V22H2V6H12V4Z" fill="#4FC3F7"/>
</svg>
