<svg width="23" height="22" viewBox="0 0 23 22" fill="none" xmlns="http://www.w3.org/2000/svg">
<path fill-rule="evenodd" clip-rule="evenodd" d="M11.5 22C5.42487 22 0.5 17.0751 0.5 11C0.5 4.92487 5.42487 0 11.5 0C17.5751 0 22.5 4.92487 22.5 11C22.5 17.0751 17.5751 22 11.5 22ZM18.8995 16.1246C19.9086 14.6703 20.5 12.9042 20.5 11C20.5 6.02944 16.4706 2 11.5 2C6.52944 2 2.5 6.02944 2.5 11C2.5 12.9042 3.09138 14.6703 4.1005 16.1246C5.22595 14.6381 7.8706 14 11.5 14C15.1294 14 17.774 14.6381 18.8995 16.1246ZM17.4647 17.7398C17.172 16.6874 15.0694 16 11.5 16C7.93062 16 5.828 16.6874 5.53532 17.7398C7.1233 19.1462 9.21194 20 11.5 20C13.7881 20 15.8767 19.1462 17.4647 17.7398ZM11.5 14C9.26086 14 7.5 12.4274 7.5 9C7.5 6.75576 9.0791 5 11.5 5C13.9142 5 15.5 6.92158 15.5 9.2C15.5 12.4796 13.7181 14 11.5 14ZM9.5 9C9.5 11.2693 10.3182 12 11.5 12C12.6777 12 13.5 11.2984 13.5 9.2C13.5 7.95042 12.7157 7 11.5 7C10.2337 7 9.5 7.81582 9.5 9Z" fill="#4FC3F7"/>
</svg>
