<svg width="16" height="16" viewBox="0 0 16 16" fill="none" xmlns="http://www.w3.org/2000/svg">
<path fill-rule="evenodd" clip-rule="evenodd" d="M3.33331 6L0.167779 11.698C0.0577363 11.8961 -0.00555239 12.1196 0.0176219 12.345C0.190231 14.0238 1.60885 15.3333 3.33332 15.3333C5.05779 15.3333 6.47641 14.0238 6.64902 12.345C6.6722 12.1196 6.60891 11.8961 6.49886 11.698L3.33331 6ZM3.33332 8.7455L1.35616 12.3044C1.50206 13.2639 2.33253 14 3.33332 14C4.33412 14 5.16458 13.2639 5.31048 12.3044L3.33332 8.7455Z" fill="#263238"/>
<path fill-rule="evenodd" clip-rule="evenodd" d="M12.6666 3.33337L9.50111 9.03135C9.39106 9.22943 9.32778 9.45292 9.35095 9.67833C9.52356 11.3572 10.9422 12.6667 12.6667 12.6667C14.3911 12.6667 15.8097 11.3572 15.9824 9.67833C16.0055 9.45293 15.9422 9.22943 15.8322 9.03135L12.6666 3.33337ZM12.6666 6.07888L10.6895 9.63776C10.8354 10.5973 11.6659 11.3334 12.6667 11.3334C13.6674 11.3334 14.4979 10.5973 14.6438 9.63776L12.6666 6.07888Z" fill="#263238"/>
<path fill-rule="evenodd" clip-rule="evenodd" d="M13.1851 3.31288C13.2882 3.66632 13.0853 4.03648 12.7319 4.13964L3.06681 6.96081C2.71337 7.06398 2.34321 6.86109 2.24005 6.50765C2.13688 6.15421 2.33977 5.78406 2.69321 5.68089L12.3583 2.85972C12.7117 2.75655 13.0819 2.95944 13.1851 3.31288Z" fill="#263238"/>
<path fill-rule="evenodd" clip-rule="evenodd" d="M7.99999 5.33333C7.63181 5.33333 7.33333 5.03486 7.33333 4.66667V0.666667C7.33333 0.298477 7.63181 0 7.99999 0C8.36818 0 8.66666 0.298478 8.66666 0.666667V4.66667C8.66666 5.03486 8.36818 5.33333 7.99999 5.33333Z" fill="#263238"/>
</svg>
