<svg width="16" height="16" viewBox="0 0 16 16" fill="none" xmlns="http://www.w3.org/2000/svg">
<path fill-rule="evenodd" clip-rule="evenodd" d="M6.66634 12.0007C3.72082 12.0007 1.33301 9.61284 1.33301 6.66732C1.33301 3.7218 3.72082 1.33398 6.66634 1.33398C9.61186 1.33398 11.9997 3.7218 11.9997 6.66732C11.9997 7.89979 11.5816 9.03462 10.8796 9.93775L14.4711 13.5292L13.5282 14.472L9.93677 10.8806C9.03365 11.5826 7.89882 12.0007 6.66634 12.0007ZM10.6663 6.66732C10.6663 8.87646 8.87548 10.6673 6.66634 10.6673C4.4572 10.6673 2.66634 8.87646 2.66634 6.66732C2.66634 4.45818 4.4572 2.66732 6.66634 2.66732C8.87548 2.66732 10.6663 4.45818 10.6663 6.66732Z" fill="white"/>
</svg>
