<svg width="24" height="24" viewBox="0 0 24 24" fill="none" xmlns="http://www.w3.org/2000/svg">
<path fill-rule="evenodd" clip-rule="evenodd" d="M4 8.00366V6H20V8.01906L16.5948 12L7.41845 12.0001L4 8.00366ZM15.8862 10L17.5969 8H6.41625L8.12701 10H15.8862Z" fill="#B0BEC5"/>
<path fill-rule="evenodd" clip-rule="evenodd" d="M1 4C1 2.89543 1.89543 2 3 2H21C22.1046 2 23 2.89543 23 4V6C23 7.10457 22.1046 8 21 8H3C1.89543 8 1 7.10457 1 6V4ZM21 6V4H3V6H21Z" fill="#B0BEC5"/>
<path d="M7.03543 22H5.02063C5.01579 20.9851 5.4506 19.9813 6.30668 19.3C6.80923 18.8 7.01027 18.6 7.01027 18C7.01027 17.4 6.80927 17.2 6.30668 16.7C5.50259 16 5 15 5 14H7.01032C7.01032 14.6 7.21132 14.8 7.71391 15.3C7.84373 15.3646 7.93163 15.4708 8.03175 15.5919C8.08668 15.6583 8.14528 15.7291 8.2165 15.8C9.42269 17.3 9.22164 19.5 7.71391 20.7C7.26159 21 7.03543 21.5 7.03543 22Z" fill="#B0BEC5"/>
<path d="M12.0354 22H10.0206C10.0158 20.9851 10.4506 19.9813 11.3067 19.3C11.8092 18.8 12.0103 18.6 12.0103 18C12.0103 17.4 11.8093 17.2 11.3067 16.7C10.5026 16 10 15 10 14H12.0103C12.0103 14.6 12.2113 14.8 12.7139 15.3C12.8437 15.3646 12.9316 15.4708 13.0318 15.5919C13.0867 15.6583 13.1453 15.7291 13.2165 15.8C14.4227 17.3 14.2216 19.5 12.7139 20.7C12.2616 21 12.0354 21.5 12.0354 22Z" fill="#B0BEC5"/>
<path d="M17.0354 22H15.0206C15.0158 20.9851 15.4506 19.9813 16.3067 19.3C16.8092 18.8 17.0103 18.6 17.0103 18C17.0103 17.4 16.8093 17.2 16.3067 16.7C15.5026 16 15 15 15 14H17.0103C17.0103 14.6 17.2113 14.8 17.7139 15.3C17.8437 15.3646 17.9316 15.4708 18.0318 15.5919C18.0867 15.6583 18.1453 15.7291 18.2165 15.8C19.4227 17.3 19.2216 19.5 17.7139 20.7C17.2616 21 17.0354 21.5 17.0354 22Z" fill="#B0BEC5"/>
</svg>
