<svg width="24" height="24" viewBox="0 0 24 24" fill="none" xmlns="http://www.w3.org/2000/svg">
<path d="M22.1532 4.02618C23.2113 4.17073 24.0001 5.07457 24.0001 6.14252C24 7.32215 23.0437 8.27841 21.8641 8.27841H0V6.27841H22V6.06975L9.98633e-05 3.25894L0 1L22.1532 4.02618Z" fill="#B0BEC5"/>
<path fill-rule="evenodd" clip-rule="evenodd" d="M10 17H2V19H10V17Z" fill="#B0BEC5"/>
<path fill-rule="evenodd" clip-rule="evenodd" d="M21 21H0L0 23H21V21Z" fill="#B0BEC5"/>
<path fill-rule="evenodd" clip-rule="evenodd" d="M21 23V7H19V23H21Z" fill="#B0BEC5"/>
<path fill-rule="evenodd" clip-rule="evenodd" d="M17 14C17 13.4477 16.5523 13 16 13H10C9.44772 13 9 13.4477 9 14C9 14.5523 9.44772 15 10 15H16C16.5523 15 17 14.5523 17 14Z" fill="#B0BEC5"/>
<path fill-rule="evenodd" clip-rule="evenodd" d="M4 23L4 11H2L2 23H4Z" fill="#B0BEC5"/>
<path fill-rule="evenodd" clip-rule="evenodd" d="M10 23V17H8V23H10Z" fill="#B0BEC5"/>
<path fill-rule="evenodd" clip-rule="evenodd" d="M14 23V13H12V23H14Z" fill="#B0BEC5"/>
</svg>
