<svg width="24" height="24" viewBox="0 0 24 24" fill="none" xmlns="http://www.w3.org/2000/svg">
<path fill-rule="evenodd" clip-rule="evenodd" d="M22.1818 2.26807H1.81818C0.814028 2.26807 0 3.1635 0 4.26807V17.2681C0 18.3726 0.814028 19.2681 1.81818 19.2681H7.73185L6 20.2679L7 22L11.7318 19.2681H12.2682L17 22L18 20.2679L16.2682 19.2681H22.1818C23.186 19.2681 24 18.3726 24 17.2681V4.26807C24 3.1635 23.186 2.26807 22.1818 2.26807ZM12.8041 17.2681H22V4.26807H2V17.2681H11.1959L11.1962 17.2679L11.1962 17.2681H12.8038L12.8038 17.2679L12.8041 17.2681Z" fill="#B0BEC5"/>
<path fill-rule="evenodd" clip-rule="evenodd" d="M23 14H1V16H23V14Z" fill="#B0BEC5"/>
</svg>
