<svg width="16" height="12" viewBox="0 0 16 12" fill="none" xmlns="http://www.w3.org/2000/svg">
<path fill-rule="evenodd" clip-rule="evenodd" d="M11.3333 9.33342V10.6667H12C13.8409 10.6667 15.3333 9.17436 15.3333 7.33342C15.3333 5.65672 14.0953 4.26917 12.4836 4.03491C11.9166 2.0705 10.1057 0.666748 7.99996 0.666748C6.43558 0.666748 5.00597 1.44346 4.14655 2.70026C2.17798 2.95572 0.666626 4.63926 0.666626 6.66675C0.666626 8.87589 2.45749 10.6667 4.66663 10.6667V9.33342C3.19387 9.33342 1.99996 8.13951 1.99996 6.66675C1.99996 5.23371 3.13285 4.05818 4.55973 4.00218L4.92707 3.98776L5.1109 3.6694C5.70282 2.64437 6.79489 2.00008 7.99996 2.00008C9.63404 2.00008 11.0202 3.18426 11.2873 4.77752L11.3825 5.34553L11.9583 5.33384C11.9791 5.33349 11.9791 5.33349 12 5.33342C13.1045 5.33342 14 6.22885 14 7.33342C14 8.43798 13.1045 9.33342 12 9.33342H11.3333ZM8.66664 12.0001V7.60959L10.1952 9.13818L11.138 8.19537L7.99998 5.0573L4.8619 8.19537L5.80471 9.13818L7.33331 7.60959V12.0001H8.66664Z" fill="white"/>
</svg>
