<svg width="24" height="24" viewBox="0 0 24 24" fill="none" xmlns="http://www.w3.org/2000/svg">
<path d="M21.2299 8.25723C21.5953 7.8255 21.5328 7.17445 21.0684 6.85172C18.4812 5.05384 15.338 4 11.9487 4C8.55945 4 5.41629 5.05384 2.82907 6.85171C2.36465 7.17445 2.30221 7.8255 2.66753 8.25723C3.01625 8.66936 3.62676 8.72788 4.07284 8.4238C6.3167 6.89422 9.02829 6 11.9487 6C14.8692 6 17.5808 6.89422 19.8246 8.4238C20.2707 8.72788 20.8812 8.66936 21.2299 8.25723Z" fill="#B0BEC5"/>
<path d="M18.6362 12.3226C19.0048 11.8869 18.9386 11.2282 18.4594 10.9181C16.5841 9.70454 14.3487 9 11.9487 9C9.54877 9 7.31336 9.70454 5.43804 10.9181C4.95887 11.2282 4.89263 11.8869 5.2613 12.3226C5.60712 12.7313 6.21023 12.7919 6.66451 12.5086C8.19773 11.5524 10.0087 11 11.9487 11C13.8888 11 15.6997 11.5524 17.233 12.5086C17.6872 12.7919 18.2904 12.7313 18.6362 12.3226Z" fill="#B0BEC5"/>
<path fill-rule="evenodd" clip-rule="evenodd" d="M12 20C13.6569 20 15 18.6569 15 17C15 15.3431 13.6569 14 12 14C10.3431 14 9 15.3431 9 17C9 18.6569 10.3431 20 12 20ZM12 18C12.5523 18 13 17.5523 13 17C13 16.4477 12.5523 16 12 16C11.4477 16 11 16.4477 11 17C11 17.5523 11.4477 18 12 18Z" fill="#B0BEC5"/>
</svg>
