<svg width="20" height="14" viewBox="0 0 20 14" fill="none" xmlns="http://www.w3.org/2000/svg">
<path d="M19.7891 3.01778C19.7891 3.01778 19.5939 1.64889 18.9926 1.04222C18.2351 0.248889 17.3838 0.248889 16.9856 0.202222C14.1976 1.3411e-07 10.0039 0 10.0039 0H9.9961C9.9961 0 5.80242 1.3411e-07 2.99883 0.202222C2.60836 0.248889 1.75713 0.248889 0.9918 1.04222C0.398282 1.64889 0.203046 3.01778 0.203046 3.01778C0.203046 3.01778 0 4.63556 0 6.24556V7.75444C0 9.36444 0.203046 10.9744 0.203046 10.9744C0.203046 10.9744 0.398282 12.3433 0.999609 12.95C1.75713 13.7433 2.75674 13.72 3.20187 13.7978C4.80281 13.9533 9.9961 14 9.9961 14C9.9961 14 14.1976 13.9922 16.9934 13.79C17.3838 13.7433 18.2351 13.7433 19.0004 12.95C19.6017 12.3433 19.797 10.9744 19.797 10.9744C19.797 10.9744 20 9.36444 20 7.75444V6.24556C19.9922 4.63556 19.7891 3.01778 19.7891 3.01778ZM8 10V4L13 7.01252L8 10Z" fill="#B0BEC5"/>
</svg>
