<svg width="36" height="32" viewBox="0 0 36 32" fill="none" xmlns="http://www.w3.org/2000/svg">
<path d="M17.8524 18.709C18.5111 18.8125 19.3402 18.8635 20.1252 19.0813C21.2646 19.398 21.788 20.2755 21.5187 21.411C20.9436 23.8288 20.647 26.2698 20.6318 28.7571C20.6287 29.1711 20.3868 29.7041 20.078 29.9745C18.4624 31.3881 16.9 31.3618 15.2905 30.0054C14.9619 29.7288 14.7078 29.1588 14.7078 28.7231C14.7094 26.313 14.3929 23.9509 13.8818 21.6026C13.5532 20.0932 14.183 19.191 15.6921 18.9407C16.3478 18.831 17.0187 18.7955 17.8524 18.709Z" fill="#FC832C"/>
<path d="M31.5438 14.8975C32.2025 15.001 33.0316 15.052 33.8166 15.2698C34.956 15.5865 35.4794 16.464 35.2101 17.5995C34.635 20.0173 34.3384 22.4583 34.3232 24.9456C34.3201 25.3596 34.0783 25.8926 33.7694 26.163C32.1538 27.5766 30.5914 27.5503 28.9819 26.1939C28.6533 25.9173 28.3992 25.3473 28.3992 24.9116C28.4008 22.5015 28.0843 20.1393 27.5732 17.7911C27.2446 16.2817 27.8744 15.3795 29.3835 15.1292C30.0407 15.0195 30.7101 14.984 31.5438 14.8975Z" fill="#FC832C"/>
<path d="M4.10236 14.8975C4.76109 15.001 5.59019 15.052 6.37518 15.2698C7.51463 15.5865 8.03796 16.464 7.76869 17.5995C7.19364 20.0173 6.89699 22.4583 6.88178 24.9456C6.87873 25.3596 6.63685 25.8926 6.32802 26.163C4.7124 27.5766 3.15003 27.5503 1.5405 26.1939C1.2119 25.9173 0.95784 25.3473 0.95784 24.9116C0.959361 22.5015 0.642931 20.1393 0.131775 17.7911C-0.196825 16.2817 0.432992 15.3795 1.94212 15.1292C2.5978 15.0195 3.26717 14.984 4.10236 14.8975Z" fill="#FC832C"/>
<path d="M20.8997 17.8908C21.738 16.8665 22.2932 15.8175 22.2841 14.5105C22.2735 13.0243 21.6954 11.8301 20.6015 10.8815C19.4043 9.84335 19.672 7.93847 21.2055 7.55842C22.4545 7.24944 23.8008 7.28034 25.1015 7.28961C25.6888 7.29424 26.2912 7.57078 26.8556 7.80098C27.2511 7.96319 27.3957 8.27681 27.1781 8.75573C26.6852 9.84026 26.8374 10.9526 26.9651 12.1159C27.0853 13.2144 26.7963 14.3622 26.6639 15.4854C26.5772 16.2177 26.454 16.9469 26.3384 17.6761C26.3003 17.9202 26.3216 18.2477 26.1756 18.3898C25.1578 19.3816 23.3186 19.9919 21.9281 18.7251C21.6299 18.4501 21.2953 18.2091 20.8997 17.8908Z" fill="#FC832C"/>
<path d="M14.4275 17.9092C13.8662 18.3449 13.3885 18.8439 12.8089 19.139C11.4869 19.8141 10.2607 19.312 9.24296 18.4824C9.0741 18.3449 9.03303 17.9988 9.00868 17.7408C8.96 17.2295 9.01629 16.7058 8.93414 16.2021C8.77897 15.2674 8.50666 14.3513 8.37887 13.4135C8.30432 12.862 8.45493 12.2827 8.42755 11.7203C8.37887 10.7501 8.3743 9.75519 8.14763 8.82207C8.01071 8.25663 8.09591 7.93992 8.54165 7.75608C9.08019 7.53361 9.66284 7.29878 10.2303 7.28951C11.4549 7.26788 12.6887 7.32659 13.9042 7.47027C14.6192 7.55524 15.2201 8.00172 15.3616 8.78962C15.5122 9.63006 15.4468 10.3639 14.6497 10.9942C12.7861 12.4696 12.5183 15.269 13.9468 17.2449C14.0959 17.4504 14.2435 17.6543 14.4275 17.9092Z" fill="#FC832C"/>
<path d="M3.91937 14.0172C1.99797 14.0111 0.56034 12.5496 0.566425 10.6092C0.572511 8.70892 2.07403 7.19182 3.94827 7.19336C5.79969 7.19491 7.31947 8.74909 7.3149 10.6385C7.31034 12.5434 5.82403 14.0234 3.91937 14.0172Z" fill="#FC832C"/>
<path d="M34.7567 10.6204C34.7598 12.5763 33.3404 14.0177 31.4114 14.0192C29.4976 14.0192 28.0128 12.5423 28.0098 10.6343C28.0067 8.76496 29.5493 7.19997 31.3977 7.19533C33.2826 7.18915 34.7537 8.68926 34.7567 10.6204Z" fill="#FC832C"/>
<path d="M21.0169 14.4911C21.0169 16.4315 19.5519 17.9193 17.6472 17.9146C15.8004 17.91 14.3247 16.4145 14.3049 14.5266C14.2836 12.5924 15.7456 11.0892 17.6518 11.083C19.5853 11.0768 21.0169 12.5291 21.0169 14.4911Z" fill="#FC832C"/>
<path d="M23.7258 0.9241C25.241 0.902471 26.5265 2.17548 26.5143 3.68795C26.5037 5.16334 25.2425 6.43944 23.7851 6.44871C22.3307 6.45798 21.0513 5.18188 21.0392 3.70958C21.027 2.21874 22.2547 0.945729 23.7258 0.9241Z" fill="#FC832C"/>
<path d="M14.2843 3.74959C14.2524 5.23889 12.9806 6.47636 11.5171 6.44238C10.0201 6.40684 8.85938 5.17864 8.87916 3.64763C8.89893 2.10426 10.081 0.910044 11.5795 0.923948C13.0977 0.937853 14.3178 2.21086 14.2843 3.74959Z" fill="#FC832C"/>
</svg>
