<!-- Generated by IcoMoon.io -->
<svg version="1.1" xmlns="http://www.w3.org/2000/svg" width="32" height="32" viewBox="0 0 32 32">
<path d="M24 0h-13.344c-2.706 0.010-5.031 1.633-6.063 3.958l-0.017 0.042h-1.92c-0.648 0.104-1.137 0.659-1.137 1.328s0.489 1.224 1.13 1.327l0.008 0.001h1.344v2.688h-1.344c-0.648 0.104-1.137 0.659-1.137 1.328s0.489 1.224 1.13 1.327l0.008 0.001h1.344v2.656h-1.344c-0.742 0-1.344 0.602-1.344 1.344s0.602 1.344 1.344 1.344v0h1.344v2.656h-1.344c-0.648 0.104-1.137 0.659-1.137 1.328s0.489 1.224 1.13 1.327l0.008 0.001h1.344v2.688h-1.344c-0.648 0.104-1.137 0.659-1.137 1.328s0.489 1.224 1.13 1.327l0.008 0.001h1.92c1.049 2.367 3.374 3.99 6.079 4h13.345c3.669-0.018 6.638-2.987 6.656-6.654v-18.69c-0.018-3.669-2.987-6.638-6.654-6.656h-0.002zM28 25.344c0 2.209-1.791 4-4 4v0h-13.344c-2.209 0-4-1.791-4-4v0-18.688c0-2.209 1.791-4 4-4v0h13.344c2.209 0 4 1.791 4 4v0zM17.344 16c2.209 0 4-1.791 4-4s-1.791-4-4-4v0c-2.209 0-4 1.791-4 4s1.791 4 4 4v0zM24 24c-0.104 0.648-0.659 1.137-1.328 1.137s-1.224-0.489-1.327-1.13l-0.001-0.008c0-2.209-1.791-4-4-4s-4 1.791-4 4v0c0 0.742-0.602 1.344-1.344 1.344s-1.344-0.602-1.344-1.344v0c0.288-8.8 13.056-8.8 13.344 0z"></path>
</svg>
