<!-- Generated by IcoMoon.io -->
<svg version="1.1" xmlns="http://www.w3.org/2000/svg" width="32" height="32" viewBox="0 0 32 32">
<path d="M17.472 25.344c-0.737-0.007-1.331-0.606-1.331-1.344 0-0.376 0.154-0.716 0.403-0.96l0-0 6.112-6.080c0.249-0.244 0.403-0.584 0.403-0.96s-0.154-0.716-0.403-0.96l-0-0-6.112-6.080c-0.249-0.244-0.403-0.584-0.403-0.96s0.154-0.716 0.403-0.96l0-0c0.241-0.23 0.568-0.372 0.928-0.372s0.687 0.142 0.928 0.372l-0-0 6.144 6.144c0.716 0.723 1.159 1.718 1.159 2.816s-0.443 2.093-1.159 2.816l-6.144 6.144c-0.239 0.235-0.566 0.38-0.927 0.384h-0.001zM8.128 25.344c-0.737-0.007-1.331-0.606-1.331-1.344 0-0.376 0.154-0.716 0.403-0.96l7.040-7.040-7.040-7.040c-0.249-0.244-0.403-0.584-0.403-0.96s0.154-0.716 0.403-0.96l0-0c0.243-0.239 0.576-0.387 0.944-0.387s0.701 0.148 0.944 0.387l8 8c0.249 0.244 0.403 0.584 0.403 0.96s-0.154 0.716-0.403 0.96l-8 8c-0.242 0.238-0.574 0.384-0.941 0.384-0.007 0-0.014-0-0.020-0h0.001z"></path>
</svg>
