<!-- Generated by IcoMoon.io -->
<svg version="1.1" xmlns="http://www.w3.org/2000/svg" width="32" height="32" viewBox="0 0 32 32">
<path d="M16 22.88c-0.864 0-1.728-0.16-2.56-0.48-0.8-0.352-1.536-0.832-2.144-1.44l-10.912-10.912c-0.256-0.256-0.384-0.576-0.384-0.928 0-0.384 0.128-0.704 0.384-0.96s0.608-0.384 0.96-0.384c0.352 0 0.672 0.128 0.928 0.384l10.912 10.88c0.736 0.768 1.76 1.184 2.816 1.184s2.080-0.416 2.816-1.184l10.912-10.88c0.256-0.256 0.576-0.384 0.928-0.384s0.704 0.128 0.96 0.384c0.256 0.256 0.384 0.576 0.384 0.96 0 0.352-0.128 0.672-0.384 0.928l-10.88 10.912c-0.64 0.608-1.376 1.088-2.176 1.44-0.8 0.32-1.696 0.48-2.56 0.48z"></path>
</svg>
