<!-- Generated by IcoMoon.io -->
<svg version="1.1" xmlns="http://www.w3.org/2000/svg" width="32" height="32" viewBox="0 0 32 32">
<path d="M24.96 10.944c-0.128-0.128-0.288-0.224-0.448-0.288s-0.32-0.096-0.512-0.096c-0.16 0-0.352 0.032-0.512 0.096s-0.32 0.16-0.448 0.288l-6.080 6.112c-0.128 0.128-0.288 0.224-0.448 0.288s-0.32 0.096-0.512 0.096c-0.16 0-0.352-0.032-0.512-0.096s-0.32-0.16-0.448-0.288l-6.080-6.112c-0.128-0.128-0.288-0.224-0.448-0.288s-0.32-0.096-0.512-0.096c-0.16 0-0.352 0.032-0.512 0.096s-0.32 0.16-0.448 0.288c-0.224 0.256-0.384 0.576-0.384 0.928s0.16 0.704 0.384 0.96l6.144 6.112c0.736 0.736 1.76 1.184 2.816 1.184s2.080-0.448 2.816-1.184l6.144-6.112c0.224-0.256 0.384-0.608 0.384-0.96s-0.16-0.672-0.384-0.928z"></path>
</svg>
