<!-- Generated by IcoMoon.io -->
<svg version="1.1" xmlns="http://www.w3.org/2000/svg" width="32" height="32" viewBox="0 0 32 32">
<path d="M31.616 21.728l-10.88-10.912c-0.64-0.608-1.376-1.12-2.176-1.44-0.8-0.352-1.696-0.512-2.56-0.512s-1.728 0.16-2.56 0.512c-0.8 0.32-1.536 0.832-2.144 1.44l-10.912 10.912c-0.256 0.256-0.384 0.576-0.384 0.928s0.128 0.704 0.384 0.96c0.256 0.256 0.608 0.384 0.96 0.384s0.672-0.128 0.928-0.384l10.912-10.912c0.736-0.736 1.76-1.152 2.816-1.152s2.080 0.416 2.816 1.152l10.912 10.912c0.128 0.128 0.256 0.224 0.416 0.288s0.352 0.096 0.512 0.096c0.192 0 0.352-0.032 0.512-0.096s0.32-0.16 0.448-0.288c0.128-0.128 0.224-0.288 0.288-0.448s0.096-0.32 0.096-0.512c0-0.16-0.032-0.352-0.096-0.512s-0.16-0.288-0.288-0.416z"></path>
</svg>
