<!-- Generated by IcoMoon.io -->
<svg version="1.1" xmlns="http://www.w3.org/2000/svg" width="32" height="32" viewBox="0 0 32 32">
<path d="M1.184 18.784l5.152 5.216c0.128 0.128 0.256 0.224 0.448 0.288 0.16 0.064 0.32 0.096 0.512 0.096 0.16 0 0.32-0.032 0.512-0.096 0.16-0.064 0.288-0.16 0.416-0.288s0.224-0.288 0.288-0.448c0.064-0.16 0.096-0.32 0.096-0.512 0-0.16-0.032-0.352-0.096-0.512s-0.16-0.288-0.288-0.416l-4.736-4.768h27.168c0.352 0 0.704-0.16 0.96-0.416 0.256-0.224 0.384-0.576 0.384-0.928s-0.128-0.704-0.384-0.96c-0.256-0.224-0.608-0.384-0.96-0.384h-27.264l4.832-4.832c0.256-0.224 0.384-0.576 0.384-0.896 0-0.352-0.128-0.672-0.384-0.928-0.128-0.128-0.256-0.224-0.416-0.288-0.192-0.064-0.352-0.096-0.512-0.096-0.192 0-0.352 0.032-0.512 0.096-0.192 0.064-0.32 0.16-0.448 0.288l-5.152 5.12c-0.768 0.768-1.184 1.792-1.184 2.848s0.416 2.080 1.184 2.816z"></path>
</svg>
