<!-- Generated by IcoMoon.io -->
<svg version="1.1" xmlns="http://www.w3.org/2000/svg" width="32" height="32" viewBox="0 0 32 32">
<path d="M30.816 13.216l-5.152-5.216c-0.128-0.128-0.256-0.224-0.416-0.288-0.192-0.064-0.352-0.096-0.512-0.096-0.192 0-0.352 0.032-0.512 0.096-0.192 0.064-0.32 0.16-0.448 0.288-0.256 0.256-0.384 0.576-0.384 0.928s0.128 0.704 0.384 0.96l4.736 4.768h-27.168c-0.352 0-0.704 0.16-0.96 0.384-0.256 0.256-0.384 0.608-0.384 0.96s0.128 0.704 0.384 0.928c0.256 0.256 0.608 0.416 0.96 0.416h27.264l-4.832 4.8c-0.128 0.128-0.224 0.288-0.288 0.448s-0.096 0.32-0.096 0.512c0 0.16 0.032 0.352 0.096 0.512s0.16 0.288 0.288 0.416c0.128 0.128 0.256 0.224 0.448 0.288 0.16 0.064 0.32 0.128 0.512 0.128 0.16 0 0.32-0.064 0.512-0.128 0.16-0.064 0.288-0.16 0.416-0.288l5.152-5.152c0.768-0.768 1.184-1.792 1.184-2.848s-0.416-2.080-1.184-2.816z"></path>
</svg>
