<!-- Generated by IcoMoon.io -->
<svg version="1.1" xmlns="http://www.w3.org/2000/svg" width="32" height="32" viewBox="0 0 32 32">
<path d="M12.96 19.040c0.512 0.544 0.512 1.376 0 1.888l-8.416 8.416h6.112c0.736 0 1.344 0.576 1.344 1.312s-0.608 1.344-1.344 1.344h-6.656c-2.208 0-4-1.792-4-4v-6.656c0-0.736 0.608-1.344 1.344-1.344s1.312 0.608 1.312 1.344v6.112l8.416-8.416c0.512-0.512 1.344-0.512 1.888 0zM28 0h-6.656c-0.736 0-1.344 0.608-1.344 1.344s0.608 1.312 1.344 1.312h6.112l-8.384 8.384c-0.544 0.544-0.544 1.376 0 1.888 0.256 0.288 0.576 0.416 0.928 0.416s0.672-0.128 0.96-0.416l8.384-8.384v6.112c0 0.736 0.576 1.344 1.312 1.344s1.344-0.608 1.344-1.344v-6.656c0-2.208-1.792-4-4-4z"></path>
</svg>
