<!-- Generated by IcoMoon.io -->
<svg version="1.1" xmlns="http://www.w3.org/2000/svg" width="32" height="32" viewBox="0 0 32 32">
<path d="M25.344 14.656h-13.344l4.384-4.384c0.128-0.128 0.224-0.256 0.288-0.416s0.096-0.352 0.096-0.512c0-0.192-0.032-0.352-0.096-0.512s-0.16-0.32-0.288-0.448c-0.256-0.256-0.576-0.384-0.928-0.384s-0.704 0.128-0.96 0.384l-5.696 5.728c-0.512 0.512-0.8 1.184-0.8 1.888s0.288 1.376 0.8 1.856l5.696 5.728c0.128 0.128 0.288 0.224 0.448 0.288 0.16 0.096 0.32 0.128 0.512 0.128 0.16 0 0.352-0.064 0.512-0.128s0.288-0.16 0.416-0.288c0.128-0.128 0.224-0.256 0.288-0.416s0.096-0.352 0.096-0.512c0-0.192-0.032-0.352-0.096-0.512s-0.16-0.32-0.288-0.448l-4.384-4.352h13.344c0.352 0 0.672-0.16 0.928-0.416 0.256-0.224 0.384-0.576 0.384-0.928s-0.128-0.704-0.384-0.96c-0.256-0.224-0.576-0.384-0.928-0.384z"></path>
</svg>
