<!-- Generated by IcoMoon.io -->
<svg version="1.1" xmlns="http://www.w3.org/2000/svg" width="32" height="32" viewBox="0 0 32 32">
<path d="M24 16c0-0.704-0.288-1.376-0.8-1.856l-5.696-5.76c-0.256-0.224-0.608-0.384-0.96-0.384s-0.672 0.16-0.928 0.384c-0.128 0.128-0.224 0.288-0.288 0.448s-0.096 0.352-0.096 0.512c0 0.192 0.032 0.352 0.096 0.512s0.16 0.32 0.288 0.448l4.384 4.352h-13.344c-0.352 0-0.672 0.16-0.928 0.384-0.256 0.256-0.384 0.608-0.384 0.96s0.128 0.704 0.384 0.928c0.256 0.256 0.576 0.416 0.928 0.416h13.344l-4.384 4.384c-0.256 0.224-0.384 0.576-0.384 0.928s0.128 0.704 0.384 0.96c0.256 0.256 0.576 0.384 0.928 0.384s0.704-0.128 0.96-0.384l5.696-5.728c0.512-0.512 0.8-1.184 0.8-1.888z"></path>
</svg>
