<!-- Generated by IcoMoon.io -->
<svg version="1.1" xmlns="http://www.w3.org/2000/svg" width="32" height="32" viewBox="0 0 32 32">
<path d="M31.616 2.272l-7.2 7.2 3.264 3.296c0.672 0.672 0.192 1.824-0.768 1.856l-8.512 0.032c-0.576 0-1.056-0.48-1.056-1.056l0.032-8.512c0.032-0.96 1.184-1.44 1.856-0.768l3.296 3.264 7.2-7.2c0.512-0.512 1.376-0.512 1.888 0s0.512 1.376 0 1.888zM13.6 17.344l-8.512 0.032c-0.96 0.032-1.44 1.184-0.768 1.856l3.264 3.296-7.2 7.2c-0.512 0.512-0.512 1.376 0 1.888 0.256 0.256 0.608 0.384 0.96 0.384s0.672-0.128 0.928-0.384l7.2-7.2 3.296 3.264c0.672 0.672 1.824 0.192 1.856-0.768l0.032-8.512c0.032-0.608-0.448-1.088-1.056-1.056z"></path>
</svg>
