<!-- Generated by IcoMoon.io -->
<svg version="1.1" xmlns="http://www.w3.org/2000/svg" width="32" height="32" viewBox="0 0 32 32">
<path d="M25.344 0h-18.688c-3.68 0-6.656 2.976-6.656 6.656v18.688c0 3.68 2.976 6.656 6.656 6.656h18.688c3.68 0 6.656-2.976 6.656-6.656v-18.688c0-3.68-2.976-6.656-6.656-6.656zM29.344 19.456l-9.888 9.888h-5.568l15.456-15.456v5.568zM27.040 3.072l-24 23.968c-0.224-0.512-0.384-1.088-0.384-1.696v-3.456l19.232-19.232h3.456c0.608 0 1.184 0.16 1.696 0.384v0.032zM2.656 12.544l9.888-9.888h5.568l-15.456 15.456v-5.568zM6.656 2.656h2.144l-6.144 6.144v-2.144c0-2.176 1.824-4 4-4zM4.96 28.96l24-24c0.256 0.512 0.384 1.088 0.384 1.696v3.456l-19.232 19.232h-3.456c-0.608 0-1.184-0.16-1.696-0.384zM25.344 29.344h-2.144l6.144-6.144v2.144c0 2.176-1.824 4-4 4z"></path>
</svg>
