<!-- Generated by IcoMoon.io -->
<svg version="1.1" xmlns="http://www.w3.org/2000/svg" width="32" height="32" viewBox="0 0 32 32">
<path d="M0 5.344c0-0.736 0.608-1.344 1.344-1.344h22.656c0.736 0 1.344 0.608 1.344 1.344s-0.608 1.312-1.344 1.312h-22.656c-0.736 0-1.344-0.576-1.344-1.312zM24 25.344h-22.656c-0.736 0-1.344 0.576-1.344 1.312s0.608 1.344 1.344 1.344h22.656c0.736 0 1.344-0.608 1.344-1.344s-0.608-1.312-1.344-1.312zM30.656 14.656h-22.656c-0.736 0-1.344 0.608-1.344 1.344s0.608 1.344 1.344 1.344h22.656c0.736 0 1.344-0.608 1.344-1.344s-0.608-1.344-1.344-1.344z"></path>
</svg>
