<!-- Generated by IcoMoon.io -->
<svg version="1.1" xmlns="http://www.w3.org/2000/svg" width="32" height="32" viewBox="0 0 32 32">
<path d="M30.080 18.208l-2.528-9.12c-0.768-2.656-2.368-4.992-4.608-6.656-2.208-1.632-4.928-2.496-7.712-2.432-2.752 0.064-5.44 1.088-7.552 2.848-2.144 1.76-3.648 4.192-4.256 6.88l-1.952 8.832c-0.224 0.96-0.224 1.984 0.032 2.944 0.224 0.992 0.64 1.888 1.28 2.656 0.608 0.8 1.408 1.408 2.304 1.856 0.896 0.416 1.888 0.64 2.88 0.64h1.504c0.288 1.504 1.12 2.88 2.304 3.84 1.184 0.992 2.688 1.504 4.224 1.504s3.040-0.512 4.224-1.504c1.184-0.96 2.016-2.336 2.304-3.84h1.12c1.024 0 2.048-0.224 2.976-0.672 0.896-0.48 1.728-1.12 2.336-1.952s1.056-1.76 1.248-2.784c0.192-0.992 0.128-2.048-0.128-3.040zM16 29.344c-0.832 0-1.632-0.256-2.304-0.736s-1.184-1.152-1.44-1.952h7.488c-0.256 0.8-0.768 1.472-1.44 1.952s-1.472 0.736-2.304 0.736zM26.848 22.432c-0.384 0.48-0.864 0.864-1.408 1.152-0.576 0.288-1.184 0.416-1.792 0.416h-15.68c-0.576 0-1.184-0.128-1.728-0.384-0.512-0.256-0.992-0.64-1.376-1.12-0.384-0.448-0.64-0.992-0.768-1.6-0.16-0.576-0.16-1.184-0.032-1.76l1.984-8.832c0.448-2.112 1.632-4.032 3.328-5.408 1.664-1.376 3.744-2.176 5.92-2.24 2.208-0.032 4.32 0.64 6.080 1.92 1.76 1.312 3.008 3.136 3.584 5.248l2.56 9.088c0.16 0.608 0.192 1.248 0.064 1.856-0.128 0.576-0.384 1.152-0.736 1.664z"></path>
</svg>
