<!-- Generated by IcoMoon.io -->
<svg version="1.1" xmlns="http://www.w3.org/2000/svg" width="32" height="32" viewBox="0 0 32 32">
<path d="M3.808 31.392c0.455 0.199 0.985 0.315 1.543 0.315 1.1 0 2.094-0.451 2.809-1.178l0.001-0.001 7.84-7.808 7.84 7.808c0.715 0.731 1.712 1.184 2.814 1.184 0.001 0 0.001 0 0.002 0h-0c0.567-0.002 1.105-0.119 1.594-0.33l-0.026 0.010c1.44-0.607 2.432-2.006 2.432-3.637 0-0.015-0-0.030-0-0.045l0 0.002v-21.056c-0.018-3.669-2.987-6.638-6.654-6.656h-16.002c-3.669 0.018-6.638 2.987-6.656 6.654v21.058c-0 0.009-0 0.019-0 0.030 0 1.643 1.007 3.052 2.438 3.641l0.026 0.010z"></path>
</svg>
