<!-- Generated by IcoMoon.io -->
<svg version="1.1" xmlns="http://www.w3.org/2000/svg" width="32" height="32" viewBox="0 0 32 32">
<path d="M26.848 32c-0.48 0-0.992-0.096-1.44-0.288s-0.864-0.48-1.216-0.832l-8.192-8.16-8.192 8.16c-0.544 0.544-1.216 0.896-1.952 1.056s-1.504 0.064-2.176-0.224c-0.704-0.288-1.312-0.768-1.728-1.408-0.416-0.608-0.64-1.344-0.608-2.112v-21.536c0-1.76 0.704-3.456 1.952-4.704s2.944-1.952 4.704-1.952h16c0.864 0 1.728 0.16 2.56 0.512 0.8 0.32 1.536 0.832 2.144 1.44 0.64 0.608 1.12 1.344 1.472 2.176 0.32 0.8 0.48 1.664 0.48 2.528v21.536c0.032 0.768-0.192 1.504-0.608 2.112-0.416 0.64-1.024 1.12-1.728 1.408-0.448 0.192-0.96 0.288-1.472 0.288zM8 2.656c-1.056 0-2.080 0.416-2.816 1.184-0.768 0.736-1.184 1.76-1.184 2.816v21.536c0 0.224 0.064 0.448 0.192 0.64s0.288 0.32 0.512 0.416c0.192 0.096 0.416 0.096 0.64 0.064s0.416-0.16 0.576-0.32l9.152-9.088c0.256-0.256 0.576-0.384 0.928-0.384s0.704 0.128 0.96 0.384l9.12 9.088c0.16 0.16 0.352 0.288 0.576 0.32s0.448 0.032 0.672-0.064c0.192-0.096 0.352-0.224 0.48-0.416s0.192-0.416 0.192-0.64v-21.536c0-1.056-0.416-2.080-1.152-2.816-0.768-0.768-1.792-1.184-2.848-1.184h-16z"></path>
</svg>
