<!-- Generated by IcoMoon.io -->
<svg version="1.1" xmlns="http://www.w3.org/2000/svg" width="32" height="32" viewBox="0 0 32 32">
<path d="M21.248 2.208c-0.448-1.28-2.4-1.024-2.56 0.32-0.256 2.144-1.152 4.128-6.016 4.128h-7.328c-2.944 0-5.344 2.4-5.344 5.344v2.656c0 2.048 1.152 3.808 2.848 4.704l3.936 8.832c0.64 1.504 2.144 2.464 3.776 2.464 1.408 0 2.72-0.704 3.488-1.856s0.896-2.656 0.352-3.968l-2.112-4.832h0.384c4.864 0 5.76 1.984 6.016 4.128 0.192 1.632 2.592 1.504 2.656-0.128v-21.344c-0.032-0.128-0.064-0.288-0.096-0.448zM11.936 25.92c0.224 0.448 0.16 0.96-0.128 1.408-0.576 0.928-2.144 0.8-2.592-0.224l-3.168-7.104h3.328l2.56 5.92zM12.672 17.344h-7.328c-1.472 0-2.688-1.216-2.688-2.688v-2.656c0-1.472 1.216-2.656 2.688-2.656h7.328c2.56 0 4.544-0.544 5.984-1.568v11.104c-1.44-1.024-3.424-1.536-5.984-1.536zM28.864 20.864c-0.256 0.256-0.576 0.384-0.928 0.384s-0.672-0.128-0.928-0.384c-0.544-0.512-0.544-1.344 0-1.888 3.104-3.104 3.104-8.192 0-11.296-0.544-0.512-0.544-1.376 0-1.888s1.344-0.512 1.856 0c4.16 4.16 4.16 10.912 0 15.072zM24.96 17.504c-0.256 0.256-0.608 0.384-0.96 0.384s-0.672-0.128-0.928-0.384c-0.512-0.544-0.512-1.376 0-1.888 1.248-1.28 1.248-3.296 0-4.576-0.512-0.512-0.512-1.344 0-1.856s1.376-0.544 1.888 0c2.304 2.272 2.304 6.016 0 8.32z"></path>
</svg>
