<!-- Generated by IcoMoon.io -->
<svg version="1.1" xmlns="http://www.w3.org/2000/svg" width="32" height="32" viewBox="0 0 32 32">
<path d="M30.112 13.536c-1.152-0.48-2.496-0.224-3.36 0.672l-0.576 0.576c-0.576-1.376-1.632-2.56-2.944-3.264 1.312-1.216 2.112-2.944 2.112-4.864 0-3.68-3.008-6.656-6.688-6.656-2.176 0-4.096 1.056-5.312 2.656-1.216-1.6-3.168-2.656-5.344-2.656-3.68 0-6.656 2.976-6.656 6.656 0 1.92 0.8 3.648 2.080 4.864-2.048 1.12-3.424 3.328-3.424 5.824v8c0 3.68 3.008 6.656 6.656 6.656h13.344c2.784 0 5.152-1.696 6.176-4.128l0.576 0.608c0.576 0.576 1.376 0.896 2.176 0.896 0.384 0 0.8-0.096 1.184-0.256 1.152-0.448 1.888-1.568 1.888-2.848v-9.888c0-1.248-0.736-2.368-1.888-2.848zM18.656 2.656c2.208 0 4 1.792 4 4s-1.792 4-4 4-4-1.792-4-4 1.792-4 4-4zM8 2.656c2.208 0 4 1.792 4 4s-1.792 4-4 4-4-1.792-4-4 1.792-4 4-4zM24 25.344c0 2.208-1.792 4-4 4h-13.344c-2.208 0-4-1.792-4-4v-8c0-2.208 1.792-4 4-4h13.344c2.208 0 4 1.792 4 4v8zM29.344 26.272c0 0.224-0.16 0.352-0.256 0.384-0.128 0.064-0.288 0.096-0.448-0.096l-1.984-1.952v-6.56l1.984-1.952c0.16-0.16 0.32-0.16 0.448-0.096 0.096 0.032 0.256 0.16 0.256 0.384v9.888z"></path>
</svg>
