<!-- Generated by IcoMoon.io -->
<svg version="1.1" xmlns="http://www.w3.org/2000/svg" width="32" height="32" viewBox="0 0 32 32">
<path d="M25.344 5.344h-0.672l-2.912-3.776c-0.74-0.952-1.882-1.56-3.167-1.568h-5.153c-1.286 0.008-2.428 0.616-3.161 1.559l-0.007 0.009-2.912 3.776h-0.704c-3.669 0.018-6.638 2.987-6.656 6.654v13.346c0.018 3.669 2.987 6.638 6.654 6.656h18.69c3.669-0.018 6.638-2.987 6.656-6.654v-13.346c-0.018-3.669-2.987-6.638-6.654-6.656h-0.002zM12.384 3.2c0.243-0.325 0.624-0.536 1.055-0.544l0.001-0h5.152c0.432 0.008 0.813 0.219 1.053 0.54l0.003 0.004 1.632 2.144h-10.56zM29.344 25.344c0 2.209-1.791 4-4 4v0h-18.688c-2.209 0-4-1.791-4-4v0-13.344c0-2.209 1.791-4 4-4v0h18.688c2.209 0 4 1.791 4 4v0zM16 10.656c-4.418 0-8 3.582-8 8s3.582 8 8 8c4.418 0 8-3.582 8-8v0c0-4.418-3.582-8-8-8v0zM16 24c-2.951 0-5.344-2.393-5.344-5.344s2.393-5.344 5.344-5.344c2.951 0 5.344 2.393 5.344 5.344v0c0 2.951-2.393 5.344-5.344 5.344v0z"></path>
</svg>
