<!-- Generated by IcoMoon.io -->
<svg version="1.1" xmlns="http://www.w3.org/2000/svg" width="32" height="32" viewBox="0 0 32 32">
<path d="M24.288 12.128c0.512 0.512 0.512 1.376-0.032 1.888l-5.888 5.792c-1.056 1.024-2.4 1.536-3.744 1.536-1.312 0-2.656-0.512-3.68-1.504l-2.528-2.496c-0.544-0.512-0.544-1.344-0.032-1.888 0.512-0.512 1.376-0.512 1.888 0l2.528 2.464c1.024 0.992 2.656 0.992 3.712-0.032l5.888-5.792c0.512-0.512 1.376-0.48 1.888 0.032zM32 16c0 8.832-7.168 16-16 16s-16-7.168-16-16c0-8.832 7.168-16 16-16s16 7.168 16 16zM29.344 16c0-7.36-5.984-13.344-13.344-13.344s-13.344 5.984-13.344 13.344c0 7.36 5.984 13.344 13.344 13.344s13.344-5.984 13.344-13.344z"></path>
</svg>
