<!-- Generated by IcoMoon.io -->
<svg version="1.1" xmlns="http://www.w3.org/2000/svg" width="32" height="32" viewBox="0 0 32 32">
<path d="M16 0c-8.832 0-16 7.168-16 16s7.168 16 16 16c8.832 0 16-7.168 16-16s-7.168-16-16-16zM24.256 14.016l-5.888 5.792c-1.056 1.024-2.4 1.536-3.744 1.536-1.312 0-2.656-0.512-3.68-1.504l-2.528-2.496c-0.544-0.512-0.544-1.344-0.032-1.888 0.512-0.512 1.376-0.512 1.888 0l2.528 2.464c1.024 0.992 2.656 0.992 3.712-0.032l5.888-5.792c0.512-0.512 1.376-0.48 1.888 0.032s0.512 1.376-0.032 1.888z"></path>
</svg>
