<!-- Generated by IcoMoon.io -->
<svg version="1.1" xmlns="http://www.w3.org/2000/svg" width="32" height="32" viewBox="0 0 32 32">
<path d="M25.344 0h-18.688c-3.669 0.018-6.638 2.987-6.656 6.654v18.69c0.018 3.669 2.987 6.638 6.654 6.656h18.69c3.669-0.018 6.638-2.987 6.656-6.654v-18.69c-0.018-3.669-2.987-6.638-6.654-6.656h-0.002zM29.344 25.344c0 2.209-1.791 4-4 4v0h-18.688c-2.209 0-4-1.791-4-4v0-18.688c0-2.209 1.791-4 4-4v0h18.688c2.209 0 4 1.791 4 4v0zM12.448 21.216l-5.216-5.216c-0.243-0.239-0.576-0.387-0.944-0.387s-0.701 0.148-0.944 0.387l0-0c-0.239 0.243-0.387 0.576-0.387 0.944s0.148 0.701 0.387 0.944l5.216 5.216c0.482 0.487 1.15 0.788 1.888 0.788s1.406-0.301 1.888-0.788l12.32-12.32c0.239-0.243 0.387-0.576 0.387-0.944s-0.148-0.701-0.387-0.944l0 0c-0.243-0.239-0.576-0.387-0.944-0.387s-0.701 0.148-0.944 0.387l0-0z"></path>
</svg>
