<!-- Generated by IcoMoon.io -->
<svg version="1.1" xmlns="http://www.w3.org/2000/svg" width="32" height="32" viewBox="0 0 32 32">
<path d="M16 1.344c-10.272 0-14.656 4.384-14.656 14.656s4.384 14.656 14.656 14.656 14.656-4.384 14.656-14.656-4.384-14.656-14.656-14.656zM23.072 12.704c-1.76 2.752-4.224 6.176-8 8.448-0.416 0.256-0.96 0.256-1.408-0.032-2.016-1.28-3.552-2.656-4.768-4.32-0.448-0.608-0.32-1.44 0.256-1.856 0.608-0.448 1.44-0.32 1.856 0.256 0.896 1.216 1.984 2.24 3.392 3.2 2.88-1.952 4.864-4.672 6.432-7.104 0.384-0.64 1.216-0.832 1.824-0.416 0.64 0.384 0.8 1.216 0.416 1.824z"></path>
</svg>
