<!-- Generated by IcoMoon.io -->
<svg version="1.1" xmlns="http://www.w3.org/2000/svg" width="32" height="32" viewBox="0 0 32 32">
<path d="M25.344 0h-18.688c-3.68 0-6.656 2.976-6.656 6.656v18.688c0 3.68 2.976 6.656 6.656 6.656h18.688c3.68 0 6.656-2.976 6.656-6.656v-18.688c0-3.68-2.976-6.656-6.656-6.656zM26.656 10.784l-12.32 12.32c-1.056 1.056-2.752 1.056-3.776 0 0 0 0 0 0 0l-5.216-5.216c-0.544-0.512-0.544-1.376 0-1.888s1.344-0.512 1.888 0l5.216 5.216 12.352-12.32c0.512-0.544 1.344-0.544 1.856 0 0.544 0.512 0.544 1.344 0 1.888z"></path>
</svg>
