<!-- Generated by IcoMoon.io -->
<svg version="1.1" xmlns="http://www.w3.org/2000/svg" width="32" height="32" viewBox="0 0 32 32">
<path d="M29.76 5.92l-18.432 18.4c-0.243 0.239-0.576 0.387-0.944 0.387s-0.701-0.148-0.944-0.387l0 0-7.104-7.136c-0.244-0.249-0.584-0.403-0.96-0.403s-0.716 0.154-0.96 0.403l-0 0c-0.239 0.243-0.387 0.576-0.387 0.944s0.148 0.701 0.387 0.944l7.136 7.136c0.724 0.726 1.726 1.175 2.832 1.175s2.108-0.449 2.832-1.175l0-0 18.432-18.4c0.239-0.243 0.387-0.576 0.387-0.944s-0.148-0.701-0.387-0.944l0 0c-0.243-0.239-0.576-0.387-0.944-0.387s-0.701 0.148-0.944 0.387l0-0z"></path>
</svg>
