<!-- Generated by IcoMoon.io -->
<svg version="1.1" xmlns="http://www.w3.org/2000/svg" width="32" height="32" viewBox="0 0 32 32">
<path d="M16 0c-8.832 0-16 7.168-16 16s7.168 16 16 16c8.832 0 16-7.168 16-16s-7.168-16-16-16zM10.656 28.224v-0.224c0-2.944 2.4-5.344 5.344-5.344s5.344 2.4 5.344 5.344v0.224c-1.632 0.704-3.456 1.12-5.344 1.12s-3.712-0.416-5.344-1.12zM23.904 26.72c-0.608-3.808-3.936-6.72-7.904-6.72s-7.296 2.912-7.904 6.72c-3.296-2.432-5.44-6.336-5.44-10.72 0-7.36 5.984-13.344 13.344-13.344s13.344 5.984 13.344 13.344c0 4.384-2.144 8.288-5.44 10.72zM16 6.656c-2.944 0-5.344 2.4-5.344 5.344s2.4 5.344 5.344 5.344c2.944 0 5.344-2.4 5.344-5.344s-2.4-5.344-5.344-5.344zM16 14.656c-1.472 0-2.656-1.184-2.656-2.656s1.184-2.656 2.656-2.656c1.472 0 2.656 1.184 2.656 2.656s-1.184 2.656-2.656 2.656z"></path>
</svg>
