<!-- Generated by IcoMoon.io -->
<svg version="1.1" xmlns="http://www.w3.org/2000/svg" width="32" height="32" viewBox="0 0 32 32">
<path d="M29.344 6.656v18.688c0 3.68-3.008 6.656-6.688 6.656h-13.312c-3.68 0-6.688-2.976-6.688-6.656v-18.688c0-3.68 3.008-6.656 6.688-6.656h1.312c0.736 0 1.344 0.608 1.344 1.344s-0.608 1.312-1.344 1.312h-1.312c-2.208 0-4 1.792-4 4v18.688c0 2.208 1.792 4 4 4h13.312c2.208 0 4-1.792 4-4v-18.688c0-0.896-0.288-1.76-0.864-2.496-0.448-0.576-0.384-1.408 0.192-1.856 0.576-0.48 1.44-0.384 1.888 0.192 0.96 1.184 1.472 2.656 1.472 4.16zM10.656 25.344h10.688c0.736 0 1.312-0.608 1.312-1.344s-0.576-1.344-1.312-1.344h-10.688c-0.736 0-1.312 0.608-1.312 1.344s0.576 1.344 1.312 1.344zM14.656 14.656c0.736 0 1.344-0.576 1.344-1.312v-8c0-1.472 1.184-2.688 2.656-2.688s2.688 1.216 2.688 2.688v9.984c0 0.384-0.32 0.672-0.672 0.672s-0.672-0.288-0.672-0.672v-8.672c0-0.736-0.608-1.312-1.344-1.312s-1.312 0.576-1.312 1.312v8.672c0 1.856 1.472 3.328 3.328 3.328s3.328-1.472 3.328-3.328v-9.984c0-2.944-2.4-5.344-5.344-5.344s-5.312 2.4-5.312 5.344v8c0 0.736 0.576 1.312 1.312 1.312zM10.656 20h3.36c0.736 0 1.312-0.608 1.312-1.344s-0.576-1.312-1.312-1.312h-3.36c-0.736 0-1.312 0.576-1.312 1.312s0.576 1.344 1.312 1.344z"></path>
</svg>
