<!-- Generated by IcoMoon.io -->
<svg version="1.1" xmlns="http://www.w3.org/2000/svg" width="32" height="32" viewBox="0 0 32 32">
<path d="M30.592 12.8c-0.256-0.256-0.576-0.384-0.928-0.384s-0.704 0.128-0.96 0.384l-14.496 14.592c-0.64 0.608-1.376 1.12-2.176 1.44s-1.664 0.512-2.56 0.512c-1.76 0-3.456-0.704-4.704-1.952s-1.952-2.944-1.952-4.736c0-1.76 0.704-3.456 1.952-4.704l14.048-14.112c0.768-0.736 1.792-1.152 2.848-1.152s2.048 0.416 2.784 1.152c0.768 0.768 1.184 1.76 1.184 2.816s-0.416 2.080-1.152 2.848l-14.048 14.112c-0.256 0.224-0.608 0.384-0.96 0.384s-0.672-0.16-0.928-0.384c-0.256-0.256-0.384-0.608-0.384-0.96s0.128-0.672 0.384-0.928l12.512-12.576c0.256-0.256 0.384-0.608 0.384-0.928 0-0.352-0.16-0.704-0.384-0.96-0.256-0.224-0.608-0.384-0.96-0.384-0.32 0-0.672 0.128-0.928 0.384l-12.512 12.576c-0.384 0.384-0.672 0.8-0.864 1.312-0.224 0.48-0.32 0.992-0.32 1.504 0 0.544 0.096 1.056 0.32 1.536 0.192 0.48 0.48 0.928 0.864 1.312 0.768 0.736 1.76 1.12 2.816 1.12s2.080-0.384 2.848-1.12l14.048-14.144c1.216-1.248 1.92-2.944 1.888-4.672 0-1.76-0.704-3.456-1.952-4.672-1.216-1.248-2.912-1.952-4.672-1.952-1.76-0.032-3.424 0.672-4.672 1.888l-14.080 14.112c-1.76 1.76-2.72 4.128-2.72 6.592 0 2.496 0.96 4.864 2.72 6.624 1.76 1.728 4.128 2.72 6.592 2.72 2.496 0 4.864-0.992 6.592-2.72l14.528-14.592c0.128-0.128 0.224-0.256 0.288-0.448 0.064-0.16 0.128-0.32 0.128-0.512 0-0.16-0.064-0.32-0.128-0.512-0.064-0.16-0.16-0.288-0.288-0.416z"></path>
</svg>
