<!-- Generated by IcoMoon.io -->
<svg version="1.1" xmlns="http://www.w3.org/2000/svg" width="32" height="32" viewBox="0 0 32 32">
<path d="M26.656 0h-21.312c-2.944 0-5.344 2.4-5.344 5.344v16c0 2.944 2.4 5.312 5.344 5.312h3.904l4.992 4.224c0.512 0.448 1.152 0.672 1.76 0.672 0.64 0 1.248-0.224 1.728-0.64l5.152-4.256h3.776c2.944 0 5.344-2.368 5.344-5.312v-16c0-2.944-2.4-5.344-5.344-5.344zM29.344 21.344c0 1.472-1.216 2.656-2.688 2.656h-4.256c-0.32 0-0.608 0.096-0.864 0.288l-5.568 4.576-5.376-4.544c-0.256-0.224-0.544-0.32-0.864-0.32h-4.384c-1.472 0-2.688-1.184-2.688-2.656v-16c0-1.472 1.216-2.688 2.688-2.688h21.312c1.472 0 2.688 1.216 2.688 2.688v16zM22.656 13.344c0 0.736-0.576 1.312-1.312 1.312h-4v4c0 0.736-0.608 1.344-1.344 1.344s-1.344-0.608-1.344-1.344v-4h-4c-0.736 0-1.312-0.576-1.312-1.312s0.576-1.344 1.312-1.344h4v-4c0-0.736 0.608-1.344 1.344-1.344s1.344 0.608 1.344 1.344v4h4c0.736 0 1.312 0.608 1.312 1.344z"></path>
</svg>
