<!-- Generated by IcoMoon.io -->
<svg version="1.1" xmlns="http://www.w3.org/2000/svg" width="32" height="32" viewBox="0 0 32 32">
<path d="M17.152 0.032c-4.64-0.32-9.184 1.376-12.448 4.64-3.296 3.296-4.992 7.84-4.672 12.48 0.608 8.448 8.096 14.848 17.44 14.848h7.872c3.904 0 6.656-3.2 6.656-7.808v-7.744c0-8.64-6.528-15.84-14.848-16.416zM29.344 24.192c0 3.072-1.6 5.152-4 5.152h-7.872c-8.064 0-14.272-5.216-14.784-12.384-0.256-3.872 1.152-7.648 3.872-10.4 2.528-2.496 5.92-3.904 9.472-3.904 0.288 0 0.608 0.032 0.928 0.032 6.944 0.48 12.384 6.528 12.384 13.76v7.744zM22.656 16c0 0.736-0.576 1.344-1.312 1.344h-4v4c0 0.736-0.608 1.312-1.344 1.312s-1.344-0.576-1.344-1.312v-4h-4c-0.736 0-1.312-0.608-1.312-1.344s0.576-1.344 1.312-1.344h4v-4c0-0.736 0.608-1.312 1.344-1.312s1.344 0.576 1.344 1.312v4h4c0.736 0 1.312 0.608 1.312 1.344z"></path>
</svg>
