<!-- Generated by IcoMoon.io -->
<svg version="1.1" xmlns="http://www.w3.org/2000/svg" width="32" height="32" viewBox="0 0 32 32">
<path d="M18.016 16c0 1.088-0.896 1.984-2.016 1.984-1.088 0-1.984-0.896-1.984-1.984 0-1.12 0.896-2.016 1.984-2.016 1.12 0 2.016 0.896 2.016 2.016zM22.656 13.984c-1.088 0-1.984 0.896-1.984 2.016 0 1.088 0.896 1.984 1.984 1.984 1.12 0 2.016-0.896 2.016-1.984 0-1.12-0.896-2.016-2.016-2.016zM9.344 13.984c-1.12 0-2.016 0.896-2.016 2.016 0 1.088 0.896 1.984 2.016 1.984 1.088 0 1.984-0.896 1.984-1.984 0-1.12-0.896-2.016-1.984-2.016zM32 16.448v8.896c0 3.68-2.976 6.656-6.656 6.656h-7.904c-9.344 0-16.8-6.4-17.408-14.848-0.32-4.64 1.376-9.184 4.64-12.448 3.264-3.296 7.808-4.992 12.448-4.672 8.352 0.576 14.88 7.776 14.88 16.416zM29.344 16.448c0-7.232-5.44-13.28-12.416-13.76-0.288 0-0.608-0.032-0.896-0.032-3.552 0-6.944 1.408-9.472 3.936-2.72 2.72-4.128 6.496-3.872 10.368 0.512 7.168 6.72 12.384 14.752 12.384h7.904c2.208 0 4-1.792 4-4v-8.896z"></path>
</svg>
