<!-- Generated by IcoMoon.io -->
<svg version="1.1" xmlns="http://www.w3.org/2000/svg" width="32" height="32" viewBox="0 0 32 32">
<path d="M9.344 20.672c0.010-0.076 0.016-0.164 0.016-0.253 0-1.113-0.903-2.016-2.016-2.016s-2.016 0.903-2.016 2.016c0 0.089 0.006 0.177 0.017 0.264l-0.001-0.010c-0.010 0.076-0.016 0.164-0.016 0.253 0 1.113 0.903 2.016 2.016 2.016s2.016-0.903 2.016-2.016c0-0.089-0.006-0.177-0.017-0.264l0.001 0.010M25.344 4h-18.688c-3.669 0.018-6.638 2.987-6.656 6.654v10.69c0.018 3.669 2.987 6.638 6.654 6.656h18.69c3.669-0.018 6.638-2.987 6.656-6.654v-10.69c-0.018-3.669-2.987-6.638-6.654-6.656h-0.002zM6.656 6.656h18.688c2.209 0 4 1.791 4 4v0h-26.688c0-2.209 1.791-4 4-4v0zM25.344 25.344h-18.688c-2.209 0-4-1.791-4-4v0-8h26.688v8c0 2.209-1.791 4-4 4v0z"></path>
</svg>
