<!-- Generated by IcoMoon.io -->
<svg version="1.1" xmlns="http://www.w3.org/2000/svg" width="32" height="32" viewBox="0 0 32 32">
<path d="M31.616 0.384c-0.256-0.256-0.608-0.384-0.96-0.384s-0.672 0.128-0.928 0.384l-13.728 13.728-13.728-13.728c-0.256-0.256-0.576-0.384-0.928-0.384s-0.704 0.128-0.96 0.384c-0.256 0.256-0.384 0.608-0.384 0.96s0.128 0.672 0.384 0.928l13.728 13.728-13.728 13.728c-0.256 0.256-0.384 0.576-0.384 0.928s0.128 0.704 0.384 0.96c0.256 0.256 0.608 0.384 0.96 0.384s0.672-0.128 0.928-0.384l13.728-13.728 13.728 13.728c0.256 0.256 0.576 0.384 0.928 0.384s0.704-0.128 0.96-0.384c0.256-0.256 0.384-0.608 0.384-0.96s-0.128-0.672-0.384-0.928l-13.728-13.728 13.728-13.728c0.256-0.256 0.384-0.576 0.384-0.928s-0.128-0.704-0.384-0.96z"></path>
</svg>
