<!-- Generated by IcoMoon.io -->
<svg version="1.1" xmlns="http://www.w3.org/2000/svg" width="32" height="32" viewBox="0 0 32 32">
<path d="M24 8c-0.256-0.256-0.576-0.384-0.928-0.384s-0.704 0.128-0.96 0.384l-6.112 6.112-6.112-6.112c-0.256-0.256-0.576-0.384-0.928-0.384-0.384 0-0.704 0.128-0.96 0.384s-0.384 0.576-0.384 0.928c0 0.352 0.128 0.704 0.384 0.96l6.112 6.112-6.112 6.112c-0.256 0.256-0.384 0.576-0.384 0.928 0 0.384 0.128 0.704 0.384 0.96s0.576 0.384 0.96 0.384c0.352 0 0.672-0.128 0.928-0.384l6.112-6.112 6.112 6.112c0.256 0.256 0.608 0.384 0.96 0.384s0.672-0.128 0.928-0.384c0.256-0.256 0.384-0.576 0.384-0.96 0-0.352-0.128-0.672-0.384-0.928l-6.112-6.112 6.112-6.112c0.256-0.256 0.384-0.608 0.384-0.96s-0.128-0.672-0.384-0.928z"></path>
</svg>
