<!-- Generated by IcoMoon.io -->
<svg version="1.1" xmlns="http://www.w3.org/2000/svg" width="32" height="32" viewBox="0 0 32 32">
<path d="M31.872 15.232c-1.036-7.926-7.747-13.982-15.872-13.982-8.837 0-16 7.163-16 16 0 0.033 0 0.066 0 0.099l-0-0.005c-0 0.013-0 0.028-0 0.044 0 4.562 1.929 8.674 5.015 11.564l0.009 0.008c1.146 1.052 2.68 1.697 4.365 1.697 0.029 0 0.058-0 0.087-0.001l-0.004 0h13.024c0.018 0 0.039 0 0.060 0 1.807 0 3.446-0.72 4.646-1.89l-0.001 0.001c2.971-2.898 4.814-6.94 4.814-11.413 0-0.749-0.052-1.485-0.151-2.206l0.009 0.083zM25.312 26.848c-0.722 0.712-1.714 1.152-2.809 1.152-0.003 0-0.005 0-0.008 0h-13.024c-0.018 0-0.039 0-0.060 0-0.989 0-1.89-0.377-2.567-0.995l0.003 0.003c-2.583-2.418-4.192-5.849-4.192-9.656 0-0.003 0-0.006 0-0.009v0c0-0.002 0-0.004 0-0.006 0-3.946 1.713-7.492 4.436-9.935l0.012-0.011c2.327-2.104 5.427-3.392 8.828-3.392 0.013 0 0.025 0 0.038 0h-0.002c0.556 0.003 1.1 0.038 1.636 0.103l-0.067-0.007c6.668 0.789 11.791 6.409 11.791 13.225 0 3.733-1.537 7.107-4.012 9.525l-0.003 0.003zM10.4 23.040c0.19 0.23 0.306 0.528 0.306 0.853 0 0.742-0.602 1.344-1.344 1.344-0.309 0-0.594-0.104-0.821-0.28l0.003 0.002c-1.997-1.939-3.236-4.649-3.236-7.648 0-5.885 4.771-10.656 10.656-10.656 0.013 0 0.025 0 0.038 0h-0.002c0.547 0.006 1.079 0.053 1.598 0.136l-0.062-0.008c0.645 0.106 1.132 0.66 1.132 1.327 0 0.062-0.004 0.124-0.012 0.184l0.001-0.007c-0.090 0.645-0.638 1.136-1.3 1.136-0.072 0-0.143-0.006-0.211-0.017l0.008 0.001c-0.347-0.053-0.747-0.084-1.155-0.084-4.418 0-8 3.582-8 8 0 2.239 0.919 4.262 2.401 5.714l0.001 0.001zM26.56 15.808c0.061 0.432 0.096 0.93 0.096 1.437 0 0.035-0 0.070-0 0.104l0-0.005c0 0.009 0 0.019 0 0.030 0 2.973-1.225 5.66-3.198 7.584l-0.002 0.002c-0.224 0.173-0.509 0.277-0.818 0.277-0.742 0-1.344-0.602-1.344-1.344 0-0.325 0.115-0.623 0.307-0.856l-0.002 0.002c1.475-1.447 2.389-3.461 2.389-5.689 0-0.409-0.031-0.811-0.090-1.203l0.006 0.044c-0.003-0.035-0.005-0.075-0.005-0.116 0-0.742 0.602-1.344 1.344-1.344 0.647 0 1.188 0.458 1.316 1.067l0.002 0.009zM18.56 16.64c0.064 0.219 0.1 0.471 0.1 0.732 0 1.502-1.218 2.72-2.72 2.72s-2.72-1.218-2.72-2.72c0-1.502 1.218-2.72 2.72-2.72 0.26 0 0.512 0.037 0.751 0.105l-0.019-0.005 5.056-5.024c0.248-0.312 0.628-0.51 1.054-0.51 0.742 0 1.344 0.602 1.344 1.344 0 0.426-0.198 0.805-0.507 1.052l-0.003 0.002z"></path>
</svg>
