<!-- Generated by IcoMoon.io -->
<svg version="1.1" xmlns="http://www.w3.org/2000/svg" width="32" height="32" viewBox="0 0 32 32">
<path d="M16 0c-8.832 0-16 7.168-16 16s7.168 16 16 16c8.832 0 16-7.168 16-16s-7.168-16-16-16zM16 29.344c-7.36 0-13.344-5.984-13.344-13.344 0-1.984 0.448-3.872 1.248-5.6l2.208 2.336c0.352 0.384 0.832 0.608 1.344 0.608h2.624c0.384 0 0.736 0.128 1.024 0.416l0.48 0.48c0.256 0.288 0.416 0.64 0.416 0.992v1.312c0 0.512 0.192 0.992 0.576 1.344l1.568 1.6c0.352 0.32 0.512 0.768 0.512 1.248v3.136c0 0.8 0.672 1.472 1.472 1.472h0.288c0.544 0 1.088-0.352 1.312-0.864l2.976-6.464c0.352-0.768 0.096-1.696-0.64-2.144l-3.392-2.144c-0.448-0.256-0.928-0.384-1.44-0.384h-1.92c-0.416 0-0.8-0.192-1.088-0.48l-0.8-0.768c-0.416-0.416-0.416-1.088 0-1.504l0.704-0.704c0.32-0.352 0.832-0.416 1.216-0.224l1.184 0.608c0.48 0.224 1.056 0.128 1.44-0.256v0c0.416-0.384 0.48-1.024 0.192-1.536l-1.12-1.856c-0.224-0.384-0.224-0.864 0.032-1.248 0.384-0.608 1.024-1.6 1.76-2.688 4.352 0.256 8.16 2.656 10.4 6.112l-2.112 1.216c-0.672 0.384-0.992 1.152-0.8 1.888l0.832 3.328c0.128 0.48 0.448 0.896 0.896 1.12l3.136 1.568c-0.928 6.432-6.464 11.424-13.184 11.424v0z"></path>
</svg>
