<!-- Generated by IcoMoon.io -->
<svg version="1.1" xmlns="http://www.w3.org/2000/svg" width="32" height="32" viewBox="0 0 32 32">
<path d="M32 13.344v12c0 3.68-2.976 6.656-6.656 6.656h-18.688c-3.68 0-6.656-2.976-6.656-6.656v-14.688c0-3.68 2.976-6.656 6.656-6.656h10.688c0.736 0 1.312 0.608 1.312 1.344s-0.576 1.312-1.312 1.312h-10.688c-1.536 0-2.848 0.864-3.52 2.144l10.048 10.016c1.536 1.568 4.096 1.568 5.632 0l5.12-5.088c0.512-0.512 1.344-0.512 1.856 0s0.544 1.376 0 1.888l-5.088 5.088c-1.28 1.28-3.008 1.952-4.704 1.952s-3.424-0.672-4.736-1.952l-8.608-8.608v13.248c0 2.176 1.824 4 4 4h18.688c2.176 0 4-1.824 4-4v-12c0-0.736 0.576-1.344 1.312-1.344s1.344 0.608 1.344 1.344zM21.344 5.344c0-2.944 2.368-5.344 5.312-5.344s5.344 2.4 5.344 5.344-2.4 5.312-5.344 5.312-5.312-2.368-5.312-5.312zM24 5.344c0 1.44 1.216 2.656 2.656 2.656s2.688-1.216 2.688-2.656-1.216-2.688-2.688-2.688-2.656 1.216-2.656 2.688z"></path>
</svg>
