<!-- Generated by IcoMoon.io -->
<svg version="1.1" xmlns="http://www.w3.org/2000/svg" width="32" height="32" viewBox="0 0 32 32">
<path d="M32 13.344v12c-0.018 3.669-2.987 6.638-6.654 6.656h-18.69c-3.669-0.018-6.638-2.987-6.656-6.654v-14.69c0.018-3.669 2.987-6.638 6.654-6.656h10.69c0.648 0.104 1.137 0.659 1.137 1.328s-0.489 1.224-1.13 1.327l-0.008 0.001h-10.688c-1.521 0.009-2.841 0.866-3.51 2.122l-0.010 0.022 10.048 10.016c0.723 0.716 1.718 1.159 2.816 1.159s2.093-0.443 2.816-1.159l-0 0 5.12-5.088c0.227-0.181 0.518-0.29 0.834-0.29 0.742 0 1.344 0.602 1.344 1.344 0 0.316-0.109 0.607-0.292 0.837l0.002-0.003-5.12 5.088c-1.208 1.195-2.87 1.934-4.704 1.934s-3.496-0.738-4.705-1.934l0.001 0.001-8.64-8.608v13.248c0 2.209 1.791 4 4 4v0h18.688c2.209 0 4-1.791 4-4v0-12c0.104-0.648 0.659-1.137 1.328-1.137s1.224 0.489 1.327 1.13l0.001 0.008zM22.656 6.656h2.688v2.688c0.104 0.648 0.659 1.137 1.328 1.137s1.224-0.489 1.327-1.13l0.001-0.008v-2.688h2.656c0.648-0.104 1.137-0.659 1.137-1.328s-0.489-1.224-1.13-1.327l-0.008-0.001h-2.656v-2.656c-0.104-0.648-0.659-1.137-1.328-1.137s-1.224 0.489-1.327 1.13l-0.001 0.008v2.656h-2.688c-0.648 0.104-1.137 0.659-1.137 1.328s0.489 1.224 1.13 1.327l0.008 0.001z"></path>
</svg>
