<!-- Generated by IcoMoon.io -->
<svg version="1.1" xmlns="http://www.w3.org/2000/svg" width="32" height="32" viewBox="0 0 32 32">
<path d="M25.344 1.344h-18.688c-1.76 0-3.456 0.704-4.704 1.952s-1.952 2.944-1.952 4.704v16c0 1.76 0.704 3.456 1.952 4.704s2.944 1.952 4.704 1.952h18.688c1.76 0 3.456-0.704 4.704-1.952s1.952-2.944 1.952-4.704v-16c0-1.76-0.704-3.456-1.952-4.704s-2.944-1.952-4.704-1.952zM6.656 4h18.688c0.8 0 1.568 0.256 2.24 0.704 0.64 0.448 1.152 1.056 1.472 1.824l-10.24 10.208c-0.736 0.736-1.76 1.152-2.816 1.152s-2.080-0.416-2.816-1.152l-10.208-10.208c0.288-0.768 0.8-1.376 1.44-1.824 0.672-0.448 1.44-0.704 2.24-0.704zM25.344 28h-18.688c-1.056 0-2.080-0.416-2.816-1.184-0.736-0.736-1.184-1.76-1.184-2.816v-14.016l8.64 8.64c1.248 1.248 2.944 1.952 4.704 1.952s3.456-0.704 4.704-1.952l8.64-8.64v14.016c0 1.056-0.416 2.080-1.184 2.816-0.736 0.768-1.76 1.184-2.816 1.184z"></path>
</svg>
