<!-- Generated by IcoMoon.io -->
<svg version="1.1" xmlns="http://www.w3.org/2000/svg" width="32" height="32" viewBox="0 0 32 32">
<path d="M31.040 12.544c-1.216-1.952-2.72-3.712-4.512-5.184l3.744-3.744c0.224-0.256 0.384-0.608 0.384-0.928-0.032-0.352-0.16-0.704-0.416-0.96-0.224-0.224-0.576-0.384-0.928-0.384s-0.672 0.128-0.928 0.384l-4.064 4.064c-2.528-1.504-5.376-2.272-8.32-2.24-8.256 0-12.96 5.632-15.040 8.992-0.64 1.056-0.96 2.24-0.96 3.456s0.32 2.4 0.96 3.424c1.216 1.984 2.72 3.744 4.512 5.216l-3.744 3.744c-0.128 0.128-0.224 0.288-0.288 0.448s-0.096 0.32-0.096 0.512c-0.032 0.16 0.032 0.352 0.096 0.512s0.16 0.32 0.288 0.448c0.128 0.096 0.256 0.224 0.416 0.288 0.192 0.064 0.352 0.096 0.544 0.096 0.16 0 0.352-0.032 0.512-0.128 0.16-0.064 0.288-0.16 0.416-0.288l4.064-4.064c2.528 1.504 5.408 2.272 8.32 2.24 8.256 0 12.96-5.632 15.040-9.024 0.64-1.024 0.96-2.208 0.96-3.424s-0.32-2.4-0.96-3.456zM3.232 18.048c-0.352-0.608-0.576-1.312-0.576-2.048s0.224-1.44 0.576-2.048c1.792-2.88 5.824-7.744 12.768-7.744 2.208 0 4.384 0.512 6.368 1.536l-2.688 2.688c-1.28-0.832-2.816-1.216-4.352-1.056-1.536 0.128-2.944 0.832-4.032 1.92-1.088 1.056-1.76 2.496-1.92 4.032s0.224 3.072 1.056 4.352l-3.072 3.072c-1.632-1.312-3.008-2.912-4.128-4.704zM20 16c0 1.056-0.416 2.080-1.184 2.816-0.736 0.768-1.76 1.184-2.816 1.184-0.608 0-1.184-0.128-1.696-0.416l5.312-5.312c0.256 0.544 0.384 1.12 0.384 1.728zM12 16c0-1.056 0.416-2.080 1.184-2.816 0.736-0.768 1.76-1.184 2.816-1.184 0.608 0 1.184 0.128 1.728 0.384l-5.312 5.312c-0.288-0.512-0.416-1.088-0.416-1.696zM28.768 18.048c-1.792 2.88-5.824 7.744-12.768 7.744-2.208 0-4.384-0.512-6.368-1.568l2.688-2.656c1.28 0.832 2.816 1.216 4.352 1.056s2.976-0.832 4.032-1.92c1.088-1.088 1.792-2.496 1.92-4.032 0.16-1.536-0.224-3.072-1.056-4.352l3.072-3.072c1.632 1.312 3.040 2.912 4.128 4.704 0.384 0.608 0.576 1.312 0.576 2.048s-0.192 1.44-0.576 2.048z"></path>
</svg>
