<!-- Generated by IcoMoon.io -->
<svg version="1.1" xmlns="http://www.w3.org/2000/svg" width="32" height="32" viewBox="0 0 32 32">
<path d="M31.040 12.544c-2.080-3.36-6.784-8.992-15.040-8.992s-12.96 5.632-15.040 8.992c-0.64 1.056-0.96 2.24-0.96 3.456s0.32 2.4 0.96 3.424c2.080 3.392 6.784 9.024 15.040 9.024s12.96-5.632 15.040-9.024c0.64-1.024 0.96-2.208 0.96-3.424s-0.32-2.4-0.96-3.456zM28.768 18.048c-1.792 2.88-5.792 7.744-12.768 7.744-6.944 0-10.976-4.864-12.768-7.744-0.352-0.608-0.576-1.312-0.576-2.048s0.224-1.44 0.576-2.048c1.792-2.88 5.824-7.744 12.768-7.744 6.976 0 10.976 4.864 12.768 7.744 0.384 0.608 0.576 1.312 0.576 2.048s-0.192 1.44-0.576 2.048zM16 9.344c-1.312 0-2.592 0.384-3.712 1.12-1.088 0.736-1.952 1.76-2.432 2.976-0.512 1.216-0.64 2.56-0.384 3.872 0.256 1.28 0.896 2.464 1.824 3.392s2.112 1.568 3.392 1.824c1.312 0.256 2.656 0.128 3.872-0.384 1.216-0.48 2.24-1.344 2.976-2.432 0.736-1.12 1.12-2.4 1.12-3.712 0-1.76-0.704-3.456-1.952-4.704s-2.944-1.952-4.704-1.952zM16 20c-0.8 0-1.568-0.224-2.208-0.672-0.672-0.448-1.184-1.056-1.472-1.792-0.32-0.736-0.384-1.536-0.256-2.304 0.16-0.8 0.544-1.504 1.12-2.048 0.544-0.576 1.248-0.96 2.048-1.12 0.768-0.128 1.568-0.064 2.304 0.224 0.736 0.32 1.344 0.832 1.792 1.504 0.448 0.64 0.672 1.408 0.672 2.208 0 1.056-0.416 2.080-1.184 2.816-0.736 0.768-1.76 1.184-2.816 1.184z"></path>
</svg>
