<!-- Generated by IcoMoon.io -->
<svg version="1.1" xmlns="http://www.w3.org/2000/svg" width="32" height="32" viewBox="0 0 32 32">
<path d="M26.592 7.392l-4.64-4.672c-1.68-1.681-4-2.72-6.564-2.72-0.010 0-0.020 0-0.030 0h-6.014c-0 0-0 0-0 0-3.682 0-6.67 2.976-6.688 6.654v18.69c0.018 3.68 3.006 6.656 6.688 6.656 0 0 0 0 0 0h13.312c0 0 0 0 0 0 3.682 0 6.67-2.976 6.688-6.654v-11.362c-0.001-2.578-1.053-4.91-2.751-6.591l-0.001-0.001zM24.704 9.28c0.401 0.401 0.751 0.853 1.039 1.345l0.017 0.031h-5.76c-0 0-0 0-0 0-0.731 0-1.326-0.584-1.344-1.31l-0-0.002v-5.76c0.536 0.295 0.998 0.635 1.411 1.027l-0.003-0.003zM26.656 25.344c0 2.209-1.791 4-4 4v0h-13.312c-2.209 0-4-1.791-4-4v0-18.688c0-2.209 1.791-4 4-4v0h6.016c0.224 0 0.416 0.064 0.64 0.064v6.624c0 2.209 1.791 4 4 4v0h6.592c0.032 0.192 0.064 0.416 0.064 0.64z"></path>
</svg>
