<!-- Generated by IcoMoon.io -->
<svg version="1.1" xmlns="http://www.w3.org/2000/svg" width="32" height="32" viewBox="0 0 32 32">
<path d="M25.088 13.344c0.416 0 0.8-0.192 1.056-0.544s0.32-0.736 0.224-1.12c-0.416-1.632-1.248-3.104-2.432-4.288l-4.64-4.672c-1.76-1.76-4.128-2.72-6.624-2.72h-6.016c-3.648 0-6.656 2.976-6.656 6.656v18.688c0 3.68 3.008 6.656 6.656 6.656h4c0.736 0 1.344-0.608 1.344-1.344s-0.608-1.312-1.344-1.312h-4c-2.208 0-4-1.792-4-4v-18.688c0-2.208 1.792-4 4-4h6.048c0.192 0 0.416 0.032 0.64 0.032v6.656c0 2.208 1.792 4 4 4h7.744zM16 9.344v-5.792c0.512 0.288 0.992 0.64 1.408 1.056l4.64 4.672c0.416 0.416 0.768 0.864 1.056 1.376h-5.76c-0.736 0-1.344-0.576-1.344-1.312zM30.816 15.84c-1.504-1.504-4.128-1.504-5.632 0l-8.96 8.928c-0.992 1.024-1.568 2.368-1.568 3.776v2.112c0 0.736 0.608 1.344 1.344 1.344h2.112c1.44 0 2.784-0.544 3.776-1.568l8.928-8.928c0.768-0.768 1.184-1.76 1.184-2.848s-0.416-2.080-1.184-2.816zM28.96 19.616l-8.96 8.928c-0.512 0.512-1.184 0.8-1.888 0.8h-0.768v-0.8c0-0.704 0.256-1.376 0.768-1.888l8.96-8.928c0.48-0.512 1.376-0.512 1.888 0 0.224 0.256 0.384 0.576 0.384 0.928s-0.16 0.704-0.384 0.96z"></path>
</svg>
