<!-- Generated by IcoMoon.io -->
<svg version="1.1" xmlns="http://www.w3.org/2000/svg" width="32" height="32" viewBox="0 0 32 32">
<path d="M25.344 2.656h-18.688c-3.648 0-6.656 3.008-6.656 6.688v13.312c0 3.68 3.008 6.688 6.656 6.688h18.688c3.68 0 6.656-3.008 6.656-6.688v-13.312c0-3.68-2.976-6.688-6.656-6.688zM29.344 22.656c0 2.208-1.792 4-4 4h-18.688c-2.208 0-4-1.792-4-4v-13.312c0-2.208 1.792-4 4-4h18.688c2.208 0 4 1.792 4 4v13.312zM17.344 10.656v10.688c0 0.736-0.608 1.312-1.344 1.312s-1.344-0.576-1.344-1.312v-10.688c0-0.736 0.608-1.312 1.344-1.312s1.344 0.576 1.344 1.312zM26.656 10.656c0 0.736-0.576 1.344-1.312 1.344h-2.688c-0.736 0-1.312 0.608-1.312 1.344v1.312h2.656c0.736 0 1.344 0.608 1.344 1.344s-0.608 1.344-1.344 1.344h-2.656v4c0 0.736-0.608 1.312-1.344 1.312s-1.344-0.576-1.344-1.312v-8c0-2.208 1.792-4 4-4h2.688c0.736 0 1.312 0.576 1.312 1.312zM8 13.344v5.312c0 0.736 0.608 1.344 1.344 1.344s1.312-0.608 1.312-1.344c-0.736 0-1.312-0.576-1.312-1.312s0.576-1.344 1.312-1.344c1.76 0 2.688 1.376 2.688 2.656 0 2.208-1.792 4-4 4s-4-1.792-4-4v-5.312c0-2.208 1.792-4 4-4s4 1.792 4 4c0 0.736-0.608 1.312-1.344 1.312s-1.344-0.576-1.344-1.312c0-0.736-0.576-1.344-1.312-1.344s-1.344 0.608-1.344 1.344z"></path>
</svg>
