<!-- Generated by IcoMoon.io -->
<svg version="1.1" xmlns="http://www.w3.org/2000/svg" width="32" height="32" viewBox="0 0 32 32">
<path d="M25.344 0h-18.688c-1.76 0-3.456 0.704-4.704 1.952s-1.952 2.944-1.952 4.704v18.688c0 1.76 0.704 3.456 1.952 4.704s2.944 1.952 4.704 1.952h15.136c0.864 0 1.728-0.16 2.56-0.512 0.8-0.32 1.536-0.832 2.144-1.44l3.552-3.552c0.608-0.608 1.12-1.344 1.44-2.144 0.352-0.832 0.512-1.696 0.512-2.56v-15.136c0-1.76-0.704-3.456-1.952-4.704s-2.944-1.952-4.704-1.952zM2.656 25.344v-18.688c0-1.056 0.448-2.080 1.184-2.816 0.736-0.768 1.76-1.184 2.816-1.184h18.688c1.056 0 2.080 0.416 2.816 1.184 0.768 0.736 1.184 1.76 1.184 2.816v13.344h-5.344c-1.056 0-2.080 0.416-2.816 1.184-0.768 0.736-1.184 1.76-1.184 2.816v5.344h-13.344c-1.056 0-2.080-0.416-2.816-1.184-0.736-0.736-1.184-1.76-1.184-2.816zM24.608 28.16c-0.512 0.544-1.216 0.896-1.952 1.056v-5.216c0-0.352 0.16-0.704 0.416-0.96 0.224-0.224 0.576-0.384 0.928-0.384h5.216c-0.16 0.736-0.512 1.44-1.056 1.952l-3.552 3.552zM10.656 11.68v0.416c0 0.704-0.288 1.376-0.768 1.888-0.512 0.48-1.184 0.768-1.888 0.768-0.352 0-0.704-0.064-1.024-0.192s-0.608-0.32-0.864-0.576c-0.224-0.256-0.448-0.544-0.576-0.864s-0.192-0.672-0.192-1.024v-2.784c0-0.352 0.064-0.704 0.192-1.024s0.352-0.608 0.576-0.864c0.256-0.224 0.544-0.416 0.864-0.576 0.32-0.128 0.672-0.192 1.024-0.192 0.48 0 0.96 0.16 1.376 0.416 0.416 0.224 0.768 0.608 0.992 1.024 0.032 0.096 0.064 0.224 0.096 0.32 0 0.096 0 0.224-0.032 0.32s-0.096 0.192-0.16 0.288c-0.064 0.096-0.16 0.16-0.256 0.192-0.096 0.064-0.224 0.096-0.32 0.096-0.096 0.032-0.224 0-0.32-0.032s-0.192-0.064-0.288-0.16c-0.096-0.064-0.16-0.16-0.192-0.256-0.096-0.16-0.224-0.288-0.384-0.384s-0.32-0.128-0.512-0.16c-0.128 0-0.256 0.032-0.384 0.096-0.128 0.032-0.224 0.128-0.32 0.192-0.096 0.096-0.16 0.224-0.224 0.352-0.032 0.096-0.064 0.256-0.064 0.384v2.752c0 0.128 0.032 0.256 0.064 0.384 0.064 0.128 0.128 0.224 0.224 0.32s0.192 0.16 0.32 0.224c0.128 0.032 0.256 0.064 0.384 0.064 0.256 0 0.512-0.096 0.704-0.288s0.288-0.416 0.288-0.704v-0.096h-0.32c-0.192 0-0.352-0.064-0.48-0.192s-0.192-0.288-0.192-0.48c0-0.16 0.064-0.352 0.192-0.48s0.288-0.192 0.48-0.192h0.992c0.256 0 0.512 0.128 0.704 0.288 0.192 0.192 0.288 0.448 0.288 0.736zM18.656 11.52v2.4c0 0.224-0.064 0.416-0.224 0.576s-0.384 0.256-0.608 0.256c-0.224 0-0.416-0.096-0.576-0.256s-0.256-0.352-0.256-0.576v-6.432c0-0.224 0.096-0.416 0.256-0.576s0.352-0.256 0.576-0.256h2.688c0.224 0 0.448 0.096 0.608 0.256s0.224 0.352 0.224 0.576c0 0.224-0.064 0.448-0.224 0.608s-0.384 0.224-0.608 0.224h-1.856v1.536h1.664c0.224 0 0.448 0.096 0.576 0.224 0.16 0.16 0.256 0.384 0.256 0.608s-0.096 0.416-0.256 0.576c-0.128 0.16-0.352 0.256-0.576 0.256h-1.664zM14.656 7.488v6.432c0 0.224-0.064 0.448-0.224 0.608-0.16 0.128-0.384 0.224-0.608 0.224s-0.416-0.096-0.576-0.224c-0.16-0.16-0.256-0.384-0.256-0.608v-6.432c0-0.224 0.096-0.416 0.256-0.576s0.352-0.256 0.576-0.256c0.224 0 0.448 0.096 0.608 0.256s0.224 0.352 0.224 0.576z"></path>
</svg>
