<!-- Generated by IcoMoon.io -->
<svg version="1.1" xmlns="http://www.w3.org/2000/svg" width="32" height="32" viewBox="0 0 32 32">
<path d="M9.344 12.672c0.032-4.384 3.936-4.384 4 0-0.064 4.384-3.968 4.384-4 0zM20.672 16c2.624-0.032 2.624-6.624 0-6.656-2.624 0.032-2.624 6.624 0 6.656zM32 16c0 4.256-1.696 8.32-4.704 11.296-2.976 3.008-7.040 4.704-11.296 4.704-21.216-0.8-21.184-31.2 0-32 4.256 0 8.32 1.696 11.296 4.704 3.008 2.976 4.704 7.040 4.704 11.296zM29.344 16c0-3.552-1.408-6.912-3.904-9.44-2.528-2.496-5.888-3.904-9.44-3.904-17.664 0.672-17.664 26.016 0 26.688 3.552 0 6.912-1.408 9.44-3.936 2.496-2.496 3.904-5.888 3.904-9.408zM22.4 18.688c-2.048 0.768-4.224 1.216-6.4 1.312-2.176-0.096-4.352-0.544-6.4-1.312-0.256-0.032-0.512-0.032-0.768 0.064s-0.448 0.288-0.608 0.48c-0.16 0.224-0.224 0.48-0.224 0.736-0.032 0.288 0.064 0.544 0.192 0.768 0.8 1.376 1.92 2.528 3.296 3.328s2.912 1.248 4.512 1.28c1.6-0.032 3.136-0.48 4.512-1.28s2.496-1.952 3.264-3.328c0.16-0.224 0.224-0.48 0.224-0.768 0-0.256-0.096-0.512-0.224-0.736-0.16-0.224-0.384-0.384-0.608-0.48-0.256-0.096-0.512-0.096-0.768-0.064z"></path>
</svg>
