<!-- Generated by IcoMoon.io -->
<svg version="1.1" xmlns="http://www.w3.org/2000/svg" width="32" height="32" viewBox="0 0 32 32">
<path d="M30.816 12.096l-10.112-10.112c-1.208-1.195-2.87-1.934-4.704-1.934s-3.496 0.739-4.705 1.934l-10.111 10.111c-0.728 0.718-1.181 1.714-1.184 2.815v13.089c0 2.209 1.791 4 4 4v0h24c2.209 0 4-1.791 4-4v0-13.088c-0.003-1.102-0.456-2.098-1.183-2.816l-0-0zM20 29.344h-8v-5.248c0-2.209 1.791-4 4-4s4 1.791 4 4v0zM29.344 28c0 0.742-0.602 1.344-1.344 1.344v0h-5.344v-5.248c0-3.676-2.98-6.656-6.656-6.656s-6.656 2.98-6.656 6.656v0 5.248h-5.344c-0.742 0-1.344-0.602-1.344-1.344v0-13.088c0.013-0.366 0.17-0.693 0.415-0.928l0.001-0.001 10.112-10.112c0.723-0.716 1.718-1.159 2.816-1.159s2.093 0.443 2.816 1.159l-0-0 10.144 10.112c0.235 0.239 0.38 0.566 0.384 0.927v0.001z"></path>
</svg>
