<!-- Generated by IcoMoon.io -->
<svg version="1.1" xmlns="http://www.w3.org/2000/svg" width="32" height="32" viewBox="0 0 32 32">
<path d="M16 0c-8.837 0-16 7.163-16 16s7.163 16 16 16c8.837 0 16-7.163 16-16v0c-0.018-8.829-7.171-15.982-15.998-16h-0.002zM16 29.344c-7.37 0-13.344-5.974-13.344-13.344s5.974-13.344 13.344-13.344c7.37 0 13.344 5.974 13.344 13.344v0c0 7.37-5.974 13.344-13.344 13.344v0zM16 13.344h-1.344c-0.648 0.104-1.137 0.659-1.137 1.328s0.489 1.224 1.13 1.327l0.008 0.001h1.344v8c0.104 0.648 0.659 1.137 1.328 1.137s1.224-0.489 1.327-1.13l0.001-0.008v-8c0-1.467-1.189-2.656-2.656-2.656v0zM18.016 8.672c0.010-0.076 0.016-0.164 0.016-0.254 0-1.113-0.903-2.016-2.016-2.016s-2.016 0.903-2.016 2.016c0 0.089 0.006 0.177 0.017 0.264l-0.001-0.010c-0.010 0.076-0.016 0.164-0.016 0.254 0 1.113 0.903 2.016 2.016 2.016s2.016-0.903 2.016-2.016c0-0.089-0.006-0.177-0.017-0.264l0.001 0.010z"></path>
</svg>
