<!-- Generated by IcoMoon.io -->
<svg version="1.1" xmlns="http://www.w3.org/2000/svg" width="32" height="32" viewBox="0 0 32 32">
<path d="M10.016 32c-2.432 0-4.768-0.864-6.56-2.464-1.824-1.568-3.008-3.776-3.36-6.176-0.32-2.368 0.224-4.8 1.536-6.848 1.344-2.016 3.328-3.488 5.664-4.128 1.696-0.48 3.488-0.512 5.184-0.064l10.528-10.56c0.576-0.544 1.216-0.992 1.952-1.312 0.736-0.288 1.536-0.448 2.336-0.448 1.248 0 2.432 0.512 3.328 1.376 0.864 0.896 1.376 2.080 1.376 3.328 0 0.8-0.16 1.6-0.448 2.336-0.32 0.736-0.768 1.376-1.312 1.952l-0.896 0.896c-0.512 0.48-1.184 0.768-1.888 0.768h-2.112v1.344c0 0.704-0.288 1.376-0.8 1.888-0.48 0.512-1.184 0.768-1.888 0.768h-1.312v2.112c0 0.352-0.064 0.704-0.224 1.024-0.128 0.32-0.32 0.64-0.576 0.864l-0.864 0.864c0.448 1.696 0.416 3.488-0.064 5.184-0.544 1.92-1.632 3.648-3.168 4.928s-3.392 2.112-5.408 2.304c-0.32 0.032-0.672 0.064-1.024 0.064zM10.016 14.656c-1.376 0-2.72 0.384-3.872 1.12-1.152 0.704-2.112 1.728-2.72 2.944s-0.864 2.592-0.736 3.968c0.128 1.344 0.64 2.656 1.472 3.744s1.92 1.92 3.2 2.4c1.28 0.512 2.656 0.64 4 0.384s2.592-0.896 3.584-1.792c1.024-0.928 1.76-2.112 2.112-3.424 0.416-1.472 0.384-3.008-0.128-4.416-0.096-0.224-0.096-0.48-0.032-0.736 0.032-0.256 0.16-0.48 0.352-0.64l1.408-1.44v-2.112c0-0.704 0.288-1.376 0.8-1.888 0.48-0.48 1.184-0.768 1.888-0.768h1.312v-1.344c0-0.704 0.288-1.376 0.8-1.888 0.48-0.48 1.184-0.768 1.888-0.768h2.112l0.896-0.896c0.32-0.32 0.544-0.672 0.736-1.088 0.16-0.416 0.256-0.864 0.256-1.312 0-0.544-0.224-1.056-0.608-1.44s-0.896-0.608-1.44-0.608c-0.448 0-0.896 0.096-1.312 0.256-0.416 0.192-0.768 0.416-1.088 0.736l-11.104 11.104c-0.192 0.192-0.416 0.32-0.64 0.352-0.256 0.064-0.512 0.064-0.736-0.032-0.768-0.256-1.6-0.416-2.4-0.416v0zM6.656 24c0 0.256 0.096 0.512 0.224 0.736 0.16 0.224 0.352 0.384 0.608 0.48 0.256 0.128 0.512 0.128 0.768 0.096 0.256-0.064 0.512-0.192 0.704-0.384 0.16-0.16 0.288-0.416 0.352-0.672s0.032-0.512-0.064-0.768c-0.128-0.256-0.288-0.448-0.512-0.608-0.224-0.128-0.48-0.224-0.736-0.224-0.352 0-0.704 0.16-0.928 0.384-0.256 0.256-0.416 0.608-0.416 0.96z"></path>
</svg>
