<!-- Generated by IcoMoon.io -->
<svg version="1.1" xmlns="http://www.w3.org/2000/svg" width="32" height="32" viewBox="0 0 32 32">
<path d="M5.344 8c-0.544 0-1.056-0.096-1.536-0.32-0.48-0.192-0.928-0.48-1.312-0.864l-2.048-1.824c-0.256-0.224-0.416-0.576-0.448-0.928s0.096-0.704 0.352-0.96c0.224-0.256 0.544-0.416 0.896-0.448 0.352 0 0.704 0.096 0.96 0.352l2.144 1.888c0.096 0.128 0.256 0.224 0.416 0.32 0.16 0.064 0.352 0.128 0.512 0.128 0.192 0 0.384-0.032 0.544-0.096s0.32-0.192 0.448-0.32l4.8-4.576c0.256-0.224 0.608-0.352 0.96-0.32 0.352 0 0.672 0.16 0.896 0.416 0.256 0.256 0.384 0.576 0.384 0.928s-0.16 0.672-0.384 0.928l-4.8 4.544c-0.352 0.352-0.8 0.672-1.28 0.864s-0.992 0.288-1.504 0.288zM32 5.344c0-0.352-0.128-0.704-0.384-0.96s-0.608-0.384-0.96-0.384h-13.312c-0.352 0-0.704 0.128-0.96 0.384s-0.384 0.608-0.384 0.96c0 0.352 0.128 0.672 0.384 0.928s0.608 0.384 0.96 0.384h13.312c0.352 0 0.704-0.128 0.96-0.384s0.384-0.576 0.384-0.928zM8.128 17.504l4.8-4.544c0.128-0.128 0.224-0.256 0.32-0.416 0.064-0.16 0.096-0.352 0.128-0.512 0-0.192-0.032-0.352-0.096-0.544-0.064-0.16-0.16-0.32-0.288-0.448s-0.256-0.224-0.416-0.288c-0.16-0.064-0.352-0.128-0.544-0.128-0.16 0-0.352 0.032-0.512 0.128-0.16 0.064-0.32 0.16-0.448 0.288l-4.8 4.576c-0.256 0.224-0.576 0.384-0.928 0.384s-0.704-0.16-0.96-0.384l-2.112-2.112c-0.256-0.256-0.576-0.384-0.928-0.384s-0.704 0.128-0.928 0.384c-0.256 0.256-0.384 0.576-0.384 0.928-0.032 0.352 0.128 0.704 0.352 0.96l2.112 2.112c0.768 0.736 1.76 1.152 2.816 1.152s2.080-0.384 2.816-1.152v0zM32 16c0-0.352-0.128-0.704-0.384-0.96-0.256-0.224-0.608-0.384-0.96-0.384h-13.312c-0.352 0-0.704 0.16-0.96 0.384-0.256 0.256-0.384 0.608-0.384 0.96s0.128 0.704 0.384 0.928c0.256 0.256 0.608 0.416 0.96 0.416h13.312c0.352 0 0.704-0.16 0.96-0.416 0.256-0.224 0.384-0.576 0.384-0.928zM32 26.656c0-0.352-0.128-0.672-0.384-0.928s-0.608-0.384-0.96-0.384h-20.992c-0.352 0-0.704 0.128-0.96 0.384-0.224 0.256-0.384 0.576-0.384 0.928s0.16 0.704 0.384 0.96c0.256 0.256 0.608 0.384 0.96 0.384h20.992c0.352 0 0.704-0.128 0.96-0.384s0.384-0.608 0.384-0.96zM2.656 29.344c1.472 0 2.688-1.216 2.688-2.688s-1.216-2.656-2.688-2.656c-1.472 0-2.656 1.184-2.656 2.656s1.184 2.688 2.656 2.688z"></path>
</svg>
