<!-- Generated by IcoMoon.io -->
<svg version="1.1" xmlns="http://www.w3.org/2000/svg" width="32" height="32" viewBox="0 0 32 32">
<path d="M9.344 8h21.312c0.648-0.104 1.137-0.659 1.137-1.328s-0.489-1.224-1.13-1.327l-0.008-0.001h-21.312c-0.648 0.104-1.137 0.659-1.137 1.328s0.489 1.224 1.13 1.327l0.008 0.001zM30.656 14.656h-21.312c-0.742 0-1.344 0.602-1.344 1.344s0.602 1.344 1.344 1.344v0h21.312c0.742 0 1.344-0.602 1.344-1.344s-0.602-1.344-1.344-1.344v0zM30.656 24h-21.312c-0.648 0.104-1.137 0.659-1.137 1.328s0.489 1.224 1.13 1.327l0.008 0.001h21.312c0.648-0.104 1.137-0.659 1.137-1.328s-0.489-1.224-1.13-1.327l-0.008-0.001zM2.656 4c-1.453 0.018-2.624 1.2-2.624 2.656 0 1.467 1.189 2.656 2.656 2.656s2.656-1.189 2.656-2.656v0c0-0 0-0 0-0 0-1.467-1.189-2.656-2.656-2.656-0.011 0-0.022 0-0.034 0l0.002-0zM2.656 13.344c-1.453 0.018-2.624 1.2-2.624 2.656 0 1.467 1.189 2.656 2.656 2.656s2.656-1.189 2.656-2.656v0c0-0 0-0 0-0 0-1.467-1.189-2.656-2.656-2.656-0.011 0-0.022 0-0.034 0l0.002-0zM2.656 22.656c-1.453 0.018-2.624 1.2-2.624 2.656 0 1.467 1.189 2.656 2.656 2.656 1.456 0 2.638-1.171 2.656-2.622l0-0.002c0-0.010 0-0.021 0-0.032 0-1.467-1.189-2.656-2.656-2.656-0.011 0-0.023 0-0.034 0l0.002-0z"></path>
</svg>
