<!-- Generated by IcoMoon.io -->
<svg version="1.1" xmlns="http://www.w3.org/2000/svg" width="32" height="32" viewBox="0 0 32 32">
<path d="M17.344 1.344v2.656c0 0.352-0.16 0.704-0.384 0.928-0.256 0.256-0.608 0.416-0.96 0.416s-0.704-0.16-0.928-0.416c-0.256-0.224-0.416-0.576-0.416-0.928v-2.656c0-0.352 0.16-0.704 0.416-0.96 0.224-0.256 0.576-0.384 0.928-0.384s0.704 0.128 0.96 0.384c0.224 0.256 0.384 0.608 0.384 0.96zM16 26.656c-0.352 0-0.704 0.16-0.928 0.384-0.256 0.256-0.416 0.608-0.416 0.96v2.656c0 0.352 0.16 0.704 0.416 0.96 0.224 0.256 0.576 0.384 0.928 0.384s0.704-0.128 0.96-0.384c0.224-0.256 0.384-0.608 0.384-0.96v-2.656c0-0.352-0.16-0.704-0.384-0.96-0.256-0.224-0.608-0.384-0.96-0.384zM5.344 16c0-0.352-0.16-0.704-0.384-0.96-0.256-0.224-0.608-0.384-0.96-0.384h-2.656c-0.352 0-0.704 0.16-0.96 0.384-0.256 0.256-0.384 0.608-0.384 0.96s0.128 0.704 0.384 0.928c0.256 0.256 0.608 0.416 0.96 0.416h2.656c0.352 0 0.704-0.16 0.96-0.416 0.224-0.224 0.384-0.576 0.384-0.928zM30.656 14.656h-2.656c-0.352 0-0.704 0.16-0.928 0.384-0.256 0.256-0.416 0.608-0.416 0.96s0.16 0.704 0.416 0.928c0.224 0.256 0.576 0.416 0.928 0.416h2.656c0.352 0 0.704-0.16 0.96-0.416 0.256-0.224 0.384-0.576 0.384-0.928s-0.128-0.704-0.384-0.96c-0.256-0.224-0.608-0.384-0.96-0.384zM24.032 2.144c-0.16-0.064-0.32-0.128-0.512-0.16-0.16-0.032-0.352 0-0.512 0.032-0.16 0.064-0.32 0.128-0.448 0.224-0.16 0.128-0.256 0.256-0.352 0.416l-1.344 2.304c-0.16 0.288-0.224 0.672-0.128 0.992 0.096 0.352 0.32 0.64 0.608 0.832 0.224 0.096 0.448 0.16 0.672 0.16 0.256 0 0.48-0.064 0.672-0.16 0.192-0.128 0.384-0.288 0.48-0.512l1.344-2.304c0.16-0.288 0.224-0.672 0.128-0.992-0.096-0.352-0.32-0.64-0.608-0.832zM10.656 25.216c-0.32-0.16-0.672-0.224-1.024-0.128-0.32 0.096-0.64 0.32-0.8 0.608l-1.344 2.336c-0.16 0.288-0.224 0.672-0.128 0.992 0.096 0.352 0.32 0.64 0.608 0.832 0.224 0.096 0.448 0.16 0.672 0.16 0.256 0 0.48-0.064 0.672-0.16 0.192-0.128 0.384-0.288 0.48-0.512l1.344-2.304c0.192-0.288 0.224-0.672 0.128-0.992-0.096-0.352-0.32-0.64-0.608-0.832zM6.304 8.832l-2.336-1.344c-0.288-0.16-0.64-0.192-0.992-0.096-0.32 0.096-0.608 0.32-0.768 0.608-0.192 0.288-0.224 0.672-0.16 0.992 0.096 0.352 0.32 0.64 0.608 0.8l2.304 1.344c0.288 0.16 0.672 0.192 0.992 0.096s0.608-0.32 0.8-0.608c0.16-0.288 0.224-0.64 0.128-0.992-0.096-0.32-0.288-0.608-0.576-0.8zM29.344 22.208l-2.304-1.344c-0.288-0.16-0.64-0.192-0.992-0.096-0.32 0.096-0.608 0.32-0.8 0.608-0.16 0.288-0.224 0.64-0.128 0.992 0.096 0.32 0.288 0.64 0.608 0.8l2.304 1.344c0.192 0.128 0.416 0.192 0.672 0.16 0.288 0 0.576-0.096 0.8-0.256 0.224-0.192 0.384-0.448 0.48-0.704 0.064-0.288 0.064-0.608-0.064-0.864-0.128-0.288-0.32-0.512-0.576-0.64zM9.792 2.656c-0.16-0.32-0.48-0.512-0.8-0.608-0.352-0.096-0.704-0.032-0.992 0.128-0.288 0.192-0.512 0.48-0.608 0.8s-0.064 0.704 0.096 0.992l1.344 2.304c0.096 0.224 0.288 0.384 0.48 0.512 0.192 0.096 0.448 0.16 0.672 0.16s0.448-0.064 0.672-0.16c0.288-0.192 0.512-0.48 0.608-0.832 0.096-0.32 0.032-0.704-0.128-0.992l-1.344-2.304zM23.168 25.696c-0.192-0.288-0.48-0.48-0.8-0.576-0.352-0.096-0.704-0.032-0.992 0.128-0.288 0.192-0.512 0.448-0.608 0.8-0.096 0.32-0.064 0.672 0.096 0.992l1.344 2.304c0.16 0.288 0.448 0.512 0.8 0.608 0.32 0.064 0.704 0.032 0.992-0.16 0.288-0.16 0.512-0.448 0.608-0.768 0.096-0.352 0.064-0.704-0.096-0.992l-1.344-2.336zM26.4 11.296c0.224 0 0.448-0.064 0.64-0.16l2.304-1.344c0.32-0.192 0.512-0.48 0.608-0.8 0.096-0.352 0.032-0.704-0.128-0.992-0.192-0.32-0.48-0.512-0.8-0.608s-0.704-0.064-0.992 0.096l-2.304 1.344c-0.256 0.128-0.448 0.352-0.576 0.64-0.096 0.256-0.128 0.576-0.064 0.832 0.096 0.288 0.256 0.544 0.48 0.736 0.224 0.16 0.512 0.256 0.832 0.256zM4.96 20.864l-2.304 1.344c-0.256 0.128-0.48 0.352-0.576 0.64-0.128 0.256-0.128 0.576-0.064 0.832 0.096 0.288 0.256 0.544 0.48 0.736 0.224 0.16 0.512 0.256 0.8 0.256 0.256 0 0.48-0.064 0.672-0.16l2.304-1.344c0.32-0.192 0.512-0.48 0.608-0.8 0.096-0.352 0.032-0.704-0.128-0.992-0.192-0.32-0.48-0.512-0.8-0.608-0.352-0.096-0.704-0.064-0.992 0.096z"></path>
</svg>
