<!-- Generated by IcoMoon.io -->
<svg version="1.1" xmlns="http://www.w3.org/2000/svg" width="32" height="32" viewBox="0 0 32 32">
<path d="M19.776 25.44c0.768 0.768 0.352 2.080-0.704 2.272-0.032 0-0.032 0-0.032 0-0.448 0.064-0.896-0.064-1.184-0.384l-14.912-14.88c-0.48-0.48-0.512-1.248-0.096-1.792 0 0 0 0 0 0 0.512-0.64 1.44-0.704 2.016-0.128l14.912 14.912zM0.704 13.952c-0.192 0.384-0.352 0.704-0.48 0.96-0.32 0.704-0.32 1.472 0 2.176 0.064 0.128 0.128 0.256 0.224 0.416l7.872 7.872c1.056 1.056 2.336 1.824 3.776 2.144 0.128 0.032 0.224 0.064 0.352 0.096 0.704 0.16 1.216-0.704 0.672-1.216l-12.416-12.448zM31.616 29.728c0.512 0.512 0.512 1.376 0 1.888-0.256 0.256-0.608 0.384-0.96 0.384-0.32 0-0.672-0.128-0.928-0.384l-29.344-29.344c-0.512-0.512-0.512-1.376 0-1.888 0.544-0.512 1.376-0.512 1.888 0l5.696 5.696c2.464-1.376 5.152-2.080 8.032-2.080 8.256 0 12.96 5.664 15.040 9.024 1.28 2.112 1.28 4.768 0 6.88-0.864 1.376-2.24 3.296-4.256 4.992l4.832 4.832zM9.952 8.064l2.368 2.368c2.592-1.696 6.112-1.408 8.384 0.864 2.304 2.272 2.56 5.792 0.864 8.384l3.328 3.328c1.824-1.504 3.104-3.264 3.872-4.512s0.768-2.816 0-4.096c-1.792-2.88-5.792-7.744-12.768-7.744-2.144 0-4.192 0.48-6.048 1.408zM19.616 17.728c0.704-1.504 0.448-3.328-0.8-4.544-1.216-1.248-3.040-1.504-4.544-0.8l5.344 5.344z"></path>
</svg>
