<!-- Generated by IcoMoon.io -->
<svg version="1.1" xmlns="http://www.w3.org/2000/svg" width="32" height="32" viewBox="0 0 32 32">
<path d="M16 8c-1.056 0-2.080 0.32-2.976 0.896-0.864 0.576-1.536 1.408-1.952 2.4-0.416 0.96-0.512 2.048-0.288 3.072 0.192 1.024 0.704 1.984 1.44 2.72 0.768 0.768 1.696 1.28 2.752 1.472 1.024 0.224 2.080 0.096 3.072-0.288 0.96-0.416 1.792-1.088 2.4-1.984 0.576-0.864 0.896-1.888 0.896-2.944 0-1.44-0.576-2.784-1.568-3.776s-2.368-1.568-3.776-1.568zM16 16c-0.512 0-1.056-0.16-1.472-0.448-0.448-0.288-0.8-0.704-0.992-1.184-0.192-0.512-0.256-1.024-0.16-1.568 0.128-0.512 0.352-0.992 0.736-1.344 0.384-0.384 0.864-0.64 1.376-0.736s1.056-0.064 1.536 0.16c0.48 0.192 0.896 0.544 1.184 0.96 0.32 0.448 0.448 0.96 0.448 1.504 0 0.704-0.256 1.376-0.768 1.888-0.512 0.48-1.184 0.768-1.888 0.768zM16 32c-1.12 0-2.24-0.256-3.232-0.768s-1.856-1.248-2.528-2.176c-5.056-7.008-7.648-12.256-7.648-15.648 0-3.552 1.408-6.976 3.936-9.472 2.496-2.528 5.92-3.936 9.472-3.936s6.976 1.408 9.472 3.936c2.528 2.496 3.936 5.92 3.936 9.472 0 3.392-2.592 8.64-7.648 15.648-0.672 0.928-1.536 1.664-2.528 2.176s-2.112 0.768-3.232 0.768zM16 2.912c-2.784 0-5.44 1.12-7.424 3.072-1.952 1.984-3.072 4.64-3.072 7.424 0 2.688 2.528 7.648 7.104 13.952 0.384 0.544 0.896 0.96 1.504 1.28 0.576 0.288 1.216 0.448 1.888 0.448s1.312-0.16 1.92-0.448c0.576-0.32 1.088-0.736 1.472-1.28 4.576-6.304 7.104-11.264 7.104-13.952 0-2.784-1.12-5.44-3.072-7.424-1.984-1.952-4.64-3.072-7.424-3.072z"></path>
</svg>
