<!-- Generated by IcoMoon.io -->
<svg version="1.1" xmlns="http://www.w3.org/2000/svg" width="32" height="32" viewBox="0 0 32 32">
<path d="M31.616 29.728l-4.736-4.736c0.704-1.056 1.12-2.304 1.12-3.648 0-3.68-2.976-6.688-6.656-6.688s-6.688 3.008-6.688 6.688 3.008 6.656 6.688 6.656c1.344 0 2.592-0.416 3.648-1.12l4.736 4.736c0.256 0.256 0.608 0.384 0.928 0.384s0.704-0.128 0.96-0.384c0.512-0.512 0.512-1.376 0-1.888zM17.344 21.344c0-2.208 1.792-4 4-4s4 1.792 4 4-1.792 4-4 4-4-1.792-4-4zM20 8c0-4.416-3.584-8-8-8s-8 3.584-8 8 3.584 8 8 8 8-3.584 8-8zM12 13.344c-2.944 0-5.344-2.4-5.344-5.344s2.4-5.344 5.344-5.344 5.344 2.4 5.344 5.344-2.4 5.344-5.344 5.344zM12 19.904c0.096 0.736-0.448 1.408-1.152 1.504-4.672 0.576-8.192 4.544-8.192 9.248 0 0.736-0.576 1.344-1.312 1.344s-1.344-0.608-1.344-1.344c0-6.048 4.512-11.136 10.496-11.904 0.736-0.096 1.408 0.448 1.504 1.152z"></path>
</svg>
