<!-- Generated by IcoMoon.io -->
<svg version="1.1" xmlns="http://www.w3.org/2000/svg" width="32" height="32" viewBox="0 0 32 32">
<path d="M16 5.344c1.472 0 2.656-1.216 2.656-2.688s-1.184-2.656-2.656-2.656c-1.472 0-2.656 1.184-2.656 2.656s1.184 2.688 2.656 2.688zM16 18.656c1.472 0 2.656-1.184 2.656-2.656s-1.184-2.656-2.656-2.656c-1.472 0-2.656 1.184-2.656 2.656s1.184 2.656 2.656 2.656zM16 32c1.472 0 2.656-1.184 2.656-2.656s-1.184-2.688-2.656-2.688c-1.472 0-2.656 1.216-2.656 2.688s1.184 2.656 2.656 2.656z"></path>
</svg>
