<!-- Generated by IcoMoon.io -->
<svg version="1.1" xmlns="http://www.w3.org/2000/svg" width="32" height="32" viewBox="0 0 32 32">
<path d="M25.344 5.344h-1.472c-0.64-3.040-3.328-5.344-6.528-5.344h-10.688c-3.648 0-6.656 2.976-6.656 6.656v17.152c0 1.056 0.576 2.016 1.504 2.528 0.448 0.224 0.896 0.32 1.376 0.32 0.544 0 1.088-0.16 1.568-0.48l3.936-2.624c0.928 2.592 3.392 4.448 6.272 4.448h7.616l5.28 3.52c0.48 0.32 1.024 0.48 1.6 0.48 0.448 0 0.928-0.096 1.344-0.32 0.928-0.512 1.504-1.472 1.504-2.528v-17.152c0-3.68-2.976-6.656-6.656-6.656zM2.976 23.968c-0.032 0.032-0.096 0.064-0.192 0-0.128-0.032-0.128-0.128-0.128-0.16v-17.152c0-2.208 1.792-4 4-4h10.688c2.208 0 4 1.792 4 4v9.344c0 2.208-1.792 4-4 4h-8c-0.448 0-0.736 0.224-0.768 0.224l-5.6 3.744zM29.344 29.152c0 0.032 0 0.096-0.128 0.16-0.096 0.064-0.16 0-0.192 0l-5.6-3.744c-0.224-0.16-0.48-0.224-0.768-0.224h-8c-1.728 0-3.2-1.12-3.744-2.688h6.432c3.68 0 6.656-2.976 6.656-6.656v-8h1.344c2.208 0 4 1.792 4 4v17.152z"></path>
</svg>
