<!-- Generated by IcoMoon.io -->
<svg version="1.1" xmlns="http://www.w3.org/2000/svg" width="28" height="32" viewBox="0 0 28 32">
<path d="M0 4c0-2.208 1.792-4 4-4h24c2.208 0 4 1.792 4 4v17.984c0 2.208-1.792 4-4 4h-8.672l-7.712 5.824c-0.32 0.224-0.736 0.256-1.056 0.096s-0.544-0.512-0.544-0.896v-5.024h-6.016c-2.208 0-4-1.792-4-4v-17.984zM10.624 7.328l-0.032 0.064c-0.288 0.8 0.128 1.664 0.896 1.92s1.664-0.128 1.92-0.896l0.032-0.096c0.064-0.192 0.256-0.32 0.48-0.32h3.616c0.544 0 0.96 0.416 0.96 0.928 0 0.352-0.192 0.672-0.48 0.832l-2.752 1.6c-0.48 0.256-0.768 0.736-0.768 1.28v0.864c0 0.832 0.672 1.504 1.504 1.504 0.8 0 1.472-0.672 1.504-1.504l2.016-1.152c1.216-0.704 1.984-2.016 1.984-3.424 0-2.176-1.792-3.936-3.968-3.936h-3.616c-1.504 0-2.816 0.928-3.328 2.336zM18.016 19.008c0.010-0.076 0.016-0.164 0.016-0.253 0-1.113-0.903-2.016-2.016-2.016s-2.016 0.903-2.016 2.016c0 0.089 0.006 0.177 0.017 0.264l-0.001-0.010c-0.010 0.076-0.016 0.164-0.016 0.253 0 1.113 0.903 2.016 2.016 2.016s2.016-0.903 2.016-2.016c0-0.089-0.006-0.177-0.017-0.264l0.001 0.010z"></path>
</svg>
