<!-- Generated by IcoMoon.io -->
<svg version="1.1" xmlns="http://www.w3.org/2000/svg" width="32" height="32" viewBox="0 0 32 32">
<path d="M30.080 1.216c-0.608-0.48-1.312-0.864-2.080-1.056-0.736-0.192-1.536-0.224-2.304-0.064l-12.256 2.304c-1.536 0.288-2.912 1.088-3.904 2.272-0.992 1.216-1.536 2.72-1.536 4.256v13.152c-0.8-0.48-1.728-0.736-2.656-0.736-1.056 0-2.080 0.288-2.976 0.896-0.864 0.576-1.568 1.408-1.952 2.4-0.416 0.96-0.512 2.016-0.32 3.072 0.224 1.024 0.736 1.984 1.472 2.72 0.736 0.768 1.696 1.248 2.72 1.472 1.056 0.192 2.112 0.096 3.072-0.32 0.992-0.384 1.824-1.088 2.4-1.952 0.608-0.864 0.896-1.92 0.896-2.976v-12.16c0-0.608 0.224-1.216 0.64-1.696 0.384-0.48 0.928-0.8 1.536-0.928l14.912-2.784c0.192-0.032 0.416-0.032 0.608 0 0.192 0.064 0.352 0.16 0.512 0.288 0.128 0.128 0.256 0.288 0.352 0.448 0.064 0.192 0.128 0.384 0.128 0.576v7.68c-0.8-0.48-1.728-0.736-2.688-0.736-1.056 0-2.080 0.288-2.944 0.896-0.896 0.576-1.568 1.408-1.984 2.4-0.384 0.96-0.512 2.016-0.288 3.072 0.192 1.024 0.704 1.984 1.472 2.72 0.736 0.736 1.696 1.248 2.72 1.472 1.024 0.192 2.112 0.096 3.072-0.32 0.992-0.384 1.824-1.088 2.4-1.952 0.576-0.896 0.896-1.92 0.896-2.976v-17.312c0-0.8-0.16-1.568-0.512-2.272-0.32-0.704-0.8-1.344-1.408-1.856zM5.344 29.344c-0.544 0-1.056-0.16-1.504-0.448-0.416-0.288-0.768-0.704-0.96-1.216-0.224-0.48-0.256-1.024-0.16-1.536s0.352-0.992 0.736-1.376c0.352-0.352 0.832-0.608 1.344-0.704 0.544-0.128 1.056-0.064 1.568 0.128 0.48 0.224 0.896 0.544 1.184 0.992s0.448 0.96 0.448 1.472c0 0.704-0.288 1.408-0.768 1.888-0.512 0.512-1.184 0.8-1.888 0.8zM27.264 6.464l-14.912 2.784c-0.608 0.128-1.152 0.32-1.696 0.64v-0.96c0-0.928 0.352-1.824 0.928-2.528 0.608-0.736 1.44-1.216 2.336-1.408l12.256-2.272c0.384-0.096 0.768-0.064 1.152 0.032s0.736 0.288 1.056 0.544c0.288 0.224 0.544 0.544 0.704 0.896s0.256 0.736 0.256 1.152v1.312c-0.672-0.256-1.376-0.32-2.080-0.192zM26.656 25.344c-0.512 0-1.024-0.16-1.472-0.448-0.448-0.32-0.768-0.736-0.992-1.216-0.192-0.48-0.256-1.024-0.128-1.536 0.096-0.512 0.352-0.992 0.704-1.376 0.384-0.352 0.864-0.608 1.376-0.704 0.512-0.128 1.056-0.064 1.536 0.128 0.512 0.224 0.928 0.544 1.216 0.992s0.448 0.96 0.448 1.472c0 0.704-0.288 1.408-0.8 1.888-0.48 0.512-1.184 0.8-1.888 0.8z"></path>
</svg>
