<!-- Generated by IcoMoon.io -->
<svg version="1.1" xmlns="http://www.w3.org/2000/svg" width="32" height="32" viewBox="0 0 32 32">
<path d="M30.336 12.928c1.088 1.216 1.664 2.784 1.664 4.416v6.656c0 3.68-2.976 6.656-6.656 6.656h-18.688c-3.648 0-6.656-2.976-6.656-6.656v-6.656c0-3.68 3.008-6.688 6.656-6.688h5.344c0.736 0 1.344 0.608 1.344 1.344s-0.608 1.344-1.344 1.344h-5.344c-2.208 0-4 1.792-4 4v6.656c0 2.208 1.792 4 4 4h18.688c2.208 0 4-1.792 4-4v-6.656c0-0.992-0.352-1.92-1.024-2.656-0.48-0.544-0.416-1.408 0.128-1.888s1.408-0.416 1.888 0.128zM6.656 20.672c0 1.088 0.896 1.984 2.016 1.984 1.088 0 1.984-0.896 1.984-1.984 0-1.12-0.896-2.016-1.984-2.016-1.12 0-2.016 0.896-2.016 2.016zM15.328 22.656c1.12 0 2.016-0.896 2.016-1.984 0-1.12-0.896-2.016-2.016-2.016-1.088 0-1.984 0.896-1.984 2.016 0 1.088 0.896 1.984 1.984 1.984zM16 14.656v-2.112c0-1.408 0.544-2.752 1.568-3.776l7.616-7.584c1.536-1.568 4.096-1.568 5.632 0 0.768 0.736 1.184 1.76 1.184 2.816s-0.416 2.080-1.184 2.816l-7.584 7.616c-1.024 1.024-2.368 1.568-3.776 1.568h-2.112c-0.736 0-1.344-0.608-1.344-1.344v0zM18.656 13.344h0.8c0.704 0 1.376-0.288 1.888-0.8l7.616-7.616c0.224-0.224 0.384-0.576 0.384-0.928s-0.16-0.704-0.384-0.96c-0.544-0.512-1.376-0.512-1.888 0l-7.616 7.616c-0.512 0.512-0.8 1.184-0.8 1.888v0.8z"></path>
</svg>
