<!-- Generated by IcoMoon.io -->
<svg version="1.1" xmlns="http://www.w3.org/2000/svg" width="32" height="32" viewBox="0 0 32 32">
<path d="M25.344 0h-18.688c-1.76 0-3.456 0.704-4.704 1.952s-1.952 2.944-1.952 4.704v18.688c0 1.76 0.704 3.456 1.952 4.704s2.944 1.952 4.704 1.952h18.688c1.76 0 3.456-0.704 4.704-1.952s1.952-2.944 1.952-4.704v-18.688c0-1.76-0.704-3.456-1.952-4.704s-2.944-1.952-4.704-1.952zM6.656 2.656h18.688c1.056 0 2.080 0.416 2.816 1.184 0.768 0.736 1.184 1.76 1.184 2.816v18.688c0 0.576-0.16 1.152-0.416 1.696l-12.224-12.224c-0.608-0.608-1.344-1.088-2.144-1.44-0.8-0.32-1.696-0.512-2.56-0.512s-1.728 0.192-2.56 0.512c-0.8 0.352-1.536 0.832-2.144 1.44l-4.64 4.64v-12.8c0-1.056 0.448-2.080 1.184-2.816 0.736-0.768 1.76-1.184 2.816-1.184zM6.656 29.344c-1.056 0-2.080-0.416-2.816-1.184-0.736-0.736-1.184-1.76-1.184-2.816v-2.112l6.528-6.528c0.352-0.352 0.8-0.672 1.28-0.864s1.024-0.288 1.536-0.288c0.512 0 1.056 0.096 1.536 0.288s0.928 0.512 1.28 0.864l12.224 12.224c-0.512 0.256-1.12 0.416-1.696 0.416h-18.688zM21.344 13.984c0.928 0 1.824-0.256 2.592-0.768s1.344-1.248 1.696-2.112c0.352-0.832 0.448-1.792 0.288-2.688-0.192-0.896-0.64-1.728-1.28-2.4-0.672-0.64-1.504-1.088-2.4-1.248-0.896-0.192-1.824-0.096-2.688 0.256s-1.6 0.96-2.112 1.728c-0.512 0.768-0.768 1.664-0.768 2.592 0 1.216 0.48 2.4 1.376 3.296 0.864 0.864 2.048 1.344 3.296 1.344zM21.344 7.328c0.384 0 0.768 0.128 1.088 0.352 0.352 0.224 0.608 0.512 0.736 0.896 0.16 0.352 0.192 0.768 0.128 1.152s-0.256 0.736-0.544 1.024c-0.288 0.288-0.64 0.48-1.024 0.544s-0.8 0.032-1.152-0.128c-0.384-0.128-0.672-0.384-0.896-0.736-0.224-0.32-0.352-0.704-0.352-1.088 0-0.544 0.224-1.056 0.608-1.44 0.352-0.352 0.864-0.576 1.408-0.576z"></path>
</svg>
