<!-- Generated by IcoMoon.io -->
<svg version="1.1" xmlns="http://www.w3.org/2000/svg" width="32" height="32" viewBox="0 0 32 32">
<path d="M25.344 32h-18.688c-1.76 0-3.456-0.704-4.704-1.952s-1.952-2.944-1.952-4.704v-18.688c0-1.76 0.704-3.456 1.952-4.704s2.944-1.952 4.704-1.952h18.688c1.76 0 3.456 0.704 4.704 1.952s1.952 2.944 1.952 4.704v18.688c0 1.76-0.704 3.456-1.952 4.704s-2.944 1.952-4.704 1.952zM6.656 2.656c-1.056 0-2.080 0.416-2.816 1.184-0.736 0.736-1.184 1.76-1.184 2.816v18.688c0 1.056 0.448 2.080 1.184 2.816 0.736 0.768 1.76 1.184 2.816 1.184h18.688c1.056 0 2.080-0.416 2.816-1.184 0.768-0.736 1.184-1.76 1.184-2.816v-18.688c0-1.056-0.416-2.080-1.184-2.816-0.736-0.768-1.76-1.184-2.816-1.184h-18.688zM12.448 22.656c-0.544 0-1.088-0.128-1.568-0.416-0.48-0.256-0.864-0.672-1.152-1.152-0.256-0.448-0.416-0.992-0.416-1.536v-7.104c0-0.544 0.16-1.088 0.416-1.568 0.288-0.448 0.672-0.864 1.152-1.12 0.48-0.288 0.992-0.416 1.568-0.416 0.544 0 1.056 0.128 1.536 0.416l7.040 3.488c0.48 0.288 0.896 0.672 1.184 1.152 0.288 0.448 0.448 0.992 0.448 1.568 0 0.544-0.128 1.088-0.416 1.568-0.256 0.48-0.672 0.896-1.152 1.152l-7.168 3.584c-0.448 0.256-0.96 0.416-1.472 0.384zM12.416 12c-0.064 0-0.128 0.032-0.192 0.064s-0.128 0.096-0.16 0.16c-0.064 0.064-0.064 0.16-0.064 0.224v7.104c0 0.064 0 0.16 0.064 0.224 0.032 0.064 0.096 0.128 0.16 0.16s0.128 0.064 0.224 0.064c0.064 0 0.128-0.032 0.224-0.064l7.168-3.584c0.032-0.032 0.096-0.096 0.096-0.16 0.032-0.064 0.064-0.128 0.064-0.192 0-0.096-0.032-0.16-0.064-0.224-0.064-0.064-0.096-0.128-0.16-0.16l-7.040-3.52c-0.096-0.064-0.192-0.096-0.32-0.096z"></path>
</svg>
