<!-- Generated by IcoMoon.io -->
<svg version="1.1" xmlns="http://www.w3.org/2000/svg" width="32" height="32" viewBox="0 0 32 32">
<path d="M20 5.12c0 0.288 0.096 0.544 0.224 0.768 0.16 0.192 0.384 0.384 0.608 0.48 2.208 0.96 4.064 2.56 5.312 4.576 1.28 2.016 1.92 4.384 1.856 6.784-0.064 3.168-1.376 6.208-3.648 8.416-2.304 2.208-5.376 3.424-8.544 3.392-3.168-0.064-6.208-1.376-8.416-3.648-2.24-2.304-3.456-5.376-3.392-8.544 0-2.336 0.672-4.608 1.952-6.56s3.072-3.488 5.216-4.416c0.224-0.096 0.448-0.288 0.608-0.48 0.128-0.224 0.224-0.48 0.224-0.768 0-0.224-0.064-0.416-0.16-0.608s-0.256-0.352-0.416-0.48c-0.192-0.128-0.384-0.192-0.608-0.224s-0.448 0-0.64 0.096c-3.104 1.312-5.632 3.68-7.2 6.688-1.536 3.008-2.016 6.432-1.344 9.728 0.704 3.296 2.496 6.272 5.12 8.416 2.624 2.112 5.888 3.296 9.248 3.296 3.392 0 6.656-1.184 9.248-3.296 2.624-2.144 4.416-5.12 5.12-8.416 0.672-3.296 0.192-6.72-1.344-9.728-1.568-3.008-4.096-5.376-7.2-6.688-0.192-0.096-0.416-0.128-0.64-0.096-0.192 0-0.416 0.096-0.608 0.224-0.16 0.096-0.32 0.288-0.416 0.48s-0.16 0.384-0.16 0.608zM17.344 1.344c0-0.736-0.608-1.344-1.344-1.344s-1.344 0.608-1.344 1.344v8c0 0.736 0.608 1.312 1.344 1.312s1.344-0.576 1.344-1.312v-8z"></path>
</svg>
