<!-- Generated by IcoMoon.io -->
<svg version="1.1" xmlns="http://www.w3.org/2000/svg" width="32" height="32" viewBox="0 0 32 32">
<path d="M27.328 8h-2.656c-2.592 0-4.672 2.080-4.672 4.672v5.312c0 1.856 1.088 3.456 2.656 4.224v8.448c0 0.736 0.608 1.344 1.344 1.344s1.344-0.608 1.344-1.344v-8h1.312v8c0 0.736 0.608 1.344 1.344 1.344s1.344-0.608 1.344-1.344v-8.448c1.568-0.768 2.656-2.368 2.656-4.224v-5.312c0-2.592-2.080-4.672-4.672-4.672zM29.344 17.984c0 1.12-0.896 2.016-2.016 2.016h-2.656c-1.12 0-2.016-0.896-2.016-2.016v-5.312c0-1.12 0.896-2.016 2.016-2.016h2.656c1.12 0 2.016 0.896 2.016 2.016v5.312zM18.656 9.12c0.128 0.736-0.32 1.44-1.056 1.6-0.928 0.16-1.6 0.992-1.6 1.952v5.312c0 0.64 0.288 1.248 0.8 1.6 0.352 0.256 0.544 0.672 0.544 1.088v8.672c0 0.736-0.608 1.312-1.344 1.312s-1.344-0.576-1.344-1.312v-8.096c-0.832-0.864-1.312-2.016-1.312-3.264v-5.312c0-2.208 1.568-4.128 3.712-4.576 0.736-0.16 1.44 0.32 1.6 1.024zM11.968 9.12c0.16 0.736-0.32 1.44-1.024 1.6-0.928 0.16-1.6 0.992-1.6 1.952v4c0 0.64 0.288 1.216 0.8 1.6 0.32 0.256 0.512 0.64 0.512 1.056v7.328c0 0.736-0.576 1.344-1.312 1.344s-1.344-0.608-1.344-1.344v-6.72c-0.832-0.864-1.344-2.048-1.344-3.264v-4c0-2.208 1.568-4.128 3.744-4.576 0.736-0.16 1.44 0.32 1.568 1.024zM5.312 9.12c0.128 0.736-0.32 1.44-1.056 1.6-0.928 0.16-1.6 0.992-1.6 1.952v2.656c0 0.64 0.32 1.216 0.8 1.6 0.352 0.256 0.544 0.64 0.544 1.056v6.016c0 0.736-0.608 1.344-1.344 1.344s-1.312-0.608-1.312-1.344v-5.408c-0.864-0.864-1.344-2.048-1.344-3.264v-2.656c0-2.208 1.568-4.128 3.744-4.576 0.704-0.16 1.408 0.32 1.568 1.024zM22.656 3.328c0-1.824 1.504-3.328 3.36-3.328s3.328 1.504 3.328 3.328-1.504 3.328-3.328 3.328-3.36-1.472-3.36-3.328zM20.832 6.304c-0.448 0.224-0.96 0.352-1.504 0.352-1.824 0-3.328-1.472-3.328-3.328s1.504-3.328 3.328-3.328c0.544 0 1.056 0.128 1.504 0.352-0.512 0.896-0.832 1.888-0.832 2.976s0.32 2.080 0.832 2.976zM14.144 6.304c-0.448 0.224-0.928 0.352-1.472 0.352-1.856 0-3.328-1.472-3.328-3.328s1.472-3.328 3.328-3.328c0.544 0 1.024 0.128 1.472 0.352-0.512 0.896-0.8 1.888-0.8 2.976s0.288 2.080 0.8 2.976zM7.488 6.304c-0.448 0.224-0.96 0.352-1.472 0.352-1.856 0-3.36-1.472-3.36-3.328s1.504-3.328 3.36-3.328c0.512 0 1.024 0.128 1.472 0.352-0.512 0.896-0.832 1.888-0.832 2.976s0.32 2.080 0.832 2.976z"></path>
</svg>
