<!-- Generated by IcoMoon.io -->
<svg version="1.1" xmlns="http://www.w3.org/2000/svg" width="32" height="32" viewBox="0 0 32 32">
<path d="M25.344 1.344h-18.688c-3.648 0-6.656 2.976-6.656 6.656v16c0 3.68 3.008 6.656 6.656 6.656h18.688c3.68 0 6.656-2.976 6.656-6.656v-16c0-3.68-2.976-6.656-6.656-6.656zM29.344 24c0 2.208-1.792 4-4 4h-18.688c-2.208 0-4-1.792-4-4v-16c0-2.208 1.792-4 4-4h18.688c2.208 0 4 1.792 4 4v16zM25.344 9.344c0 0.736-0.608 1.312-1.344 1.312h-9.344c-0.736 0-1.312-0.576-1.312-1.312s0.576-1.344 1.312-1.344h9.344c0.736 0 1.344 0.608 1.344 1.344zM10.656 9.344c0 1.088-0.896 1.984-1.984 1.984-1.12 0-2.016-0.896-2.016-1.984 0-1.12 0.896-2.016 2.016-2.016 1.088 0 1.984 0.896 1.984 2.016zM25.344 16c0 0.736-0.608 1.344-1.344 1.344h-9.344c-0.736 0-1.312-0.608-1.312-1.344s0.576-1.344 1.312-1.344h9.344c0.736 0 1.344 0.608 1.344 1.344zM10.656 16c0 1.088-0.896 1.984-1.984 1.984-1.12 0-2.016-0.896-2.016-1.984 0-1.12 0.896-2.016 2.016-2.016 1.088 0 1.984 0.896 1.984 2.016zM25.344 22.656c0 0.736-0.608 1.344-1.344 1.344h-9.344c-0.736 0-1.312-0.608-1.312-1.344s0.576-1.312 1.312-1.312h9.344c0.736 0 1.344 0.576 1.344 1.312zM10.656 22.656c0 1.12-0.896 2.016-1.984 2.016-1.12 0-2.016-0.896-2.016-2.016 0-1.088 0.896-1.984 2.016-1.984 1.088 0 1.984 0.896 1.984 1.984z"></path>
</svg>
