<!-- Generated by IcoMoon.io -->
<svg version="1.1" xmlns="http://www.w3.org/2000/svg" width="32" height="32" viewBox="0 0 32 32">
<path d="M32 16c0 0.736-0.608 1.344-1.344 1.344s-1.312-0.608-1.312-1.344c0-7.36-5.984-13.344-13.344-13.344-4.192 0-8.16 2.016-10.656 5.344h4c0.736 0 1.312 0.608 1.312 1.344s-0.576 1.312-1.312 1.312h-5.344c-1.472 0-2.656-1.184-2.656-2.656v-5.344c0-0.736 0.576-1.312 1.312-1.312s1.344 0.576 1.344 1.312v2.816c3.008-3.424 7.36-5.472 12-5.472 8.832 0 16 7.168 16 16zM28 21.344h-5.344c-0.736 0-1.312 0.576-1.312 1.312s0.576 1.344 1.312 1.344h4c-2.496 3.328-6.464 5.344-10.656 5.344-7.36 0-13.344-5.984-13.344-13.344 0-0.736-0.576-1.344-1.312-1.344s-1.344 0.608-1.344 1.344c0 8.832 7.168 16 16 16 4.64 0 8.992-2.048 12-5.472v2.816c0 0.736 0.608 1.312 1.344 1.312s1.312-0.576 1.312-1.312v-5.344c0-1.472-1.184-2.656-2.656-2.656z"></path>
</svg>
