<!-- Generated by IcoMoon.io -->
<svg version="1.1" xmlns="http://www.w3.org/2000/svg" width="32" height="32" viewBox="0 0 32 32">
<path d="M31.616 29.728l-7.968-7.968c1.875-2.28 3.012-5.23 3.012-8.444 0-7.37-5.974-13.344-13.344-13.344s-13.344 5.974-13.344 13.344c0 7.37 5.974 13.344 13.344 13.344 3.215 0 6.164-1.137 8.467-3.030l-0.023 0.018 7.968 7.968c0.227 0.181 0.518 0.29 0.834 0.29 0.742 0 1.344-0.602 1.344-1.344 0-0.316-0.109-0.607-0.292-0.837l0.002 0.003zM13.344 24c-5.885 0-10.656-4.771-10.656-10.656s4.771-10.656 10.656-10.656c5.885 0 10.656 4.771 10.656 10.656v0c-0.018 5.878-4.778 10.638-10.654 10.656h-0.002z"></path>
</svg>
