<!-- Generated by IcoMoon.io -->
<svg version="1.1" xmlns="http://www.w3.org/2000/svg" width="32" height="32" viewBox="0 0 32 32">
<path d="M1.344 6.336h3.648c0.288 1.056 0.896 1.984 1.76 2.656 0.864 0.64 1.952 0.992 3.040 0.992s2.144-0.352 3.008-0.992c0.864-0.672 1.504-1.6 1.792-2.656h16.064c0.352 0 0.704-0.16 0.96-0.384 0.256-0.256 0.384-0.608 0.384-0.96s-0.128-0.672-0.384-0.928c-0.256-0.256-0.608-0.384-0.96-0.384h-16.064c-0.288-1.056-0.928-1.984-1.792-2.656s-1.92-1.024-3.008-1.024c-1.088 0-2.176 0.352-3.040 1.024s-1.472 1.6-1.76 2.656h-3.648c-0.352 0-0.704 0.128-0.96 0.384s-0.384 0.576-0.384 0.928c0 0.352 0.128 0.704 0.384 0.96 0.256 0.224 0.608 0.384 0.96 0.384zM9.792 2.656c0.448 0 0.896 0.16 1.28 0.416s0.672 0.608 0.864 1.024c0.16 0.448 0.224 0.896 0.128 1.344-0.096 0.48-0.32 0.896-0.64 1.216s-0.736 0.544-1.184 0.64c-0.448 0.096-0.928 0.032-1.344-0.128-0.448-0.192-0.8-0.48-1.056-0.864s-0.384-0.832-0.384-1.312c0-0.608 0.224-1.216 0.672-1.632 0.448-0.448 1.024-0.704 1.664-0.704zM30.656 14.656h-3.648c-0.288-1.056-0.896-1.984-1.76-2.624-0.864-0.672-1.92-1.024-3.008-1.024-1.12 0-2.176 0.352-3.040 1.024-0.864 0.64-1.472 1.568-1.76 2.624h-16.096c-0.352 0-0.704 0.16-0.96 0.384-0.256 0.256-0.384 0.608-0.384 0.96s0.128 0.704 0.384 0.928c0.256 0.256 0.608 0.416 0.96 0.416h16.096c0.288 1.056 0.896 1.984 1.76 2.624 0.864 0.672 1.92 1.024 3.040 1.024 1.088 0 2.144-0.352 3.008-1.024 0.864-0.64 1.472-1.568 1.76-2.624h3.648c0.352 0 0.704-0.16 0.96-0.416 0.256-0.224 0.384-0.576 0.384-0.928s-0.128-0.704-0.384-0.96c-0.256-0.224-0.608-0.384-0.96-0.384zM22.24 18.336c-0.48 0-0.928-0.128-1.312-0.384s-0.672-0.64-0.864-1.056c-0.16-0.416-0.224-0.896-0.128-1.344s0.32-0.864 0.64-1.216c0.32-0.32 0.736-0.544 1.184-0.64 0.448-0.064 0.928-0.032 1.344 0.16 0.448 0.16 0.8 0.448 1.056 0.832s0.384 0.864 0.384 1.312c0 0.608-0.224 1.216-0.672 1.632-0.448 0.448-1.024 0.704-1.632 0.704zM30.656 25.664h-16.064c-0.288-1.056-0.928-1.984-1.792-2.656-0.864-0.64-1.92-1.024-3.008-1.024s-2.176 0.384-3.040 1.024c-0.864 0.672-1.472 1.6-1.76 2.656h-3.648c-0.352 0-0.704 0.128-0.96 0.384s-0.384 0.608-0.384 0.96c0 0.352 0.128 0.672 0.384 0.928s0.608 0.384 0.96 0.384h3.648c0.288 1.056 0.896 1.984 1.76 2.656s1.952 1.024 3.040 1.024c1.088 0 2.144-0.352 3.008-1.024s1.504-1.6 1.792-2.656h16.064c0.352 0 0.704-0.128 0.96-0.384s0.384-0.576 0.384-0.928c0-0.352-0.128-0.704-0.384-0.96s-0.608-0.384-0.96-0.384zM9.792 29.344c-0.48 0-0.928-0.16-1.312-0.416s-0.672-0.608-0.864-1.024c-0.16-0.448-0.224-0.896-0.128-1.376 0.096-0.448 0.32-0.864 0.64-1.184s0.736-0.544 1.184-0.64c0.48-0.096 0.928-0.032 1.344 0.128 0.448 0.192 0.8 0.48 1.056 0.864s0.416 0.832 0.416 1.312c-0.032 0.608-0.256 1.216-0.704 1.632-0.448 0.448-1.024 0.704-1.632 0.704z"></path>
</svg>
