<!-- Generated by IcoMoon.io -->
<svg version="1.1" xmlns="http://www.w3.org/2000/svg" width="32" height="32" viewBox="0 0 32 32">
<path d="M16 10.656c-1.056 0-2.080 0.32-2.976 0.896-0.864 0.608-1.536 1.44-1.952 2.4-0.416 0.992-0.512 2.048-0.288 3.072 0.192 1.056 0.704 1.984 1.44 2.752 0.768 0.736 1.696 1.248 2.752 1.44 1.024 0.224 2.080 0.128 3.072-0.288 0.96-0.416 1.792-1.088 2.4-1.952 0.576-0.896 0.896-1.92 0.896-2.976 0-1.408-0.576-2.784-1.568-3.776s-2.368-1.568-3.776-1.568zM16 18.656c-0.512 0-1.056-0.16-1.472-0.448-0.448-0.288-0.8-0.704-0.992-1.184s-0.256-1.024-0.16-1.536c0.128-0.512 0.352-0.992 0.736-1.376s0.864-0.64 1.376-0.736c0.512-0.096 1.056-0.032 1.536 0.16s0.896 0.544 1.184 0.992c0.288 0.416 0.448 0.928 0.448 1.472 0 0.704-0.256 1.376-0.768 1.888s-1.184 0.768-1.888 0.768zM28.384 18.528l-0.576-0.352c0.256-1.44 0.256-2.912 0-4.384l0.576-0.32c0.48-0.288 0.864-0.608 1.184-1.024s0.544-0.896 0.704-1.408c0.128-0.512 0.16-1.056 0.096-1.568s-0.256-1.024-0.512-1.472c-0.256-0.448-0.608-0.864-1.024-1.184s-0.896-0.544-1.408-0.672c-0.512-0.16-1.024-0.192-1.536-0.128-0.544 0.096-1.024 0.256-1.504 0.512l-0.576 0.352c-1.12-0.96-2.432-1.696-3.808-2.208v-0.672c0-1.056-0.416-2.080-1.184-2.816-0.736-0.768-1.76-1.184-2.816-1.184s-2.080 0.416-2.816 1.184c-0.768 0.736-1.184 1.76-1.184 2.816v0.672c-1.376 0.512-2.688 1.248-3.808 2.208l-0.576-0.352c-0.928-0.512-2.016-0.672-3.040-0.384-1.024 0.256-1.888 0.928-2.432 1.856s-0.672 2.016-0.416 3.040c0.288 1.024 0.96 1.888 1.888 2.432l0.576 0.32c-0.256 1.472-0.256 2.944 0 4.416l-0.576 0.32c-0.928 0.544-1.6 1.408-1.888 2.432-0.256 1.024-0.128 2.112 0.416 3.040s1.408 1.6 2.432 1.856c1.024 0.288 2.112 0.128 3.040-0.384l0.576-0.352c1.12 0.96 2.432 1.696 3.808 2.208v0.672c0 1.056 0.416 2.080 1.184 2.816 0.736 0.768 1.76 1.184 2.816 1.184s2.080-0.416 2.816-1.184c0.768-0.736 1.184-1.76 1.184-2.816v-0.672c1.376-0.512 2.688-1.248 3.808-2.208l0.576 0.352c0.928 0.512 2.016 0.672 3.040 0.384 1.024-0.256 1.92-0.928 2.432-1.856 0.544-0.928 0.672-2.016 0.416-3.040-0.288-1.024-0.96-1.888-1.888-2.432v0zM24.992 13.504c0.448 1.632 0.448 3.36 0 4.992-0.064 0.288-0.064 0.576 0.064 0.864 0.096 0.256 0.288 0.512 0.544 0.64l1.472 0.832c0.288 0.192 0.512 0.48 0.608 0.832 0.096 0.32 0.032 0.704-0.128 0.992-0.192 0.32-0.48 0.544-0.8 0.64-0.352 0.096-0.704 0.032-1.024-0.128l-1.44-0.864c-0.256-0.128-0.576-0.192-0.864-0.16s-0.544 0.192-0.768 0.384c-1.184 1.216-2.688 2.080-4.32 2.496-0.288 0.096-0.544 0.256-0.736 0.48-0.16 0.256-0.256 0.512-0.256 0.832v1.664c0 0.352-0.16 0.704-0.416 0.96-0.224 0.224-0.576 0.384-0.928 0.384s-0.704-0.16-0.928-0.384c-0.256-0.256-0.416-0.608-0.416-0.96v-1.664c0-0.288-0.096-0.576-0.256-0.832-0.192-0.224-0.448-0.384-0.736-0.48-1.632-0.416-3.136-1.28-4.32-2.496-0.224-0.192-0.48-0.352-0.768-0.384s-0.608 0.032-0.864 0.16l-1.44 0.832c-0.16 0.096-0.32 0.16-0.48 0.192-0.192 0-0.352 0-0.544-0.032-0.16-0.064-0.32-0.128-0.448-0.224-0.16-0.128-0.256-0.256-0.352-0.416s-0.16-0.32-0.16-0.48c-0.032-0.192-0.032-0.352 0.032-0.512 0.032-0.192 0.128-0.352 0.224-0.48 0.128-0.128 0.256-0.256 0.416-0.352l1.44-0.832c0.256-0.16 0.448-0.384 0.544-0.64 0.128-0.288 0.128-0.576 0.064-0.864-0.448-1.632-0.448-3.36 0-4.992 0.064-0.288 0.064-0.608-0.064-0.864-0.096-0.288-0.288-0.512-0.544-0.64l-1.472-0.832c-0.288-0.192-0.512-0.48-0.608-0.832-0.096-0.32-0.032-0.704 0.128-0.992 0.192-0.32 0.48-0.544 0.832-0.64 0.32-0.096 0.704-0.032 0.992 0.128l1.44 0.832c0.256 0.16 0.576 0.224 0.864 0.192s0.544-0.192 0.768-0.384c1.184-1.216 2.688-2.080 4.32-2.496 0.288-0.096 0.544-0.256 0.736-0.48 0.16-0.256 0.256-0.544 0.256-0.832v-1.664c0-0.352 0.16-0.704 0.416-0.96 0.224-0.224 0.576-0.384 0.928-0.384s0.704 0.16 0.96 0.384c0.224 0.256 0.384 0.608 0.384 0.96v1.664c0 0.288 0.096 0.576 0.256 0.832 0.192 0.224 0.448 0.384 0.736 0.448 1.632 0.448 3.136 1.312 4.32 2.528 0.224 0.192 0.48 0.352 0.768 0.384s0.608-0.032 0.864-0.16l1.44-0.832c0.16-0.096 0.32-0.16 0.48-0.192 0.192-0.032 0.352 0 0.544 0.032 0.16 0.064 0.32 0.128 0.448 0.224 0.16 0.128 0.256 0.256 0.352 0.416 0.096 0.128 0.16 0.32 0.16 0.48 0.032 0.192 0.032 0.352-0.032 0.512-0.032 0.192-0.128 0.352-0.224 0.48s-0.256 0.256-0.384 0.352l-1.472 0.832c-0.256 0.128-0.448 0.384-0.544 0.64-0.128 0.288-0.128 0.576-0.064 0.864v0z"></path>
</svg>
