<!-- Generated by IcoMoon.io -->
<svg version="1.1" xmlns="http://www.w3.org/2000/svg" width="32" height="32" viewBox="0 0 32 32">
<path d="M25.792 19.552c-1.024 0-2.016 0.256-2.912 0.704-0.896 0.48-1.664 1.152-2.208 1.984l-8.704-3.904c0.64-1.504 0.64-3.168 0.032-4.64l8.64-3.936c0.864 1.216 2.112 2.080 3.552 2.464s2.976 0.224 4.288-0.416c1.344-0.672 2.4-1.76 2.976-3.136 0.608-1.376 0.672-2.912 0.224-4.32-0.416-1.408-1.376-2.624-2.624-3.424-1.248-0.768-2.752-1.088-4.224-0.864s-2.816 0.992-3.776 2.112c-0.96 1.12-1.504 2.56-1.504 4.032 0 0.352 0.032 0.704 0.096 1.056l-9.216 4.192c-0.864-0.832-1.984-1.376-3.168-1.6-1.216-0.192-2.432-0.064-3.552 0.416-1.088 0.48-2.048 1.28-2.72 2.304s-1.024 2.208-1.024 3.424c0 1.184 0.352 2.368 1.024 3.392 0.64 1.024 1.6 1.824 2.72 2.304 1.088 0.48 2.336 0.64 3.52 0.448 1.184-0.224 2.304-0.768 3.2-1.6l9.216 4.192c-0.064 0.352-0.096 0.704-0.096 1.024 0 1.248 0.384 2.464 1.056 3.488s1.664 1.824 2.784 2.272c1.152 0.48 2.4 0.608 3.616 0.352 1.184-0.224 2.304-0.832 3.168-1.696s1.472-1.984 1.696-3.2c0.256-1.184 0.128-2.432-0.352-3.584-0.448-1.12-1.248-2.112-2.272-2.784-1.024-0.704-2.24-1.056-3.456-1.056zM25.792 2.656c0.704 0 1.376 0.224 1.952 0.608 0.608 0.384 1.056 0.96 1.312 1.6 0.288 0.64 0.352 1.376 0.224 2.048-0.16 0.704-0.48 1.312-0.992 1.824-0.48 0.512-1.12 0.832-1.824 0.96-0.672 0.16-1.408 0.064-2.048-0.192s-1.216-0.736-1.6-1.312c-0.384-0.576-0.576-1.28-0.576-1.984 0-0.928 0.352-1.824 1.024-2.496s1.568-1.056 2.528-1.056zM6.24 19.552c-0.704 0-1.408-0.192-1.984-0.608-0.608-0.384-1.056-0.928-1.312-1.568-0.288-0.672-0.352-1.376-0.224-2.080 0.16-0.672 0.48-1.312 0.992-1.824 0.48-0.48 1.12-0.832 1.824-0.96 0.672-0.128 1.408-0.064 2.048 0.192 0.64 0.288 1.216 0.736 1.6 1.312s0.608 1.28 0.608 1.984c0 0.928-0.384 1.856-1.056 2.496-0.672 0.672-1.568 1.056-2.496 1.056zM25.792 29.344c-0.704 0-1.408-0.224-1.984-0.608s-1.056-0.96-1.312-1.6c-0.256-0.64-0.352-1.376-0.192-2.048 0.128-0.704 0.448-1.344 0.96-1.824 0.512-0.512 1.12-0.832 1.824-0.96 0.672-0.16 1.408-0.096 2.048 0.192 0.64 0.256 1.216 0.704 1.6 1.312 0.384 0.576 0.608 1.28 0.608 1.952 0 0.96-0.384 1.856-1.056 2.528s-1.568 1.056-2.496 1.056z"></path>
</svg>
