<!-- Generated by IcoMoon.io -->
<svg version="1.1" xmlns="http://www.w3.org/2000/svg" width="32" height="32" viewBox="0 0 32 32">
<path d="M30.272 5.44c-0.739-0.882-1.84-1.44-3.072-1.44h-21.536l-0.064-0.48c-0.248-1.992-1.929-3.518-3.968-3.52h-0.288c-0.648 0.104-1.137 0.659-1.137 1.328s0.489 1.224 1.13 1.327l0.008 0.001h0.288c0.676 0.012 1.23 0.521 1.311 1.177l0.001 0.007 1.856 15.616c0.398 3.331 3.206 5.888 6.612 5.888 0.004 0 0.009 0 0.013 0h13.919c0.742 0 1.344-0.602 1.344-1.344s-0.602-1.344-1.344-1.344v0h-13.92c-0.003 0-0.006 0-0.009 0-1.727 0-3.199-1.095-3.759-2.628l-0.009-0.028h15.904c0.003 0 0.007 0 0.010 0 3.258 0 5.968-2.34 6.544-5.431l0.006-0.041 1.056-5.824c0.036-0.202 0.057-0.435 0.057-0.673 0-0.991-0.36-1.898-0.958-2.597l0.005 0.006zM28.544 8.224l-1.056 5.824c-0.346 1.885-1.976 3.295-3.936 3.296h-16.32l-1.248-10.688h21.216c0.006-0 0.012-0 0.019-0 0.742 0 1.344 0.602 1.344 1.344 0 0.079-0.007 0.157-0.020 0.232l0.001-0.008zM12 29.344c0 1.476-1.196 2.672-2.672 2.672s-2.672-1.196-2.672-2.672v0c0-1.476 1.196-2.672 2.672-2.672s2.672 1.196 2.672 2.672v0zM25.344 29.344c0 1.476-1.196 2.672-2.672 2.672s-2.672-1.196-2.672-2.672v0c0-1.476 1.196-2.672 2.672-2.672s2.672 1.196 2.672 2.672v0z"></path>
</svg>
