<!-- Generated by IcoMoon.io -->
<svg version="1.1" xmlns="http://www.w3.org/2000/svg" width="32" height="32" viewBox="0 0 32 32">
<path d="M30.368 10.304c-0.64-0.736-1.408-1.312-2.272-1.696-0.864-0.416-1.792-0.608-2.752-0.608h-5.312l0.448-2.72c0.128-0.96-0.064-1.952-0.544-2.784-0.512-0.832-1.312-1.44-2.24-1.728-0.928-0.32-1.92-0.256-2.816 0.128s-1.6 1.056-2.048 1.92l-2.56 5.184h-3.616c-1.76 0-3.456 0.704-4.704 1.952s-1.952 2.944-1.952 4.704v6.688c0 1.76 0.704 3.456 1.952 4.704s2.944 1.952 4.704 1.952h17.76c1.6 0 3.136-0.576 4.352-1.632s2.016-2.528 2.24-4.096l0.928-6.688c0.128-0.928 0.064-1.888-0.192-2.816-0.288-0.896-0.736-1.76-1.376-2.464zM2.656 21.344v-6.688c0-1.056 0.448-2.080 1.184-2.816 0.736-0.768 1.76-1.184 2.816-1.184h2.688v14.688h-2.688c-1.056 0-2.080-0.448-2.816-1.184s-1.184-1.76-1.184-2.816zM29.312 15.232l-0.96 6.656c-0.128 0.96-0.608 1.824-1.344 2.464-0.704 0.64-1.632 0.96-2.592 0.992h-12.416v-15.040c0.128-0.096 0.224-0.224 0.32-0.384l2.912-5.92c0.096-0.192 0.256-0.352 0.448-0.48s0.416-0.224 0.64-0.224c0.224-0.032 0.448 0 0.64 0.064 0.224 0.064 0.416 0.192 0.576 0.384 0.128 0.128 0.224 0.32 0.256 0.512 0.064 0.192 0.064 0.384 0.032 0.608l-0.704 4.256c-0.032 0.192 0 0.384 0.032 0.576 0.064 0.192 0.16 0.352 0.288 0.512 0.128 0.128 0.256 0.256 0.448 0.32 0.16 0.096 0.352 0.128 0.544 0.128h6.912c0.576 0 1.12 0.128 1.664 0.384 0.512 0.224 0.96 0.576 1.344 0.992 0.384 0.448 0.672 0.96 0.832 1.504s0.192 1.12 0.128 1.696z"></path>
</svg>
