<!-- Generated by IcoMoon.io -->
<svg version="1.1" xmlns="http://www.w3.org/2000/svg" width="32" height="32" viewBox="0 0 32 32">
<path d="M12.032 23.136c-0.256 0-0.512-0.096-0.736-0.256-0.416-0.288-0.576-0.832-0.416-1.344l1.12-3.68-2.88-2.336c-0.384-0.352-0.544-0.896-0.384-1.376 0.192-0.48 0.64-0.8 1.152-0.8h3.68l1.28-3.456c0.192-0.48 0.64-0.8 1.152-0.8s0.96 0.32 1.152 0.8l1.28 3.456h3.68c0.512 0 0.96 0.32 1.152 0.8s0.032 1.056-0.384 1.376l-2.88 2.368 1.216 3.616c0.16 0.512 0 1.056-0.416 1.376s-0.992 0.32-1.44 0.032l-3.36-2.176-3.296 2.208c-0.192 0.128-0.448 0.192-0.672 0.192zM25.344 32h-18.688c-3.68 0-6.656-2.976-6.656-6.656v-18.688c0-3.68 2.976-6.656 6.656-6.656h18.688c3.68 0 6.656 2.976 6.656 6.656v18.688c0 3.68-2.976 6.656-6.656 6.656zM6.656 2.656c-2.176 0-4 1.824-4 4v18.688c0 2.176 1.824 4 4 4h18.688c2.176 0 4-1.824 4-4v-18.688c0-2.176-1.824-4-4-4h-18.688z"></path>
</svg>
