<!-- Generated by IcoMoon.io -->
<svg version="1.1" xmlns="http://www.w3.org/2000/svg" width="32" height="32" viewBox="0 0 32 32">
<path d="M31.776 11.712c-0.571-1.723-2.167-2.944-4.049-2.944-0.017 0-0.033 0-0.050 0l0.003-0h-5.824l-1.76-5.536c-0.592-1.727-2.201-2.947-4.096-2.947s-3.504 1.22-4.087 2.917l-0.009 0.030-1.76 5.536h-5.824c-2.358 0.036-4.257 1.956-4.257 4.32 0 1.409 0.674 2.66 1.718 3.449l0.011 0.008 4.736 3.456-1.824 5.568c-0.142 0.404-0.224 0.871-0.224 1.356 0 1.435 0.716 2.703 1.81 3.467l0.014 0.009c0.692 0.515 1.563 0.824 2.507 0.824 0.962 0 1.849-0.322 2.56-0.864l-0.010 0.008 4.64-3.424 4.64 3.424c0.702 0.515 1.584 0.824 2.537 0.824 2.386 0 4.32-1.934 4.32-4.32 0-0.466-0.074-0.914-0.21-1.334l0.009 0.031-1.824-5.568 4.768-3.456c1.078-0.775 1.772-2.026 1.772-3.44 0-0.499-0.087-0.978-0.245-1.422l0.009 0.030zM28.672 14.368l-5.536 4.064c-0.329 0.248-0.539 0.638-0.539 1.077 0 0.141 0.022 0.277 0.062 0.405l-0.003-0.010 2.080 6.496c0.048 0.146 0.075 0.315 0.075 0.489 0 0.901-0.731 1.632-1.632 1.632-0.352 0-0.678-0.111-0.944-0.301l0.005 0.003-5.44-4c-0.221-0.165-0.499-0.264-0.8-0.264s-0.579 0.099-0.804 0.267l0.004-0.003-5.408 4c-0.278 0.225-0.635 0.362-1.025 0.362-0.901 0-1.632-0.731-1.632-1.632 0-0.199 0.035-0.389 0.101-0.565l-0.004 0.011 2.112-6.496c0.038-0.118 0.059-0.254 0.059-0.395 0-0.439-0.21-0.829-0.536-1.074l-0.003-0.002-5.504-4.064c-0.403-0.301-0.661-0.776-0.661-1.312 0-0.898 0.725-1.626 1.621-1.632h6.785c0.001 0 0.001 0 0.002 0 0.594 0 1.097-0.385 1.275-0.918l0.003-0.009 2.048-6.432c0.203-0.687 0.828-1.179 1.568-1.179s1.365 0.493 1.565 1.168l0.003 0.012 2.048 6.432c0.181 0.543 0.684 0.928 1.278 0.928 0.001 0 0.001 0 0.002 0h6.816c0.897 0.006 1.621 0.734 1.621 1.632 0 0.536-0.258 1.011-0.657 1.309l-0.004 0.003z"></path>
</svg>
