<!-- Generated by IcoMoon.io -->
<svg version="1.1" xmlns="http://www.w3.org/2000/svg" width="32" height="32" viewBox="0 0 32 32">
<path d="M32 10.656c0-0.128 0-0.224-0.064-0.352l-1.536-5.472c-0.832-2.848-3.456-4.832-6.432-4.832h-15.936c-2.976 0-5.6 1.984-6.432 4.832l-1.536 5.472c-0.032 0.128-0.064 0.224-0.064 0.352 0 1.344 0.512 2.592 1.344 3.52v12.48c0 2.944 2.368 5.344 5.312 5.344h8c2.944 0 5.344-2.4 5.344-5.344v-11.36c0.512-0.32 0.96-0.672 1.344-1.12 0.96 1.12 2.4 1.824 4 1.824h1.312c0.48 0 0.928-0.064 1.344-0.16v14.816c0 0.736 0.608 1.344 1.344 1.344s1.312-0.608 1.312-1.344v-16.48c0.832-0.928 1.344-2.176 1.344-3.52zM14.656 29.344h-8c-1.472 0-2.656-1.216-2.656-2.688v-2.656h13.344v2.656c0 1.472-1.216 2.688-2.688 2.688zM17.344 21.344h-13.344v-5.504c0.416 0.096 0.864 0.16 1.344 0.16h1.312c1.6 0 3.040-0.704 4-1.824 0.992 1.12 2.432 1.824 4 1.824h2.688v5.344zM25.344 13.344c-1.472 0-2.688-1.216-2.688-2.688 0-0.736-0.576-1.312-1.312-1.312s-1.344 0.576-1.344 1.312c0 1.472-1.184 2.688-2.656 2.688h-2.688c-1.472 0-2.656-1.216-2.656-2.688 0-0.736-0.608-1.312-1.344-1.312s-1.312 0.576-1.312 1.312c0 1.472-1.216 2.688-2.688 2.688h-1.312c-0.672 0-1.248-0.256-1.728-0.64-0.032-0.032-0.064-0.064-0.128-0.096-0.448-0.448-0.768-1.088-0.8-1.76l1.504-5.28c0.48-1.696 2.048-2.912 3.84-2.912h1.312v2.688c0 0.736 0.576 1.312 1.312 1.312s1.344-0.576 1.344-1.312v-2.688h8v2.688c0 0.736 0.608 1.312 1.344 1.312s1.312-0.576 1.312-1.312v-2.688h1.312c1.792 0 3.36 1.216 3.872 2.912l1.504 5.28c-0.096 1.376-1.248 2.496-2.688 2.496h-1.312z"></path>
</svg>
