<!-- Generated by IcoMoon.io -->
<svg version="1.1" xmlns="http://www.w3.org/2000/svg" width="32" height="32" viewBox="0 0 32 32">
<path d="M30.368 10.304c-0.64-0.736-1.408-1.312-2.272-1.696-0.864-0.416-1.792-0.608-2.752-0.608h-5.312l0.448-2.72c0.128-0.96-0.064-1.952-0.544-2.784-0.512-0.832-1.312-1.44-2.24-1.728-0.928-0.32-1.92-0.256-2.816 0.128s-1.6 1.056-2.048 1.92l-2.176 4.416v20.768h13.76c1.6 0 3.136-0.576 4.352-1.632s2.016-2.528 2.24-4.096l0.928-6.688c0.128-0.928 0.064-1.888-0.192-2.816-0.288-0.896-0.736-1.76-1.376-2.464zM0 14.656v6.688c0 1.76 0.704 3.456 1.952 4.704s2.944 1.952 4.704 1.952h1.344v-20h-1.344c-1.76 0-3.456 0.704-4.704 1.952s-1.952 2.944-1.952 4.704z"></path>
</svg>
