<!-- Generated by IcoMoon.io -->
<svg version="1.1" xmlns="http://www.w3.org/2000/svg" width="32" height="32" viewBox="0 0 32 32">
<path d="M1.344 32c0.352 0 0.672-0.128 0.928-0.384l8.832-8.832 1.664 1.728c1.248 1.312 2.976 2.080 4.8 2.144 0.608 0 1.216-0.096 1.792-0.288 0.896-0.32 1.664-0.864 2.24-1.6 0.576-0.768 0.928-1.632 0.992-2.592 0.16-1.344 0.064-2.688-0.288-4.032l-0.288-1.376c-0.032-0.224-0.032-0.448 0.032-0.672s0.16-0.416 0.32-0.576l2.112-2.144c0.096-0.064 0.224-0.128 0.32-0.128 0.064 0 0.096 0 0.128 0.032 0.032 0 0.064 0.032 0.096 0.064 0.672 0.704 1.568 1.152 2.56 1.28 0.96 0.096 1.92-0.16 2.752-0.704 0.448-0.352 0.864-0.768 1.152-1.28s0.448-1.056 0.512-1.632c0.032-0.608-0.032-1.184-0.256-1.728-0.192-0.544-0.512-1.024-0.928-1.44l-6.56-6.56c-0.672-0.704-1.568-1.12-2.528-1.216s-1.92 0.128-2.72 0.672c-0.448 0.352-0.864 0.768-1.152 1.28s-0.448 1.056-0.512 1.632c-0.032 0.608 0.032 1.184 0.224 1.728 0.224 0.544 0.544 1.024 0.928 1.44l0.128 0.096c0.064 0.096 0.096 0.192 0.096 0.288 0 0.128-0.032 0.224-0.096 0.288l-2.144 2.144c-0.16 0.16-0.352 0.288-0.576 0.352s-0.48 0.064-0.704 0l-1.088-0.288c-1.344-0.352-2.72-0.448-4.096-0.288-0.992 0.096-1.92 0.48-2.688 1.088s-1.344 1.408-1.664 2.336c-0.352 0.96-0.416 2.016-0.192 3.008s0.704 1.888 1.44 2.592l2.336 2.432-8.864 8.864c-0.192 0.192-0.32 0.416-0.352 0.672-0.064 0.256-0.032 0.544 0.064 0.768 0.096 0.256 0.288 0.448 0.512 0.608 0.192 0.16 0.448 0.224 0.736 0.224zM8.192 13.728c0.128-0.448 0.416-0.864 0.8-1.152 0.352-0.288 0.832-0.48 1.28-0.544 0.32-0.032 0.64-0.032 0.928-0.032 0.768 0 1.504 0.096 2.24 0.288l1.12 0.288c0.672 0.16 1.376 0.16 2.048-0.032 0.64-0.192 1.28-0.544 1.76-1.024l2.144-2.144c0.576-0.576 0.896-1.344 0.896-2.176 0-0.8-0.32-1.6-0.896-2.176l-0.128-0.096c-0.128-0.128-0.224-0.288-0.288-0.48s-0.096-0.384-0.096-0.576c0.032-0.192 0.096-0.384 0.192-0.544s0.224-0.32 0.384-0.416c0.288-0.192 0.608-0.256 0.96-0.192 0.32 0.032 0.608 0.192 0.832 0.448l6.592 6.56c0.128 0.128 0.224 0.288 0.288 0.48s0.096 0.384 0.096 0.576c-0.032 0.192-0.096 0.384-0.192 0.544s-0.224 0.32-0.384 0.416c-0.288 0.192-0.64 0.256-0.96 0.192-0.32-0.032-0.64-0.192-0.864-0.448-0.288-0.288-0.608-0.512-0.96-0.672-0.352-0.128-0.768-0.224-1.152-0.224-0.832 0-1.632 0.32-2.208 0.928l-2.112 2.112c-0.48 0.48-0.832 1.056-1.024 1.728-0.192 0.64-0.224 1.344-0.064 1.984l0.288 1.408c0.288 1.056 0.352 2.112 0.256 3.168-0.032 0.416-0.192 0.832-0.448 1.184-0.288 0.352-0.64 0.608-1.056 0.736-0.672 0.192-1.376 0.16-2.048-0.032-0.672-0.224-1.28-0.64-1.728-1.152l-5.888-6.080c-0.352-0.352-0.608-0.832-0.736-1.344-0.096-0.48-0.064-1.024 0.128-1.504z"></path>
</svg>
