<!-- Generated by IcoMoon.io -->
<svg version="1.1" xmlns="http://www.w3.org/2000/svg" width="32" height="32" viewBox="0 0 32 32">
<path d="M16 0c-4.104 0.006-7.845 1.56-10.67 4.109l0.014-0.013v-2.752c0-0.742-0.602-1.344-1.344-1.344s-1.344 0.602-1.344 1.344v0 4c0 2.209 1.791 4 4 4v0h4c0.742 0 1.344-0.602 1.344-1.344s-0.602-1.344-1.344-1.344v0h-4c-0.051-0.010-0.094-0.021-0.136-0.034l0.008 0.002c2.412-2.425 5.751-3.926 9.44-3.926 7.352 0 13.312 5.96 13.312 13.312s-5.96 13.312-13.312 13.312c-7.352 0-13.312-5.96-13.312-13.312 0-0.003 0-0.007 0-0.011v0.001c-0.104-0.648-0.659-1.137-1.328-1.137s-1.224 0.489-1.327 1.13l-0.001 0.008c0 8.837 7.163 16 16 16s16-7.163 16-16c0-8.837-7.163-16-16-16v0zM16 8c-0.742 0-1.344 0.602-1.344 1.344v0 6.656c0.013 0.366 0.17 0.693 0.415 0.927l0.001 0 4 4c0.227 0.181 0.518 0.29 0.834 0.29 0.742 0 1.344-0.602 1.344-1.344 0-0.316-0.109-0.607-0.292-0.837l0.002 0.003-3.616-3.584v-6.112c0-0.742-0.602-1.344-1.344-1.344v0z"></path>
</svg>
