<!-- Generated by IcoMoon.io -->
<svg version="1.1" xmlns="http://www.w3.org/2000/svg" width="32" height="32" viewBox="0 0 32 32">
<path d="M32 16c0 4.256-1.696 8.32-4.672 11.328-3.008 2.976-7.072 4.672-11.328 4.672s-8.32-1.696-11.328-4.672c-2.976-3.008-4.672-7.072-4.672-11.328 0-0.352 0.128-0.704 0.384-0.96 0.256-0.224 0.608-0.384 0.96-0.384s0.672 0.16 0.928 0.384c0.256 0.256 0.384 0.608 0.384 0.96 0 2.624 0.8 5.216 2.272 7.392 1.44 2.208 3.52 3.904 5.984 4.928 2.432 1.024 5.12 1.28 7.68 0.768 2.592-0.512 4.96-1.792 6.848-3.648 1.856-1.888 3.136-4.256 3.648-6.848s0.256-5.248-0.768-7.712c-1.024-2.432-2.72-4.512-4.896-5.952-2.208-1.472-4.8-2.272-7.424-2.272-0.352 0-0.704-0.128-0.928-0.384-0.256-0.256-0.416-0.576-0.416-0.928s0.16-0.704 0.416-0.96c0.224-0.256 0.576-0.384 0.928-0.384 4.256 0 8.32 1.696 11.296 4.704 3.008 2.976 4.704 7.040 4.704 11.296zM13.696 14.656h-3.040c-0.352 0-0.672 0.16-0.928 0.384-0.256 0.256-0.384 0.608-0.384 0.96s0.128 0.704 0.384 0.928c0.256 0.256 0.576 0.416 0.928 0.416h3.040c0.224 0.352 0.48 0.64 0.832 0.864s0.736 0.384 1.12 0.448c0.416 0.032 0.832 0 1.216-0.128s0.736-0.352 1.024-0.64c0.288-0.288 0.512-0.64 0.64-1.024s0.16-0.8 0.128-1.216c-0.064-0.384-0.224-0.768-0.448-1.12s-0.512-0.608-0.864-0.832v-4.352c0-0.352-0.16-0.704-0.384-0.96-0.256-0.256-0.608-0.384-0.96-0.384s-0.704 0.128-0.928 0.384c-0.256 0.256-0.416 0.608-0.416 0.96v4.352c-0.384 0.224-0.704 0.576-0.96 0.96zM2.432 11.712c0.256 0 0.512-0.064 0.736-0.224s0.416-0.352 0.512-0.608c0.096-0.224 0.128-0.512 0.064-0.768s-0.192-0.48-0.352-0.672c-0.192-0.192-0.448-0.32-0.704-0.384-0.256-0.032-0.512 0-0.768 0.096-0.224 0.096-0.448 0.256-0.576 0.48-0.16 0.224-0.224 0.48-0.224 0.736 0 0.352 0.128 0.704 0.384 0.96s0.576 0.384 0.928 0.384zM5.632 6.944c0.256 0 0.512-0.096 0.736-0.224 0.224-0.16 0.384-0.352 0.48-0.608 0.128-0.224 0.128-0.512 0.096-0.768-0.064-0.256-0.192-0.48-0.384-0.672-0.16-0.192-0.416-0.32-0.672-0.384-0.256-0.032-0.512 0-0.768 0.096s-0.448 0.256-0.608 0.48c-0.128 0.224-0.224 0.48-0.224 0.736 0 0.352 0.16 0.704 0.384 0.96 0.256 0.256 0.608 0.384 0.96 0.384zM10.368 3.776c0.256 0 0.512-0.064 0.736-0.224 0.224-0.128 0.416-0.352 0.512-0.576 0.096-0.256 0.128-0.512 0.064-0.768-0.064-0.288-0.192-0.512-0.352-0.704-0.192-0.192-0.448-0.32-0.704-0.352-0.256-0.064-0.512-0.032-0.768 0.064-0.224 0.096-0.448 0.288-0.576 0.512-0.16 0.192-0.224 0.448-0.224 0.736 0 0.352 0.128 0.672 0.384 0.928s0.576 0.384 0.928 0.384z"></path>
</svg>
