<!-- Generated by IcoMoon.io -->
<svg version="1.1" xmlns="http://www.w3.org/2000/svg" width="32" height="32" viewBox="0 0 32 32">
<path d="M20.96 15.616l-3.072 3.040 3.072 3.072c0.512 0.512 0.512 1.344 0 1.888-0.288 0.256-0.608 0.384-0.96 0.384s-0.672-0.128-0.928-0.384l-3.072-3.072-3.040 3.072c-0.288 0.256-0.608 0.384-0.96 0.384s-0.672-0.128-0.928-0.384c-0.544-0.544-0.544-1.376 0-1.888l3.040-3.072-3.040-3.040c-0.544-0.544-0.544-1.376 0-1.888s1.344-0.512 1.888 0l3.040 3.040 3.072-3.040c0.512-0.512 1.344-0.512 1.888 0s0.512 1.344 0 1.888zM30.656 6.656c0 0.736-0.576 1.344-1.312 1.344h-1.184l-1.696 17.952c-0.352 3.456-3.2 6.048-6.656 6.048h-7.616c-3.456 0-6.304-2.592-6.656-6.016l-1.728-17.984h-1.152c-0.736 0-1.312-0.608-1.312-1.344s0.576-1.312 1.312-1.312h5.472c0.64-3.040 3.328-5.344 6.528-5.344h2.688c3.2 0 5.92 2.304 6.528 5.344h5.472c0.736 0 1.312 0.576 1.312 1.312zM10.912 5.344h10.208c-0.576-1.568-2.048-2.688-3.776-2.688h-2.688c-1.728 0-3.2 1.12-3.744 2.688zM25.472 8h-18.976l1.696 17.728c0.192 2.048 1.92 3.616 4 3.616h7.616c2.080 0 3.808-1.568 4-3.648l1.664-17.696z"></path>
</svg>
