<!-- Generated by IcoMoon.io -->
<svg version="1.1" xmlns="http://www.w3.org/2000/svg" width="32" height="32" viewBox="0 0 32 32">
<path d="M16 0c-8.832 0-16 7.168-16 16s7.168 16 16 16 16-7.168 16-16-7.168-16-16-16zM16 29.344c-7.36 0-13.344-5.984-13.344-13.344s5.984-13.344 13.344-13.344 13.344 5.984 13.344 13.344-5.984 13.344-13.344 13.344zM21.344 18.656c0 2.208-1.792 4-4 4v1.344c0 0.736-0.608 1.344-1.344 1.344s-1.344-0.608-1.344-1.344v-1.344h-0.352c-1.408 0-2.752-0.768-3.456-1.984-0.384-0.64-0.16-1.472 0.48-1.824 0.64-0.384 1.472-0.16 1.824 0.48 0.256 0.416 0.672 0.672 1.152 0.672h3.040c0.736 0 1.312-0.608 1.312-1.344 0-0.48-0.352-0.928-0.832-0.992l-4.064-0.704c-1.792-0.288-3.104-1.824-3.104-3.616 0-2.208 1.792-4 4-4v-1.344c0-0.736 0.608-1.344 1.344-1.344s1.344 0.608 1.344 1.344v1.344h0.352c1.408 0 2.752 0.768 3.456 1.984 0.384 0.64 0.16 1.44-0.48 1.824s-1.472 0.16-1.824-0.48c-0.224-0.416-0.672-0.672-1.152-0.672h-3.040c-0.736 0-1.312 0.608-1.312 1.344 0 0.48 0.352 0.928 0.864 0.992l4.032 0.672c1.792 0.32 3.104 1.856 3.104 3.648z"></path>
</svg>
