<!-- Generated by IcoMoon.io -->
<svg version="1.1" xmlns="http://www.w3.org/2000/svg" width="32" height="32" viewBox="0 0 32 32">
<path d="M16 21.344c-1.056 0-2.080-0.32-2.976-0.896-0.864-0.608-1.536-1.44-1.952-2.4-0.416-0.992-0.512-2.048-0.288-3.104 0.192-1.024 0.704-1.984 1.44-2.72 0.768-0.736 1.696-1.248 2.752-1.472 1.024-0.192 2.080-0.096 3.072 0.32 0.96 0.416 1.792 1.088 2.4 1.952 0.576 0.896 0.896 1.92 0.896 2.976 0 1.408-0.576 2.784-1.568 3.776s-2.368 1.568-3.776 1.568zM16 13.344c-0.512 0-1.056 0.16-1.472 0.448-0.448 0.288-0.8 0.704-0.992 1.184s-0.256 1.024-0.16 1.536c0.128 0.512 0.352 0.992 0.736 1.376s0.864 0.608 1.376 0.736c0.512 0.096 1.056 0.032 1.536-0.16s0.896-0.544 1.184-0.992c0.288-0.416 0.448-0.96 0.448-1.472 0-0.704-0.256-1.376-0.768-1.888s-1.184-0.768-1.888-0.768zM24 30.656c0-2.112-0.832-4.16-2.336-5.632-1.504-1.504-3.552-2.368-5.664-2.368s-4.16 0.864-5.664 2.368c-1.504 1.472-2.336 3.52-2.336 5.632 0 0.352 0.128 0.704 0.384 0.96s0.608 0.384 0.96 0.384c0.352 0 0.672-0.128 0.928-0.384s0.384-0.608 0.384-0.96c0-1.408 0.576-2.752 1.568-3.776 0.992-0.992 2.368-1.536 3.776-1.536s2.784 0.544 3.776 1.536c0.992 1.024 1.568 2.368 1.568 3.776 0 0.352 0.128 0.704 0.384 0.96s0.576 0.384 0.928 0.384c0.352 0 0.704-0.128 0.96-0.384s0.384-0.608 0.384-0.96zM24 10.656c-1.056 0-2.080-0.288-2.976-0.896-0.864-0.576-1.536-1.408-1.952-2.4-0.416-0.96-0.512-2.048-0.288-3.072 0.192-1.024 0.704-1.984 1.44-2.72 0.768-0.768 1.696-1.248 2.752-1.472 1.024-0.192 2.080-0.096 3.072 0.32 0.96 0.384 1.792 1.088 2.4 1.952 0.576 0.864 0.896 1.92 0.896 2.976 0 1.408-0.576 2.752-1.568 3.744-0.992 1.024-2.368 1.568-3.776 1.568zM24 2.656c-0.512 0-1.056 0.16-1.472 0.448-0.448 0.288-0.8 0.704-0.992 1.216-0.192 0.48-0.256 1.024-0.16 1.536 0.128 0.512 0.352 0.992 0.736 1.376 0.384 0.352 0.864 0.608 1.376 0.704 0.512 0.128 1.056 0.064 1.536-0.128 0.48-0.224 0.896-0.544 1.184-0.992s0.448-0.96 0.448-1.472c0-0.704-0.256-1.408-0.768-1.888-0.512-0.512-1.184-0.8-1.888-0.8zM32 20c0-2.112-0.832-4.16-2.336-5.664s-3.552-2.336-5.664-2.336c-0.352 0-0.704 0.128-0.928 0.384-0.256 0.256-0.416 0.608-0.416 0.96s0.16 0.672 0.416 0.928c0.224 0.256 0.576 0.384 0.928 0.384 1.408 0 2.784 0.576 3.776 1.568s1.568 2.368 1.568 3.776c0 0.352 0.128 0.704 0.384 0.928 0.256 0.256 0.576 0.416 0.928 0.416s0.704-0.16 0.96-0.416c0.256-0.224 0.384-0.576 0.384-0.928zM8 10.656c-1.056 0-2.080-0.288-2.976-0.896-0.864-0.576-1.536-1.408-1.952-2.4-0.416-0.96-0.512-2.048-0.288-3.072 0.192-1.024 0.704-1.984 1.44-2.72 0.768-0.768 1.696-1.248 2.752-1.472 1.024-0.192 2.080-0.096 3.072 0.32 0.96 0.384 1.792 1.088 2.4 1.952 0.576 0.864 0.896 1.92 0.896 2.976 0 1.408-0.576 2.752-1.568 3.744-0.992 1.024-2.368 1.568-3.776 1.568zM8 2.656c-0.512 0-1.056 0.16-1.472 0.448-0.448 0.288-0.8 0.704-0.992 1.216-0.192 0.48-0.256 1.024-0.16 1.536 0.128 0.512 0.352 0.992 0.736 1.376 0.384 0.352 0.864 0.608 1.376 0.704 0.512 0.128 1.056 0.064 1.536-0.128 0.48-0.224 0.896-0.544 1.184-0.992s0.448-0.96 0.448-1.472c0-0.704-0.256-1.408-0.768-1.888-0.512-0.512-1.184-0.8-1.888-0.8zM2.656 20c0-1.408 0.576-2.784 1.568-3.776s2.368-1.568 3.776-1.568c0.352 0 0.704-0.128 0.96-0.384 0.224-0.256 0.384-0.576 0.384-0.928s-0.16-0.704-0.384-0.96c-0.256-0.256-0.608-0.384-0.96-0.384-2.112 0-4.16 0.832-5.664 2.336s-2.336 3.552-2.336 5.664c0 0.352 0.128 0.704 0.384 0.928 0.256 0.256 0.608 0.416 0.96 0.416s0.672-0.16 0.928-0.416c0.256-0.224 0.384-0.576 0.384-0.928z"></path>
</svg>
