<!-- Generated by IcoMoon.io -->
<svg version="1.1" xmlns="http://www.w3.org/2000/svg" width="32" height="32" viewBox="0 0 32 32">
<path d="M12 16c4.416 0 8-3.584 8-8s-3.584-8-8-8-8 3.584-8 8 3.584 8 8 8zM12 2.656c2.944 0 5.344 2.4 5.344 5.344s-2.4 5.344-5.344 5.344-5.344-2.4-5.344-5.344 2.4-5.344 5.344-5.344zM14.336 21.632c-0.768-0.192-1.536-0.288-2.336-0.288-5.152 0-9.344 4.16-9.344 9.312 0 0.736-0.576 1.344-1.312 1.344s-1.344-0.608-1.344-1.344c0-6.592 5.376-12 12-12 1.024 0 2.016 0.128 3.008 0.384 0.704 0.192 1.12 0.928 0.96 1.632-0.192 0.704-0.928 1.152-1.632 0.96zM30.816 15.84c-1.504-1.504-4.128-1.504-5.632 0l-8.96 8.928c-0.992 1.024-1.568 2.368-1.568 3.776v2.112c0 0.736 0.608 1.344 1.344 1.344h2.112c1.44 0 2.752-0.544 3.776-1.568l8.928-8.928c0.768-0.768 1.184-1.76 1.184-2.848s-0.416-2.080-1.184-2.816zM28.928 19.616l-8.928 8.928c-0.512 0.512-1.184 0.8-1.888 0.8h-0.768v-0.8c0-0.704 0.256-1.376 0.768-1.888l8.96-8.928c0.48-0.512 1.376-0.512 1.856 0 0.256 0.256 0.416 0.576 0.416 0.928s-0.16 0.704-0.416 0.96z"></path>
</svg>
