<!-- Generated by IcoMoon.io -->
<svg version="1.1" xmlns="http://www.w3.org/2000/svg" width="32" height="32" viewBox="0 0 32 32">
<path d="M10.016 17.344c-1.216 0-2.368-0.352-3.36-1.024-0.96-0.672-1.728-1.6-2.208-2.688-0.448-1.088-0.576-2.304-0.32-3.456 0.224-1.184 0.8-2.24 1.632-3.072 0.832-0.864 1.92-1.44 3.072-1.664s2.368-0.096 3.456 0.352c1.12 0.448 2.048 1.216 2.688 2.208 0.672 0.992 1.024 2.144 1.024 3.328 0 1.6-0.64 3.104-1.76 4.256-1.12 1.12-2.656 1.76-4.224 1.76zM10.016 8c-0.672 0-1.312 0.192-1.856 0.576-0.544 0.352-0.992 0.864-1.248 1.472s-0.32 1.28-0.192 1.92c0.128 0.672 0.448 1.248 0.928 1.728 0.448 0.448 1.056 0.768 1.696 0.896s1.312 0.064 1.92-0.192c0.608-0.256 1.152-0.672 1.504-1.216 0.384-0.544 0.576-1.184 0.576-1.856 0-0.896-0.352-1.728-0.992-2.368-0.608-0.608-1.472-0.96-2.336-0.96zM20 30.656v-0.64c0-2.656-1.056-5.216-2.912-7.104-1.888-1.856-4.448-2.912-7.072-2.912-2.656 0-5.216 1.056-7.072 2.912-1.888 1.888-2.944 4.448-2.944 7.104v0.64c0 0.352 0.128 0.704 0.384 0.96s0.608 0.384 0.96 0.384c0.352 0 0.672-0.128 0.928-0.384s0.384-0.608 0.384-0.96v-0.64c0-1.952 0.8-3.84 2.176-5.216 1.344-1.376 3.232-2.144 5.184-2.144 1.92 0 3.808 0.768 5.184 2.144s2.144 3.264 2.144 5.216v0.64c0 0.352 0.128 0.704 0.384 0.96s0.576 0.384 0.928 0.384c0.352 0 0.704-0.128 0.96-0.384s0.384-0.608 0.384-0.96zM32 24c0-1.792-0.512-3.552-1.504-5.088-0.992-1.504-2.368-2.688-4.032-3.424-1.632-0.736-3.456-0.992-5.248-0.704-1.76 0.256-3.424 1.056-4.768 2.272-0.128 0.096-0.256 0.256-0.32 0.416s-0.128 0.32-0.128 0.48c0 0.192 0 0.352 0.064 0.544 0.064 0.16 0.16 0.32 0.256 0.448 0.128 0.128 0.288 0.224 0.416 0.288 0.16 0.096 0.352 0.128 0.512 0.128 0.192 0.032 0.352 0 0.544-0.064 0.16-0.064 0.288-0.16 0.448-0.256 0.928-0.864 2.144-1.44 3.392-1.632 1.28-0.192 2.592-0.032 3.744 0.512 1.184 0.512 2.176 1.376 2.88 2.464 0.704 1.056 1.088 2.336 1.088 3.616 0 0.352 0.128 0.704 0.384 0.928 0.256 0.256 0.576 0.416 0.928 0.416s0.704-0.16 0.96-0.416c0.256-0.224 0.384-0.576 0.384-0.928zM23.328 12c-1.184 0-2.336-0.352-3.328-1.024-0.992-0.64-1.76-1.6-2.208-2.688s-0.576-2.304-0.352-3.456c0.256-1.184 0.8-2.24 1.664-3.072 0.832-0.832 1.888-1.408 3.072-1.632 1.152-0.256 2.368-0.128 3.456 0.32s2.048 1.216 2.688 2.208c0.672 0.992 1.024 2.144 1.024 3.328 0 1.6-0.64 3.136-1.76 4.256s-2.656 1.76-4.256 1.76zM23.328 2.656c-0.64 0-1.312 0.192-1.856 0.576-0.544 0.352-0.96 0.896-1.216 1.504s-0.32 1.28-0.192 1.92c0.128 0.64 0.448 1.248 0.928 1.696 0.448 0.48 1.056 0.8 1.696 0.928s1.312 0.064 1.92-0.192c0.608-0.256 1.12-0.704 1.504-1.248 0.352-0.544 0.544-1.184 0.544-1.856 0-0.864-0.352-1.728-0.96-2.336-0.64-0.64-1.472-0.992-2.368-0.992z"></path>
</svg>
