<!-- Generated by IcoMoon.io -->
<svg version="1.1" xmlns="http://www.w3.org/2000/svg" width="32" height="32" viewBox="0 0 32 32">
<path d="M16 16c1.568 0 3.136-0.48 4.448-1.344 1.312-0.896 2.336-2.144 2.944-3.584 0.608-1.472 0.768-3.072 0.448-4.64-0.288-1.536-1.056-2.976-2.176-4.096s-2.56-1.888-4.096-2.176c-1.568-0.32-3.168-0.16-4.64 0.448-1.44 0.608-2.688 1.632-3.584 2.944-0.864 1.312-1.344 2.88-1.344 4.448 0 2.112 0.832 4.16 2.336 5.664s3.552 2.336 5.664 2.336zM16 2.656c1.056 0 2.080 0.32 2.976 0.896 0.864 0.608 1.536 1.44 1.952 2.4 0.416 0.992 0.512 2.048 0.32 3.072-0.224 1.056-0.736 1.984-1.472 2.752-0.736 0.736-1.696 1.248-2.72 1.44-1.056 0.224-2.112 0.128-3.104-0.288-0.96-0.416-1.792-1.088-2.4-1.952-0.576-0.896-0.896-1.92-0.896-2.976 0-1.408 0.576-2.784 1.568-3.776s2.368-1.568 3.776-1.568zM16 18.656c-3.168 0-6.24 1.28-8.48 3.52-2.24 2.272-3.52 5.312-3.52 8.48 0 0.352 0.128 0.704 0.384 0.96s0.608 0.384 0.96 0.384c0.352 0 0.672-0.128 0.928-0.384s0.384-0.608 0.384-0.96c0-2.464 0.992-4.832 2.752-6.592s4.128-2.72 6.592-2.72c2.464 0 4.864 0.96 6.592 2.72 1.76 1.76 2.752 4.128 2.752 6.592 0 0.352 0.128 0.704 0.384 0.96s0.576 0.384 0.928 0.384c0.352 0 0.704-0.128 0.96-0.384s0.384-0.608 0.384-0.96c0-3.168-1.28-6.208-3.52-8.48-2.24-2.24-5.312-3.52-8.48-3.52z"></path>
</svg>
