<!-- Generated by IcoMoon.io -->
<svg version="1.1" xmlns="http://www.w3.org/2000/svg" width="32" height="32" viewBox="0 0 32 32">
<path d="M10.656 16c4.416 0 8-3.584 8-8s-3.584-8-8-8-8 3.584-8 8 3.616 8 8 8zM10.656 2.656c2.944 0 5.344 2.4 5.344 5.344s-2.4 5.344-5.344 5.344-5.312-2.4-5.312-5.344 2.368-5.344 5.312-5.344zM21.344 29.344v1.312c0 0.736-0.608 1.344-1.344 1.344s-1.344-0.608-1.344-1.344v-1.312c0-4.416-3.584-8-8-8s-8 3.584-8 8v1.312c0 0.736-0.576 1.344-1.312 1.344s-1.344-0.608-1.344-1.344v-1.312c0-5.888 4.8-10.688 10.656-10.688s10.688 4.8 10.688 10.688zM31.584 13.632l-5.312 5.152c-0.768 0.768-1.824 1.216-2.944 1.216s-2.144-0.448-2.944-1.216l-2.624-2.496c-0.544-0.48-0.576-1.344-0.064-1.856 0.512-0.544 1.344-0.576 1.888-0.064l2.656 2.496c0.64 0.608 1.6 0.608 2.176 0.032l5.312-5.184c0.544-0.512 1.376-0.512 1.888 0.032 0.512 0.512 0.512 1.376-0.032 1.888z"></path>
</svg>
