<svg width="112" height="112" viewBox="0 0 112 112" fill="none" xmlns="http://www.w3.org/2000/svg">
<mask id="mask0" mask-type="alpha" maskUnits="userSpaceOnUse" x="0" y="0" width="112" height="112">
<path d="M56 112C86.9279 112 112 86.9279 112 56C112 25.0721 86.9279 0 56 0C25.0721 0 0 25.0721 0 56C0 86.9279 25.0721 112 56 112Z" fill="#ECEFF1"/>
</mask>
<g mask="url(#mask0)">
<path d="M56 112C86.9279 112 112 86.9279 112 56C112 25.0721 86.9279 0 56 0C25.0721 0 0 25.0721 0 56C0 86.9279 25.0721 112 56 112Z" fill="#ECEFF1"/>
<mask id="mask1" mask-type="alpha" maskUnits="userSpaceOnUse" x="17" y="13" width="78" height="138">
<path d="M56.2558 147.791H17.7441V96.4419C30.5813 92.1628 39.1395 87.8837 43.4186 83.6047C49.8372 77.1861 30.5813 77.1861 30.5813 45.093C30.5813 23.6977 39.1395 13 56.2558 13C73.372 13 81.9302 23.6977 81.9302 45.093C81.9302 77.1861 62.6744 77.1861 69.093 83.6047C73.372 87.8837 81.9302 92.1628 94.7674 96.4419V151L56.2558 147.791Z" fill="white"/>
</mask>
<g mask="url(#mask1)">
<path d="M56.2558 147.791H17.7441V96.4419C30.5813 92.1628 39.1395 87.8837 43.4186 83.6047C49.8372 77.1861 30.5813 77.1861 30.5813 45.093C30.5813 23.6977 39.1395 13 56.2558 13C73.372 13 81.9302 23.6977 81.9302 45.093C81.9302 77.1861 62.6744 77.1861 69.093 83.6047C73.372 87.8837 81.9302 92.1628 94.7674 96.4419V151L56.2558 147.791Z" fill="white" fill-opacity="0.75"/>
<path d="M115.399 -6.71387H-2.88672V111.572H115.399V-6.71387Z" fill="white"/>
</g>
</g>
</svg>
