<svg width="16" height="16" viewBox="0 0 16 16" fill="none" xmlns="http://www.w3.org/2000/svg">
<g clip-path="url(#clip0)">
<path d="M15.3333 6.66667H14V2.33333C14 1.71449 13.7542 1.121 13.3166 0.683417C12.879 0.245833 12.2855 0 11.6667 0C11.0478 0 10.4543 0.245833 10.0168 0.683417C9.57917 1.121 9.33333 1.71449 9.33333 2.33333V2.66667H8.66667V4H11.3333V2.66667H10.6667V2.33333C10.6667 2.06812 10.772 1.81376 10.9596 1.62623C11.1471 1.43869 11.4015 1.33333 11.6667 1.33333C11.9319 1.33333 12.1862 1.43869 12.3738 1.62623C12.5613 1.81376 12.6667 2.06812 12.6667 2.33333V6.66667H3.33333V6H4V4.66667H2.66667C2.48986 4.66667 2.32029 4.7369 2.19526 4.86193C2.07024 4.98695 2 5.15652 2 5.33333V6.66667H0.666667C0.489856 6.66667 0.320286 6.7369 0.195262 6.86193C0.0702379 6.98695 0 7.15652 0 7.33333L0 10.6667C0.000712054 11.315 0.19023 11.9491 0.545401 12.4914C0.900573 13.0338 1.40602 13.461 2 13.7208V15.3333H3.33333V14H12.6667V15.3333H14V13.7208C14.594 13.461 15.0994 13.0338 15.4546 12.4914C15.8098 11.9491 15.9993 11.315 16 10.6667V7.33333C16 7.15652 15.9298 6.98695 15.8047 6.86193C15.6797 6.7369 15.5101 6.66667 15.3333 6.66667ZM3.33333 12.6667C3.33353 12.4899 3.40383 12.3205 3.52881 12.1955C3.6538 12.0705 3.82325 12.0002 4 12H12C12.1768 12.0002 12.3462 12.0705 12.4712 12.1955C12.5962 12.3205 12.6665 12.4899 12.6667 12.6667H3.33333ZM14.6667 10.6667C14.6667 10.9601 14.6021 11.2499 14.4774 11.5154C14.3527 11.781 14.171 12.0159 13.9453 12.2032C13.8405 11.766 13.5917 11.3766 13.2389 11.0979C12.886 10.8192 12.4497 10.6673 12 10.6667H4C3.55035 10.6673 3.11399 10.8192 2.76114 11.0979C2.40829 11.3766 2.15948 11.766 2.05475 12.2032C1.82899 12.0159 1.6473 11.781 1.52261 11.5154C1.39792 11.2499 1.3333 10.9601 1.33333 10.6667V8H14.6667V10.6667Z" fill="#B0BEC5"/>
</g>
<defs>
<clipPath id="clip0">
<rect width="16" height="16" fill="white"/>
</clipPath>
</defs>
</svg>
