<svg width="320" height="196" viewBox="0 0 320 196" fill="none" xmlns="http://www.w3.org/2000/svg">
<rect width="320" height="196" fill="#ECEFF1"/>
<mask id="mask0" mask-type="alpha" maskUnits="userSpaceOnUse" x="0" y="0" width="320" height="196">
<rect width="320" height="196" fill="#ECEFF1"/>
</mask>
<g mask="url(#mask0)">
<g opacity="0.3">
<g clip-path="url(#clip0)">
<path fill-rule="evenodd" clip-rule="evenodd" d="M337.029 14.0836V5.59643H328.542L328.543 5.59736L321.472 12.6684L329.957 21.1537L337.028 14.0826L337.029 14.0836ZM337.029 16.9101L337.029 18.9986L339.028 18.9986L339.028 5.59617C339.028 4.49253 338.133 3.59786 337.029 3.59786L323.627 3.59786L323.627 5.59643L325.715 5.59643L320.058 11.2542C319.277 12.0353 319.277 13.3016 320.058 14.0826L328.543 22.5679C329.324 23.349 330.59 23.349 331.371 22.5679L337.029 16.9101Z" fill="#B0BEC5"/>
<path fill-rule="evenodd" clip-rule="evenodd" d="M303.088 48.0247V39.5376H294.601L294.602 39.5385L287.531 46.6096L296.016 55.0949L303.087 48.0238L303.088 48.0247ZM303.088 50.8513L303.088 52.9398L305.086 52.9398L305.086 39.5373C305.086 38.4337 304.192 37.539 303.088 37.539L289.686 37.539L289.686 39.5376H291.774L286.116 45.1954C285.335 45.9764 285.335 47.2427 286.116 48.0238L294.602 56.5091C295.383 57.2901 296.649 57.2901 297.43 56.5091L303.088 50.8513Z" fill="#B0BEC5"/>
<path fill-rule="evenodd" clip-rule="evenodd" d="M337.029 81.9659V73.4788H328.542L328.543 73.4797L321.472 80.5507L329.957 89.036L337.028 81.965L337.029 81.9659ZM337.029 84.7924L337.029 86.881L339.028 86.881L339.028 73.4785C339.028 72.3749 338.133 71.4802 337.029 71.4802L323.627 71.4802L323.627 73.4788H325.715L320.058 79.1365C319.277 79.9176 319.277 81.1839 320.058 81.965L328.543 90.4502C329.324 91.2313 330.59 91.2313 331.371 90.4502L337.029 84.7924Z" fill="#B0BEC5"/>
</g>
<g clip-path="url(#clip1)">
<path fill-rule="evenodd" clip-rule="evenodd" d="M303.088 115.907V107.42H294.601L294.602 107.421L287.531 114.492L296.016 122.977L303.087 115.906L303.088 115.907ZM303.088 118.734L303.088 120.822L305.087 120.822L305.087 107.42C305.087 106.316 304.192 105.421 303.088 105.421L289.686 105.421L289.686 107.42H291.774L286.116 113.078C285.335 113.859 285.335 115.125 286.116 115.906L294.602 124.391C295.383 125.172 296.649 125.172 297.43 124.391L303.088 118.734Z" fill="#B0BEC5"/>
<path fill-rule="evenodd" clip-rule="evenodd" d="M269.147 81.9659V73.4788H260.66L260.661 73.4797L253.59 80.5507L262.075 89.036L269.146 81.965L269.147 81.9659ZM269.147 84.7924L269.147 86.881L271.145 86.881L271.145 73.4785C271.145 72.3749 270.251 71.4802 269.147 71.4802L255.745 71.4802L255.745 73.4788H257.833L252.175 79.1365C251.394 79.9176 251.394 81.1839 252.175 81.965L260.661 90.4502C261.442 91.2313 262.708 91.2313 263.489 90.4502L269.147 84.7924Z" fill="#B0BEC5"/>
<path fill-rule="evenodd" clip-rule="evenodd" d="M235.206 115.907V107.42H226.719L226.719 107.421L219.648 114.492L228.134 122.977L235.205 115.906L235.206 115.907ZM235.206 118.734L235.206 120.822L237.204 120.822L237.204 107.42C237.204 106.316 236.31 105.421 235.206 105.421L221.803 105.421L221.803 107.42H223.892L218.234 113.078C217.453 113.859 217.453 115.125 218.234 115.906L226.719 124.391C227.501 125.172 228.767 125.172 229.548 124.391L235.206 118.734Z" fill="#B0BEC5"/>
<path fill-rule="evenodd" clip-rule="evenodd" d="M269.147 149.848L269.147 141.361H260.66L260.661 141.362L253.59 148.433L262.075 156.918L269.146 149.847L269.147 149.848ZM269.147 152.675L269.147 154.763L271.145 154.763L271.145 141.361C271.145 140.257 270.251 139.363 269.147 139.363L255.745 139.363L255.745 141.361H257.833L252.175 147.019C251.394 147.8 251.394 149.066 252.175 149.847L260.661 158.333C261.442 159.114 262.708 159.114 263.489 158.333L269.147 152.675Z" fill="#B0BEC5"/>
</g>
<g clip-path="url(#clip2)">
<path fill-rule="evenodd" clip-rule="evenodd" d="M269.147 14.0838V5.59667H260.66L260.661 5.5976L253.59 12.6687L262.075 21.1539L269.146 14.0829L269.147 14.0838ZM269.147 16.9104L269.147 18.9989L271.145 18.9989L271.145 5.59641C271.145 4.49278 270.251 3.59811 269.147 3.59811L255.745 3.59811L255.745 5.59667L257.833 5.59667L252.175 11.2545C251.394 12.0355 251.394 13.3018 252.175 14.0829L260.661 22.5682C261.442 23.3492 262.708 23.3492 263.489 22.5682L269.147 16.9104Z" fill="#B0BEC5"/>
</g>
<g clip-path="url(#clip3)">
<path fill-rule="evenodd" clip-rule="evenodd" d="M235.206 48.0247V39.5376H226.719L226.719 39.5385L219.648 46.6096L228.134 55.0949L235.205 48.0238L235.206 48.0247ZM235.206 50.8513L235.206 52.9398L237.204 52.9398L237.204 39.5373C237.204 38.4337 236.31 37.539 235.206 37.539L221.803 37.539L221.803 39.5376H223.892L218.234 45.1954C217.453 45.9764 217.453 47.2427 218.234 48.0238L226.719 56.5091C227.501 57.2901 228.767 57.2901 229.548 56.5091L235.206 50.8513Z" fill="#B0BEC5"/>
<path fill-rule="evenodd" clip-rule="evenodd" d="M201.265 14.0836V5.59643H192.777L192.778 5.59736L185.707 12.6684L194.193 21.1537L201.264 14.0826L201.265 14.0836ZM201.265 16.9101L201.265 18.9986L203.263 18.9986L203.263 5.59617C203.263 4.49253 202.368 3.59786 201.265 3.59786L187.862 3.59786L187.862 5.59643L189.951 5.59643L184.293 11.2542C183.512 12.0353 183.512 13.3016 184.293 14.0826L192.778 22.5679C193.559 23.349 194.826 23.349 195.607 22.5679L201.265 16.9101Z" fill="#B0BEC5"/>
<path fill-rule="evenodd" clip-rule="evenodd" d="M167.323 48.0247V39.5376H158.836L158.837 39.5385L151.766 46.6096L160.251 55.0949L167.322 48.0238L167.323 48.0247ZM167.323 50.8513L167.323 52.9398L169.322 52.9398L169.322 39.5373C169.322 38.4337 168.427 37.539 167.324 37.539L153.921 37.539L153.921 39.5376H156.01L150.352 45.1954C149.571 45.9764 149.571 47.2427 150.352 48.0238L158.837 56.5091C159.618 57.2901 160.885 57.2901 161.666 56.5091L167.323 50.8513Z" fill="#B0BEC5"/>
<path fill-rule="evenodd" clip-rule="evenodd" d="M201.265 81.9659V73.4788H192.777L192.778 73.4797L185.707 80.5507L194.193 89.036L201.264 81.965L201.265 81.9659ZM201.265 84.7924L201.265 86.881L203.263 86.881L203.263 73.4785C203.263 72.3749 202.368 71.4802 201.265 71.4802L187.862 71.4802L187.862 73.4788H189.951L184.293 79.1365C183.512 79.9176 183.512 81.1839 184.293 81.965L192.778 90.4502C193.559 91.2313 194.826 91.2313 195.607 90.4502L201.265 84.7924Z" fill="#B0BEC5"/>
</g>
<g clip-path="url(#clip4)">
<path fill-rule="evenodd" clip-rule="evenodd" d="M133.382 14.0838V5.59667H124.895L124.896 5.5976L117.825 12.6687L126.31 21.1539L133.381 14.0829L133.382 14.0838ZM133.382 16.9104L133.382 18.9989L135.381 18.9989L135.381 5.59641C135.381 4.49278 134.486 3.59811 133.383 3.59811L119.98 3.59811L119.98 5.59667L122.069 5.59667L116.411 11.2545C115.63 12.0355 115.63 13.3018 116.411 14.0829L124.896 22.5682C125.677 23.3492 126.943 23.3492 127.725 22.5682L133.382 16.9104Z" fill="#B0BEC5"/>
</g>
<g clip-path="url(#clip5)">
<path fill-rule="evenodd" clip-rule="evenodd" d="M337.029 149.848V141.361H328.542L328.543 141.362L321.472 148.433L329.957 156.918L337.028 149.847L337.029 149.848ZM337.029 152.675L337.029 154.763L339.028 154.763L339.028 141.361C339.028 140.257 338.133 139.363 337.029 139.363L323.627 139.363L323.627 141.361H325.715L320.058 147.019C319.277 147.8 319.277 149.066 320.058 149.847L328.543 158.333C329.324 159.114 330.59 159.114 331.371 158.333L337.029 152.675Z" fill="#B0BEC5"/>
<path fill-rule="evenodd" clip-rule="evenodd" d="M303.088 183.789V175.302H294.601L294.602 175.303L287.531 182.374L296.016 190.86L303.087 183.788L303.088 183.789ZM303.088 186.616L303.088 188.704L305.086 188.704L305.086 175.302C305.086 174.198 304.192 173.304 303.088 173.304L289.686 173.304L289.686 175.302H291.774L286.116 180.96C285.335 181.741 285.335 183.007 286.116 183.788L294.602 192.274C295.383 193.055 296.649 193.055 297.43 192.274L303.088 186.616Z" fill="#B0BEC5"/>
</g>
<g clip-path="url(#clip6)">
<path fill-rule="evenodd" clip-rule="evenodd" d="M235.206 183.789V175.302H226.719L226.719 175.303L219.648 182.374L228.134 190.859L235.205 183.788L235.206 183.789ZM235.206 186.616L235.206 188.704L237.204 188.704L237.204 175.302C237.204 174.198 236.31 173.303 235.206 173.303L221.803 173.303L221.803 175.302H223.892L218.234 180.96C217.453 181.741 217.453 183.007 218.234 183.788L226.719 192.273C227.501 193.055 228.767 193.055 229.548 192.273L235.206 186.616Z" fill="#B0BEC5"/>
<path fill-rule="evenodd" clip-rule="evenodd" d="M201.265 149.848V141.361H192.777L192.778 141.362L185.707 148.433L194.193 156.918L201.264 149.847L201.265 149.848ZM201.265 152.675L201.265 154.763L203.263 154.763L203.263 141.361C203.263 140.257 202.368 139.362 201.265 139.362L187.862 139.362L187.862 141.361H189.951L184.293 147.019C183.512 147.8 183.512 149.066 184.293 149.847L192.778 158.332C193.559 159.113 194.826 159.113 195.607 158.332L201.265 152.675Z" fill="#B0BEC5"/>
<path fill-rule="evenodd" clip-rule="evenodd" d="M167.323 183.789V175.302H158.836L158.837 175.303L151.766 182.374L160.251 190.859L167.322 183.788L167.323 183.789ZM167.323 186.616L167.323 188.704L169.322 188.704L169.322 175.302C169.322 174.198 168.427 173.303 167.324 173.303L153.921 173.303L153.921 175.302H156.01L150.352 180.96C149.571 181.741 149.571 183.007 150.352 183.788L158.837 192.273C159.618 193.055 160.885 193.055 161.666 192.273L167.323 186.616Z" fill="#B0BEC5"/>
</g>
<g clip-path="url(#clip7)">
<path fill-rule="evenodd" clip-rule="evenodd" d="M167.323 115.907V107.42H158.836L158.837 107.421L151.766 114.492L160.251 122.977L167.323 115.906L167.323 115.907ZM167.323 118.734L167.323 120.822L169.322 120.822L169.322 107.42C169.322 106.316 168.427 105.421 167.324 105.421L153.921 105.421L153.921 107.42H156.01L150.352 113.078C149.571 113.859 149.571 115.125 150.352 115.906L158.837 124.391C159.618 125.172 160.885 125.172 161.666 124.391L167.323 118.734Z" fill="#B0BEC5"/>
<path fill-rule="evenodd" clip-rule="evenodd" d="M133.382 81.9659V73.4788H124.895L124.896 73.4797L117.825 80.5507L126.31 89.036L133.381 81.965L133.382 81.9659ZM133.382 84.7924L133.382 86.881L135.381 86.881L135.381 73.4785C135.381 72.3749 134.486 71.4802 133.383 71.4802L119.98 71.4802L119.98 73.4788H122.069L116.411 79.1365C115.63 79.9176 115.63 81.1839 116.411 81.965L124.896 90.4502C125.677 91.2313 126.943 91.2313 127.725 90.4502L133.382 84.7924Z" fill="#B0BEC5"/>
<path fill-rule="evenodd" clip-rule="evenodd" d="M99.4412 115.907V107.42H90.954L90.955 107.421L83.8839 114.492L92.3692 122.977L99.4402 115.906L99.4412 115.907ZM99.4412 118.734L99.4412 120.822L101.44 120.822L101.44 107.42C101.44 106.316 100.545 105.421 99.4414 105.421L86.039 105.421L86.039 107.42H88.1275L82.4697 113.078C81.6886 113.859 81.6886 115.125 82.4697 115.906L90.955 124.391C91.736 125.172 93.0023 125.172 93.7834 124.391L99.4412 118.734Z" fill="#B0BEC5"/>
<path fill-rule="evenodd" clip-rule="evenodd" d="M133.382 149.848V141.361H124.895L124.896 141.362L117.825 148.433L126.31 156.918L133.381 149.847L133.382 149.848ZM133.382 152.675L133.382 154.763L135.381 154.763L135.381 141.361C135.381 140.257 134.486 139.363 133.383 139.363L119.98 139.363L119.98 141.361H122.069L116.411 147.019C115.63 147.8 115.63 149.066 116.411 149.847L124.896 158.333C125.677 159.114 126.943 159.114 127.725 158.333L133.382 152.675Z" fill="#B0BEC5"/>
</g>
<g clip-path="url(#clip8)">
<path fill-rule="evenodd" clip-rule="evenodd" d="M99.4412 48.0247V39.5376H90.954L90.9549 39.5385L83.8839 46.6096L92.3692 55.0949L99.4402 48.0238L99.4412 48.0247ZM99.4412 50.8513L99.4412 52.9398L101.44 52.9398L101.44 39.5373C101.44 38.4337 100.545 37.539 99.4414 37.539L86.039 37.539L86.039 39.5376H88.1274L82.4697 45.1954C81.6886 45.9764 81.6886 47.2427 82.4697 48.0238L90.9549 56.5091C91.736 57.2901 93.0023 57.2901 93.7834 56.5091L99.4412 50.8513Z" fill="#B0BEC5"/>
<path fill-rule="evenodd" clip-rule="evenodd" d="M65.5001 14.0836V5.59643H57.0129L57.0138 5.59736L49.9428 12.6684L58.428 21.1537L65.4991 14.0826L65.5001 14.0836ZM65.5001 16.9101L65.5001 18.9986L67.4986 18.9986L67.4986 5.59617C67.4986 4.49253 66.6039 3.59786 65.5003 3.59786L52.0978 3.59786L52.0978 5.59643L54.1863 5.59643L48.5285 11.2542C47.7475 12.0353 47.7475 13.3016 48.5285 14.0826L57.0138 22.5679C57.7949 23.349 59.0612 23.349 59.8423 22.5679L65.5001 16.9101Z" fill="#B0BEC5"/>
<path fill-rule="evenodd" clip-rule="evenodd" d="M31.5589 48.0247V39.5376H23.0718L23.0727 39.5385L16.0016 46.6096L24.4869 55.0949L31.558 48.0238L31.5589 48.0247ZM31.5589 50.8513L31.5589 52.9398L33.5575 52.9398L33.5575 39.5373C33.5575 38.4337 32.6628 37.539 31.5592 37.539L18.1567 37.539L18.1567 39.5376H20.2452L14.5874 45.1954C13.8064 45.9764 13.8064 47.2427 14.5874 48.0238L23.0727 56.5091C23.8537 57.2901 25.1201 57.2901 25.9011 56.5091L31.5589 50.8513Z" fill="#B0BEC5"/>
<path fill-rule="evenodd" clip-rule="evenodd" d="M65.5001 81.9659V73.4788H57.0129L57.0138 73.4797L49.9428 80.5507L58.428 89.036L65.4991 81.965L65.5001 81.9659ZM65.5001 84.7924L65.5001 86.881L67.4986 86.881L67.4986 73.4785C67.4986 72.3749 66.6039 71.4802 65.5003 71.4802L52.0978 71.4802L52.0978 73.4788H54.1863L48.5285 79.1365C47.7475 79.9176 47.7475 81.1839 48.5285 81.965L57.0138 90.4502C57.7949 91.2313 59.0612 91.2313 59.8423 90.4502L65.5001 84.7924Z" fill="#B0BEC5"/>
</g>
<g clip-path="url(#clip9)">
<path fill-rule="evenodd" clip-rule="evenodd" d="M99.4412 183.789V175.302H90.954L90.9549 175.303L83.8839 182.374L92.3692 190.859L99.4402 183.788L99.4412 183.789ZM99.4412 186.616L99.4412 188.704L101.44 188.704L101.44 175.302C101.44 174.198 100.545 173.303 99.4414 173.303L86.039 173.303L86.039 175.302H88.1274L82.4697 180.96C81.6886 181.741 81.6886 183.007 82.4697 183.788L90.9549 192.273C91.736 193.055 93.0023 193.055 93.7834 192.273L99.4412 186.616Z" fill="#B0BEC5"/>
<path fill-rule="evenodd" clip-rule="evenodd" d="M65.5001 149.848V141.361H57.0129L57.0138 141.362L49.9428 148.433L58.428 156.918L65.4991 149.847L65.5001 149.848ZM65.5001 152.675L65.5001 154.763L67.4986 154.763L67.4986 141.361C67.4986 140.257 66.6039 139.362 65.5003 139.362L52.0978 139.362L52.0978 141.361H54.1863L48.5285 147.019C47.7475 147.8 47.7475 149.066 48.5285 149.847L57.0138 158.332C57.7949 159.113 59.0612 159.113 59.8423 158.332L65.5001 152.675Z" fill="#B0BEC5"/>
<path fill-rule="evenodd" clip-rule="evenodd" d="M31.5589 183.789V175.302H23.0718L23.0727 175.303L16.0016 182.374L24.4869 190.859L31.558 183.788L31.5589 183.789ZM31.5589 186.616L31.5589 188.704L33.5575 188.704L33.5575 175.302C33.5575 174.198 32.6628 173.303 31.5592 173.303L18.1567 173.303L18.1567 175.302H20.2452L14.5874 180.96C13.8064 181.741 13.8064 183.007 14.5874 183.788L23.0727 192.273C23.8537 193.055 25.1201 193.055 25.9011 192.273L31.5589 186.616Z" fill="#B0BEC5"/>
</g>
<g clip-path="url(#clip10)">
<path fill-rule="evenodd" clip-rule="evenodd" d="M31.5589 115.907V107.42H23.0718L23.0727 107.421L16.0016 114.492L24.4869 122.977L31.558 115.906L31.5589 115.907ZM31.5589 118.734L31.5589 120.822L33.5575 120.822L33.5575 107.42C33.5575 106.316 32.6628 105.421 31.5592 105.421L18.1567 105.421L18.1567 107.42H20.2452L14.5874 113.078C13.8064 113.859 13.8064 115.125 14.5874 115.906L23.0727 124.391C23.8538 125.172 25.1201 125.172 25.9011 124.391L31.5589 118.734Z" fill="#B0BEC5"/>
<path fill-rule="evenodd" clip-rule="evenodd" d="M-2.38218 81.9659V73.4788H-10.8693L-10.8684 73.4797L-17.9395 80.5507L-9.45419 89.036L-2.38313 81.965L-2.38218 81.9659ZM-2.38218 84.7924L-2.38218 86.881L-0.383612 86.881L-0.383612 73.4785C-0.383612 72.3749 -1.27828 71.4802 -2.38192 71.4802L-15.7844 71.4802L-15.7844 73.4788H-13.6959L-19.3537 79.1365C-20.1347 79.9176 -20.1347 81.1839 -19.3537 81.965L-10.8684 90.4502C-10.0874 91.2313 -8.82103 91.2313 -8.03998 90.4502L-2.38218 84.7924Z" fill="#B0BEC5"/>
<path fill-rule="evenodd" clip-rule="evenodd" d="M-2.38218 149.848V141.361H-10.8693L-10.8684 141.362L-17.9395 148.433L-9.45419 156.918L-2.38313 149.847L-2.38218 149.848ZM-2.38218 152.675L-2.38218 154.763L-0.383612 154.763L-0.383612 141.361C-0.383612 140.257 -1.27828 139.363 -2.38192 139.363L-15.7844 139.363L-15.7844 141.361H-13.6959L-19.3537 147.019C-20.1347 147.8 -20.1347 149.066 -19.3537 149.847L-10.8684 158.333C-10.0874 159.114 -8.82103 159.114 -8.03998 158.333L-2.38218 152.675Z" fill="#B0BEC5"/>
</g>
</g>
</g>
<defs>
<clipPath id="clip0">
<rect width="96" height="96" fill="white" transform="matrix(-0.707107 -0.707107 -0.707107 0.707107 399.176 45.1177)"/>
</clipPath>
<clipPath id="clip1">
<rect width="96" height="96" fill="white" transform="matrix(-0.707107 -0.707107 -0.707107 0.707107 331.293 113)"/>
</clipPath>
<clipPath id="clip2">
<rect width="96" height="96" fill="white" transform="matrix(-0.707107 -0.707107 -0.707107 0.707107 331.293 -22.7644)"/>
</clipPath>
<clipPath id="clip3">
<rect width="96" height="96" fill="white" transform="matrix(-0.707107 -0.707107 -0.707107 0.707107 263.411 45.1177)"/>
</clipPath>
<clipPath id="clip4">
<rect width="96" height="96" fill="white" transform="matrix(-0.707107 -0.707107 -0.707107 0.707107 195.529 -22.7644)"/>
</clipPath>
<clipPath id="clip5">
<rect width="96" height="96" fill="white" transform="matrix(-0.707107 -0.707107 -0.707107 0.707107 399.176 180.882)"/>
</clipPath>
<clipPath id="clip6">
<rect width="96" height="96" fill="white" transform="matrix(-0.707107 -0.707107 -0.707107 0.707107 263.411 180.882)"/>
</clipPath>
<clipPath id="clip7">
<rect width="96" height="96" fill="white" transform="matrix(-0.707107 -0.707107 -0.707107 0.707107 195.529 113)"/>
</clipPath>
<clipPath id="clip8">
<rect width="96" height="96" fill="white" transform="matrix(-0.707107 -0.707107 -0.707107 0.707107 127.647 45.1177)"/>
</clipPath>
<clipPath id="clip9">
<rect width="96" height="96" fill="white" transform="matrix(-0.707107 -0.707107 -0.707107 0.707107 127.647 180.882)"/>
</clipPath>
<clipPath id="clip10">
<rect width="96" height="96" fill="white" transform="matrix(-0.707107 -0.707107 -0.707107 0.707107 59.7645 113)"/>
</clipPath>
</defs>
</svg>
