<?xml version="1.0" encoding="utf-8"?>
<svg version="1.1" id="Countryflags.com"
	 xmlns="http://www.w3.org/2000/svg" xmlns:xlink="http://www.w3.org/1999/xlink" x="0px" y="0px" viewBox="194.5 646.5 300 150"
	 enable-background="new 194.5 646.5 300 150" xml:space="preserve">
<g>
	<rect id="_x33_" x="194.5" y="646.5" fill="#FF0000" width="300" height="150"/>
	<rect id="_x32_" x="269.5" y="646.5" fill="#FFFFFF" width="150" height="150"/>
	<path id="_x31_" fill="#FF0000" d="M344.498,660.562l-10.234,19.088c-1.161,2.074-3.242,1.882-5.323,0.723l-7.409-3.837
		l5.522,29.318c1.161,5.356-2.564,5.356-4.403,3.04l-12.93-14.475l-2.099,7.351c-0.242,0.965-1.307,1.979-2.903,1.738
		l-16.351-3.438l4.295,15.613c0.919,3.474,1.637,4.912-0.928,5.829l-5.828,2.739l28.146,22.862
		c1.114,0.865,1.677,2.42,1.281,3.829l-2.464,8.084c9.691-1.117,18.375-2.798,28.071-3.833c0.856-0.091,2.289,1.321,2.283,2.313
		l-1.284,29.617h4.712l-0.742-29.554c-0.006-0.992,1.294-2.468,2.15-2.377c9.696,1.035,18.38,2.716,28.071,3.833l-2.464-8.084
		c-0.396-1.409,0.166-2.964,1.281-3.829l28.146-22.863l-5.828-2.739c-2.565-0.916-1.847-2.355-0.928-5.829l4.295-15.613
		l-16.351,3.438c-1.597,0.241-2.661-0.772-2.903-1.738l-2.099-7.351l-12.93,14.476c-1.839,2.316-5.565,2.316-4.403-3.04
		l5.522-29.318l-7.409,3.837c-2.081,1.159-4.161,1.351-5.323-0.723"/>
</g>
</svg>