<?xml version="1.0" encoding="utf-8"?>
<svg version="1.1" id="Countryflags.com"
	 xmlns="http://www.w3.org/2000/svg" xmlns:xlink="http://www.w3.org/1999/xlink" x="0px" y="0px" viewBox="744.5 921.5 300 150"
	 enable-background="new 744.5 921.5 300 150" xml:space="preserve">
<g>
	<rect id="_x31_4" x="744.5" y="921.5" fill="#FFFFFF" width="299.843" height="149.983"/>
	<polygon id="_x31_3" fill="#CF142B" points="879.428,1011.444 879.428,1071.483 909.416,1071.483 909.416,1011.444
		1044.344,1011.444 1044.344,981.46 909.416,981.46 909.416,921.5 879.428,921.5 879.428,981.46 744.5,981.46 744.5,1011.444
		"/>
	<polygon id="_x31_2" fill="#00247D" points="919.415,970.049 919.415,921.5 1016.495,921.5 			"/>
	<polygon id="_x31_1" fill="#00247D" points="919.415,1022.933 919.415,1071.483 1016.495,1071.483 			"/>
	<polygon id="_x31_0" fill="#00247D" points="869.428,1022.933 869.428,1071.483 772.349,1071.483 			"/>
	<polygon id="_x39_" fill="#00247D" points="869.428,970.049 869.428,921.5 772.349,921.5 			"/>
	<polygon id="_x38_" fill="#00247D" points="744.501,935.442 744.501,971.493 816.588,971.493 			"/>
	<polygon id="_x37_" fill="#00247D" points="1044.343,935.442 1044.343,971.493 972.256,971.493 			"/>
	<polygon id="_x36_" fill="#00247D" points="1044.343,1057.541 1044.343,1021.49 972.256,1021.49 			"/>
	<polygon id="_x35_" fill="#00247D" points="744.501,1057.541 744.501,1021.49 816.588,1021.49 			"/>
	<polyline id="_x34_" fill="#CF142B" points="1044.343,921.5 1027.689,921.5 927.9,971.493 944.554,971.493 1044.5,921.5 			"/>
	<polyline id="_x33_" fill="#CF142B" points="860.943,1021.487 844.289,1021.487 744.5,1071.48 761.154,1071.48 861.1,1021.487
					"/>
	<polygon id="_x32_" fill="#CF142B" points="827.768,971.532 844.421,971.532 744.5,921.5 744.5,929.885 			"/>
	<polygon id="_x31_" fill="#CF142B" points="961.023,1021.468 944.369,1021.468 1044.29,1071.5 1044.29,1063.115 			"/>
</g>
</svg>