<svg width="146" height="24" viewBox="0 0 146 24" fill="none" xmlns="http://www.w3.org/2000/svg">
<path d="M4.28571 12.3015H0V24H30V12.3015H25.7143V19.746H4.28571V12.3015Z" fill="#69C200"/>
<path fill-rule="evenodd" clip-rule="evenodd" d="M15 5.43558L2.57257 15.5632L0 12.2302L14.9672 0.0327882L14.9925 0L15 0.00608197L15.0075 0L15.0328 0.0327882L30 12.2302L27.4274 15.5632L15 5.43558Z" fill="#69C200"/>
<path d="M49.4876 23.7339H38V4.27944H49.4876V7.65935H42.2294V11.9308H48.9828V15.3107H42.2294V20.3273H49.4876V23.7339Z" fill="#263238"/>
<path d="M65.4366 18.3313C65.4366 20.0878 64.7863 21.4717 63.4856 22.483C62.194 23.4943 60.3931 24 58.0829 24C55.9545 24 54.0718 23.6097 52.4346 22.829V18.9967C53.7807 19.5822 54.9176 19.9947 55.8454 20.2342C56.7822 20.4737 57.6372 20.5935 58.4103 20.5935C59.338 20.5935 60.0475 20.4205 60.5387 20.0745C61.0389 19.7285 61.289 19.214 61.289 18.5309C61.289 18.1495 61.1799 17.8124 60.9616 17.5196C60.7433 17.218 60.4204 16.9297 59.9929 16.6547C59.5745 16.3797 58.715 15.9406 57.4144 15.3373C56.1956 14.7784 55.2815 14.2417 54.6721 13.7272C54.0627 13.2127 53.576 12.6139 53.2122 11.9308C52.8484 11.2477 52.6665 10.4493 52.6665 9.5356C52.6665 7.81459 53.2623 6.46174 54.4538 5.47705C55.6544 4.49235 57.3098 4 59.4199 4C60.4568 4 61.4437 4.11976 62.3805 4.35928C63.3264 4.5988 64.3133 4.93591 65.3411 5.37059L63.9768 8.57751C62.9126 8.1517 62.0303 7.85451 61.33 7.68596C60.6387 7.51741 59.9565 7.43313 59.2835 7.43313C58.4831 7.43313 57.8691 7.61499 57.4416 7.97871C57.0141 8.34243 56.8004 8.81703 56.8004 9.40253C56.8004 9.76625 56.8868 10.0856 57.0596 10.3606C57.2324 10.6267 57.5053 10.8884 57.8782 11.1457C58.2602 11.3941 59.1561 11.8465 60.5659 12.503C62.4305 13.3724 63.7084 14.2462 64.3997 15.1244C65.091 15.9938 65.4366 17.0628 65.4366 18.3313Z" fill="#263238"/>
<path d="M76.7468 23.7339H72.5174V7.71257H67.1011V4.27944H82.1632V7.71257H76.7468V23.7339Z" fill="#263238"/>
<path d="M97.4437 23.7339L95.9975 19.1031H88.7256L87.2794 23.7339H82.7226L89.7625 4.1996H94.9333L102.001 23.7339H97.4437ZM94.9879 15.6434C93.6508 11.4473 92.8959 9.0743 92.7231 8.52428C92.5594 7.97427 92.4411 7.53959 92.3684 7.22023C92.0682 8.35573 91.2087 11.1635 89.7898 15.6434H94.9879Z" fill="#263238"/>
<path d="M112.219 23.7339H107.99V7.71257H102.574V4.27944H117.636V7.71257H112.219V23.7339Z" fill="#263238"/>
<path d="M120.705 23.7339V4.27944H124.935V23.7339H120.705Z" fill="#263238"/>
<path d="M146 23.7339H141.198L135.972 15.5369L134.185 16.7878V23.7339H129.956V4.27944H134.185V13.1816L135.849 10.8929L141.252 4.27944H145.945L138.987 12.8889L146 23.7339Z" fill="#263238"/>
</svg>
