<svg width="104" height="104" viewBox="0 0 104 104" fill="none" xmlns="http://www.w3.org/2000/svg">
<path fill-rule="evenodd" clip-rule="evenodd" d="M20 10H4C2.89543 10 2 10.8954 2 12V28C2 29.1046 2.89543 30 4 30H20C21.1046 30 22 29.1046 22 28V12C22 10.8954 21.1046 10 20 10ZM4 21V12H20V16L18 14L11.5 20.5L7.99995 17L4 21ZM4 23.8284V28H16.1715L7.99995 19.8284L4 23.8284ZM19 28H20V18.8285L18 16.8284L12.9142 21.9142L19 28Z" fill="#CFD8DC"/>
<path fill-rule="evenodd" clip-rule="evenodd" d="M22 38V36H2V38H22ZM16 42V40H2V42H16Z" fill="#CFD8DC"/>
<path fill-rule="evenodd" clip-rule="evenodd" d="M20 60H4C2.89543 60 2 60.8954 2 62V78C2 79.1046 2.89543 80 4 80H20C21.1046 80 22 79.1046 22 78V62C22 60.8954 21.1046 60 20 60ZM4 71V62H20V66L18 64L11.5 70.5L7.99995 67L4 71ZM4 73.8284V78H16.1715L7.99995 69.8284L4 73.8284ZM19 78H20V68.8285L18 66.8284L12.9142 71.9142L19 78Z" fill="#CFD8DC"/>
<path fill-rule="evenodd" clip-rule="evenodd" d="M22 88V86H2V88H22ZM16 92V90H2V92H16Z" fill="#CFD8DC"/>
<path fill-rule="evenodd" clip-rule="evenodd" d="M60 10H44C42.8954 10 42 10.8954 42 12V28C42 29.1046 42.8954 30 44 30H60C61.1046 30 62 29.1046 62 28V12C62 10.8954 61.1046 10 60 10ZM44 21V12H60V16L58 14L51.5 20.5L48 17L44 21ZM44 23.8284V28H56.1715L48 19.8284L44 23.8284ZM59 28H60V18.8285L58 16.8284L52.9142 21.9142L59 28Z" fill="#CFD8DC"/>
<path fill-rule="evenodd" clip-rule="evenodd" d="M62 38V36H42V38H62ZM56 42V40H42V42H56Z" fill="#CFD8DC"/>
<path fill-rule="evenodd" clip-rule="evenodd" d="M60 60H44C42.8954 60 42 60.8954 42 62V78C42 79.1046 42.8954 80 44 80H60C61.1046 80 62 79.1046 62 78V62C62 60.8954 61.1046 60 60 60ZM44 71V62H60V66L58 64L51.5 70.5L48 67L44 71ZM44 73.8284V78H56.1715L48 69.8284L44 73.8284ZM59 78H60V68.8285L58 66.8284L52.9142 71.9142L59 78Z" fill="#CFD8DC"/>
<path fill-rule="evenodd" clip-rule="evenodd" d="M62 88V86H42V88H62ZM56 92V90H42V92H56Z" fill="#CFD8DC"/>
<path fill-rule="evenodd" clip-rule="evenodd" d="M100 10H84C82.8954 10 82 10.8954 82 12V28C82 29.1046 82.8954 30 84 30H100C101.105 30 102 29.1046 102 28V12C102 10.8954 101.105 10 100 10ZM84 21V12H100V16L98 14L91.5 20.5L88 17L84 21ZM84 23.8284V28H96.1715L88 19.8284L84 23.8284ZM99 28H100V18.8285L98 16.8284L92.9142 21.9142L99 28Z" fill="#CFD8DC"/>
<path fill-rule="evenodd" clip-rule="evenodd" d="M102 38V36H82V38H102ZM96 42V40H82V42H96Z" fill="#CFD8DC"/>
<path fill-rule="evenodd" clip-rule="evenodd" d="M100 60H84C82.8954 60 82 60.8954 82 62V78C82 79.1046 82.8954 80 84 80H100C101.105 80 102 79.1046 102 78V62C102 60.8954 101.105 60 100 60ZM84 71V62H100V66L98 64L91.5 70.5L88 67L84 71ZM84 73.8284V78H96.1715L88 69.8284L84 73.8284ZM99 78H100V68.8285L98 66.8284L92.9142 71.9142L99 78Z" fill="#CFD8DC"/>
<path fill-rule="evenodd" clip-rule="evenodd" d="M102 88V86H82V88H102ZM96 92V90H82V92H96Z" fill="#CFD8DC"/>
</svg>
