<svg width="136" height="122" viewBox="0 0 136 122" fill="none" xmlns="http://www.w3.org/2000/svg">
<g clip-path="url(#clip0_610_65)">
<g filter="url(#filter0_f_610_65)">
<path d="M62.0164 37.8445H50.6362V66.2261H130.298V37.8445H118.917V55.9055H62.0164V37.8445Z" fill="#FFFC30"/>
<path fill-rule="evenodd" clip-rule="evenodd" d="M90.4669 21.1872L57.4674 45.7578L50.6362 37.6716L90.3799 8.07955L90.4471 8L90.4669 8.01476L90.4867 8L90.5539 8.07955L130.298 37.6716L123.466 45.7578L90.4669 21.1872Z" fill="#FFFC30"/>
<path d="M62.0164 37.8445H50.6362V66.2261H130.298V37.8445H118.917V55.9055H62.0164V37.8445Z" stroke="#12C666"/>
<path fill-rule="evenodd" clip-rule="evenodd" d="M90.4669 21.1872L57.4674 45.7578L50.6362 37.6716L90.3799 8.07955L90.4471 8L90.4669 8.01476L90.4867 8L90.5539 8.07955L130.298 37.6716L123.466 45.7578L90.4669 21.1872Z" stroke="#12C666"/>
</g>
<g filter="url(#filter1_d_610_65)">
<path d="M62.0164 37.8445H50.6362V66.2261H130.298V37.8445H118.917V55.9055H62.0164V37.8445Z" fill="#69C200"/>
<path fill-rule="evenodd" clip-rule="evenodd" d="M90.4669 21.1872L57.4674 45.7578L50.6362 37.6716L90.3799 8.07955L90.4471 8L90.4669 8.01476L90.4867 8L90.5539 8.07955L130.298 37.6716L123.466 45.7578L90.4669 21.1872Z" fill="#69C200"/>
</g>
<path d="M51.0679 114C48.2458 113.992 45.4596 113.426 42.9034 112.341L42.8672 112.327H42.8258C41.2765 112.564 39.7082 112.683 38.1371 112.684C20.2513 112.684 5.70166 97.383 5.70166 78.5748C5.70166 59.7665 20.2513 44.4637 38.1371 44.4637C39.7082 44.4644 41.2765 44.5837 42.8258 44.8203H42.8672L42.9034 44.8039C45.4596 43.719 48.2458 43.1529 51.0679 43.145C53.8908 43.1528 56.6778 43.7189 59.2349 44.8039L59.2711 44.8203H59.3099C60.8601 44.5838 62.4292 44.4645 64.0012 44.4637C81.887 44.4637 96.4367 59.7665 96.4367 78.5748C96.4367 97.383 81.887 112.684 64.0012 112.684C62.4292 112.683 60.8601 112.564 59.3099 112.327H59.2711L59.2349 112.341C56.6778 113.426 53.8908 113.992 51.0679 114V114Z" fill="url(#paint0_radial_610_65)"/>
<g filter="url(#filter2_f_610_65)">
<path d="M50.6801 114C47.8822 113.992 45.1198 113.426 42.5854 112.341L42.5495 112.327H42.5085C40.9725 112.564 39.4176 112.683 37.8599 112.684C20.127 112.684 5.70166 97.383 5.70166 78.5748C5.70166 59.7665 20.127 44.4637 37.8599 44.4637C39.4176 44.4644 40.9725 44.5837 42.5085 44.8203H42.5495L42.5854 44.8039C45.1198 43.719 47.8822 43.1529 50.6801 43.145C53.4789 43.1528 56.2421 43.7189 58.7774 44.8039L58.8133 44.8203H58.8517C60.3887 44.5838 61.9444 44.4645 63.5029 44.4637C81.2358 44.4637 95.6612 59.7665 95.6612 78.5748C95.6612 97.383 81.2358 112.684 63.5029 112.684C61.9444 112.683 60.3886 112.564 58.8517 112.327H58.8133L58.7774 112.341C56.2421 113.426 53.4789 113.992 50.6801 114Z" fill="url(#paint1_radial_610_65)" fill-opacity="0.5"/>
</g>
<g filter="url(#filter3_f_610_65)">
<path fill-rule="evenodd" clip-rule="evenodd" d="M51.0678 112.966C56.972 112.966 62.4408 110.471 66.8785 106.206L67.7426 106.905C63.1362 111.332 57.372 114 51.0678 114C44.7639 114 38.9996 111.337 34.3955 106.91L35.2598 106.211C39.6946 110.475 45.1632 112.966 51.0678 112.966Z" fill="#D13F00"/>
<path fill-rule="evenodd" clip-rule="evenodd" d="M51.0678 112.966C56.972 112.966 62.4408 110.471 66.8785 106.206L67.7426 106.905C63.1362 111.332 57.372 114 51.0678 114C44.7639 114 38.9996 111.337 34.3955 106.91L35.2598 106.211C39.6946 110.475 45.1632 112.966 51.0678 112.966Z" stroke="#12C666" stroke-miterlimit="10"/>
</g>
<g filter="url(#filter4_f_610_65)">
<path fill-rule="evenodd" clip-rule="evenodd" d="M51.0678 43.5646C56.972 43.5646 62.4408 46.2864 66.8785 50.9387L67.7426 50.1757C63.1362 45.3466 57.372 42.4361 51.0678 42.4361C44.7639 42.4361 38.9996 45.3413 34.3955 50.1709L35.2598 50.9336C39.6946 46.2817 45.1632 43.5646 51.0678 43.5646Z" fill="#D13F00"/>
<path fill-rule="evenodd" clip-rule="evenodd" d="M51.0678 43.5646C56.972 43.5646 62.4408 46.2864 66.8785 50.9387L67.7426 50.1757C63.1362 45.3466 57.372 42.4361 51.0678 42.4361C44.7639 42.4361 38.9996 45.3413 34.3955 50.1709L35.2598 50.9336C39.6946 46.2817 45.1632 43.5646 51.0678 43.5646Z" stroke="#12C666" stroke-miterlimit="10"/>
</g>
<g filter="url(#filter5_f_610_65)">
<path d="M13.2022 78.2195C13.2022 106.504 37.1268 109.04 34.9734 109.04C20.5194 109.04 8.80371 95.2486 8.80371 78.2195C8.80371 61.1904 20.5194 47.3965 34.9734 47.3965C37.5997 47.3965 13.2022 49.9211 13.2022 78.2195Z" fill="white" fill-opacity="0.29"/>
<path d="M12.7022 78.2195C12.7022 92.5307 18.7673 100.382 24.6005 104.64C26.9097 106.326 29.1745 107.443 30.9965 108.178C18.7587 105.924 9.30371 93.4392 9.30371 78.2195C9.30371 62.8504 18.9453 50.2677 31.3578 48.1958C29.5192 48.9276 27.1781 50.0585 24.7799 51.7908C18.8891 56.0457 12.7022 63.8973 12.7022 78.2195Z" stroke="#12C666"/>
</g>
<g filter="url(#filter6_f_610_65)">
<path d="M88.8065 78.2195C88.8065 106.504 64.1782 109.04 66.395 109.04C81.2741 109.04 93.3344 95.2486 93.3344 78.2195C93.3344 61.1904 81.2741 47.3965 66.395 47.3965C63.6914 47.3965 88.8065 49.9211 88.8065 78.2195Z" fill="#D44210"/>
<path d="M92.8344 78.2195C92.8344 93.4336 83.0982 105.934 70.4757 108.181C72.3505 107.447 74.6816 106.33 77.0587 104.644C83.0598 100.389 89.3065 92.5369 89.3065 78.2195C89.3065 63.891 82.9344 56.0391 76.8741 51.7868C74.406 50.055 71.9968 48.9246 70.1052 48.1933C82.9071 50.2589 92.8344 62.8568 92.8344 78.2195Z" stroke="#12C666"/>
</g>
<g filter="url(#filter7_b_610_65)">
<path d="M73.9472 84.949C73.9472 84.949 72.1616 93.8135 61.0563 97.1517L59.7949 94.0934L54.9235 93.7272L54.677 98.3018C53.7323 98.3748 52.74 98.4114 51.7002 98.4114C32.1523 98.4114 28.1919 84.949 28.1919 84.949C28.1919 84.949 31.1869 85.4155 36.6941 85.7794L37.1172 89.3486L42.4531 90.13L43.3563 86.1107C45.692 86.1877 48.2692 86.2367 51.0773 86.2367C65.5695 86.2367 73.9472 84.949 73.9472 84.949Z" fill="url(#paint2_linear_610_65)"/>
</g>
<g filter="url(#filter8_f_610_65)">
<path d="M34.8362 47.317C32.6889 45.3725 32.3178 42.5352 34.0075 40.9796C35.6972 39.4241 38.8077 39.7393 40.9551 41.6838C43.1025 43.6283 43.4735 46.4656 41.7838 48.0212C40.0942 49.5768 36.9836 49.2615 34.8362 47.317Z" fill="#FF9900"/>
<path d="M35.2041 46.9784C33.1765 45.1424 32.9667 42.6147 34.3781 41.3152C35.7896 40.0158 38.5597 40.1865 40.5872 42.0225C42.6148 43.8584 42.8247 46.3861 41.4132 47.6856C40.0017 48.985 37.2316 48.8143 35.2041 46.9784Z" stroke="#12C666"/>
</g>
<g filter="url(#filter9_b_610_65)">
<path d="M43.676 68.8598C43.7202 68.4531 43.7081 68.0433 43.6401 67.6399C43.6139 67.4842 43.4654 67.3689 43.2864 67.3548L32.7692 66.5285C32.589 66.5143 32.4185 66.606 32.3621 66.7565C32.2202 67.1351 32.1293 67.5279 32.0916 67.9266C31.9569 69.3082 32.438 70.6813 33.429 71.7439C34.42 72.8064 35.8397 73.4714 37.3759 73.5926C38.9121 73.7137 40.4389 73.281 41.6204 72.3898C42.8018 71.4985 43.5413 70.2217 43.676 68.8401V68.8598Z" fill="url(#paint3_linear_610_65)"/>
</g>
<g filter="url(#filter10_b_610_65)">
<path d="M69.2563 67.8917C69.2207 67.5053 69.1376 67.1244 69.0091 66.7564C68.9566 66.6062 68.7978 66.5146 68.63 66.5284L58.8236 67.3343C58.6569 67.3479 58.5181 67.4625 58.4933 67.6178C58.4308 68.0093 58.4198 68.407 58.4608 68.8017C58.5018 69.4833 58.6879 70.1502 59.008 70.7629C59.3282 71.3755 59.7758 71.9215 60.3245 72.3684C60.8732 72.8152 61.5117 73.1539 62.2022 73.3643C62.8927 73.5747 63.621 73.6526 64.3441 73.5933C65.0672 73.5339 65.7702 73.3386 66.4115 73.0189C67.0528 72.6992 67.6193 72.2617 68.0774 71.7322C68.5355 71.2027 68.8759 70.592 69.0784 69.9365C69.2809 69.2809 69.3414 68.5938 69.2563 67.9158V67.8917Z" fill="url(#paint4_linear_610_65)"/>
</g>
</g>
<defs>
<filter id="filter0_f_610_65" x="46.9111" y="4.31812" width="87.1113" height="65.408" filterUnits="userSpaceOnUse" color-interpolation-filters="sRGB">
<feFlood flood-opacity="0" result="BackgroundImageFix"/>
<feBlend mode="normal" in="SourceGraphic" in2="BackgroundImageFix" result="shape"/>
<feGaussianBlur stdDeviation="1.5" result="effect1_foregroundBlur_610_65"/>
</filter>
<filter id="filter1_d_610_65" x="46.6362" y="8" width="87.6611" height="66.2261" filterUnits="userSpaceOnUse" color-interpolation-filters="sRGB">
<feFlood flood-opacity="0" result="BackgroundImageFix"/>
<feColorMatrix in="SourceAlpha" type="matrix" values="0 0 0 0 0 0 0 0 0 0 0 0 0 0 0 0 0 0 127 0" result="hardAlpha"/>
<feOffset dy="4"/>
<feGaussianBlur stdDeviation="2"/>
<feComposite in2="hardAlpha" operator="out"/>
<feColorMatrix type="matrix" values="0 0 0 0 0 0 0 0 0 0 0 0 0 0 0 0 0 0 0.25 0"/>
<feBlend mode="normal" in2="BackgroundImageFix" result="effect1_dropShadow_610_65"/>
<feBlend mode="normal" in="SourceGraphic" in2="effect1_dropShadow_610_65" result="shape"/>
</filter>
<filter id="filter2_f_610_65" x="-0.29834" y="37.145" width="101.959" height="82.8547" filterUnits="userSpaceOnUse" color-interpolation-filters="sRGB">
<feFlood flood-opacity="0" result="BackgroundImageFix"/>
<feBlend mode="normal" in="SourceGraphic" in2="BackgroundImageFix" result="shape"/>
<feGaussianBlur stdDeviation="3" result="effect1_foregroundBlur_610_65"/>
</filter>
<filter id="filter3_f_610_65" x="0.640625" y="72.5398" width="100.857" height="74.9602" filterUnits="userSpaceOnUse" color-interpolation-filters="sRGB">
<feFlood flood-opacity="0" result="BackgroundImageFix"/>
<feBlend mode="normal" in="SourceGraphic" in2="BackgroundImageFix" result="shape"/>
<feGaussianBlur stdDeviation="16.5" result="effect1_foregroundBlur_610_65"/>
</filter>
<filter id="filter4_f_610_65" x="0.675293" y="8.93604" width="100.788" height="75.696" filterUnits="userSpaceOnUse" color-interpolation-filters="sRGB">
<feFlood flood-opacity="0" result="BackgroundImageFix"/>
<feBlend mode="normal" in="SourceGraphic" in2="BackgroundImageFix" result="shape"/>
<feGaussianBlur stdDeviation="16.5" result="effect1_foregroundBlur_610_65"/>
</filter>
<filter id="filter5_f_610_65" x="-58.1963" y="-19.6035" width="160.368" height="195.644" filterUnits="userSpaceOnUse" color-interpolation-filters="sRGB">
<feFlood flood-opacity="0" result="BackgroundImageFix"/>
<feBlend mode="normal" in="SourceGraphic" in2="BackgroundImageFix" result="shape"/>
<feGaussianBlur stdDeviation="33.5" result="effect1_foregroundBlur_610_65"/>
</filter>
<filter id="filter6_f_610_65" x="18.1914" y="-0.603516" width="123.143" height="157.644" filterUnits="userSpaceOnUse" color-interpolation-filters="sRGB">
<feFlood flood-opacity="0" result="BackgroundImageFix"/>
<feBlend mode="normal" in="SourceGraphic" in2="BackgroundImageFix" result="shape"/>
<feGaussianBlur stdDeviation="24" result="effect1_foregroundBlur_610_65"/>
</filter>
<filter id="filter7_b_610_65" x="24.1919" y="80.949" width="53.7554" height="21.4624" filterUnits="userSpaceOnUse" color-interpolation-filters="sRGB">
<feFlood flood-opacity="0" result="BackgroundImageFix"/>
<feGaussianBlur in="BackgroundImageFix" stdDeviation="2"/>
<feComposite in2="SourceAlpha" operator="in" result="effect1_backgroundBlur_610_65"/>
<feBlend mode="normal" in="SourceGraphic" in2="effect1_backgroundBlur_610_65" result="shape"/>
</filter>
<filter id="filter8_f_610_65" x="-29.0522" y="-22.0085" width="133.896" height="133.018" filterUnits="userSpaceOnUse" color-interpolation-filters="sRGB">
<feFlood flood-opacity="0" result="BackgroundImageFix"/>
<feBlend mode="normal" in="SourceGraphic" in2="BackgroundImageFix" result="shape"/>
<feGaussianBlur stdDeviation="31" result="effect1_foregroundBlur_610_65"/>
</filter>
<filter id="filter9_b_610_65" x="28.0693" y="62.5271" width="19.6328" height="15.0854" filterUnits="userSpaceOnUse" color-interpolation-filters="sRGB">
<feFlood flood-opacity="0" result="BackgroundImageFix"/>
<feGaussianBlur in="BackgroundImageFix" stdDeviation="2"/>
<feComposite in2="SourceAlpha" operator="in" result="effect1_backgroundBlur_610_65"/>
<feBlend mode="normal" in="SourceGraphic" in2="effect1_backgroundBlur_610_65" result="shape"/>
</filter>
<filter id="filter10_b_610_65" x="54.4365" y="62.5271" width="18.8574" height="15.0854" filterUnits="userSpaceOnUse" color-interpolation-filters="sRGB">
<feFlood flood-opacity="0" result="BackgroundImageFix"/>
<feGaussianBlur in="BackgroundImageFix" stdDeviation="2"/>
<feComposite in2="SourceAlpha" operator="in" result="effect1_backgroundBlur_610_65"/>
<feBlend mode="normal" in="SourceGraphic" in2="effect1_backgroundBlur_610_65" result="shape"/>
</filter>
<radialGradient id="paint0_radial_610_65" cx="0" cy="0" r="1" gradientUnits="userSpaceOnUse" gradientTransform="translate(24.9685 59.4638) rotate(28.3429) scale(75.3699 83.2945)">
<stop stop-color="#FF8C22"/>
<stop offset="0.296368" stop-color="#FF8C22"/>
<stop offset="0.598725" stop-color="#E96B0F"/>
<stop offset="1" stop-color="#E34513"/>
</radialGradient>
<radialGradient id="paint1_radial_610_65" cx="0" cy="0" r="1" gradientUnits="userSpaceOnUse" gradientTransform="translate(24.8038 59.4638) rotate(28.5489) scale(74.8714 83.1325)">
<stop stop-color="#FF8C22"/>
<stop offset="0.296368" stop-color="#FF8C22"/>
<stop offset="0.598725" stop-color="#E96B0F"/>
<stop offset="1" stop-color="#E34513"/>
</radialGradient>
<linearGradient id="paint2_linear_610_65" x1="51.0695" y1="84.949" x2="51.0695" y2="98.4114" gradientUnits="userSpaceOnUse">
<stop stop-color="#FFCD1E"/>
<stop offset="1" stop-color="#FFF509"/>
</linearGradient>
<linearGradient id="paint3_linear_610_65" x1="37.8857" y1="73.6125" x2="37.8857" y2="66.5046" gradientUnits="userSpaceOnUse">
<stop stop-color="#ECFF15"/>
<stop offset="1" stop-color="#FFDF15"/>
</linearGradient>
<linearGradient id="paint4_linear_610_65" x1="63.8651" y1="73.6125" x2="63.8651" y2="66.5052" gradientUnits="userSpaceOnUse">
<stop stop-color="#ECFF15"/>
<stop offset="1" stop-color="#FFDF15"/>
</linearGradient>
<clipPath id="clip0_610_65">
<rect width="136" height="122" fill="white"/>
</clipPath>
</defs>
</svg>
