<svg width="104" height="104" viewBox="0 0 104 104" fill="none" xmlns="http://www.w3.org/2000/svg">
<path fill-rule="evenodd" clip-rule="evenodd" d="M42 26H10C8.89543 26 8 26.8954 8 28V60C8 61.1046 8.89543 62 10 62H42C43.1046 62 44 61.1046 44 60V28C44 26.8954 43.1046 26 42 26ZM10 46.7071V28H42V43.5857L34.4143 36L23.5606 46.8535L16.7071 40L10 46.7071ZM10 49.5355V60H33.8787L16.7071 42.8284L10 49.5355ZM36.7071 60H42V46.4142L34.4143 38.8284L24.9749 48.2678L36.7071 60Z" fill="#CFD8DC"/>
<path fill-rule="evenodd" clip-rule="evenodd" d="M44 68V70H8V68H44ZM36 72V74H8V72H36ZM44 78V76H8V78H44Z" fill="#CFD8DC"/>
<path fill-rule="evenodd" clip-rule="evenodd" d="M94 26H62C60.8954 26 60 26.8954 60 28V60C60 61.1046 60.8954 62 62 62H94C95.1046 62 96 61.1046 96 60V28C96 26.8954 95.1046 26 94 26ZM62 46.7071V28H94V43.5857L86.4143 36L75.5606 46.8535L68.7071 40L62 46.7071ZM62 49.5355V60H85.8787L68.7071 42.8284L62 49.5355ZM88.7071 60H94V46.4142L86.4143 38.8284L76.9749 48.2678L88.7071 60Z" fill="#CFD8DC"/>
<path fill-rule="evenodd" clip-rule="evenodd" d="M96 68V70H60V68H96ZM88 72V74H60V72H88ZM96 78V76H60V78H96Z" fill="#CFD8DC"/>
</svg>
