<svg width="104" height="104" viewBox="0 0 104 104" fill="none" xmlns="http://www.w3.org/2000/svg">
<path fill-rule="evenodd" clip-rule="evenodd" d="M38 16H10C8.89543 16 8 16.8954 8 18V46C8 47.1046 8.89543 48 10 48H38C39.1046 48 40 47.1046 40 46V18C40 16.8954 39.1046 16 38 16ZM10 31.7072V18H38V28.5857L32.4143 23L21.5607 33.8535L14.7072 27L10 31.7072ZM10 34.5356V46H30.8787L14.7072 29.8284L10 34.5356ZM33.7071 46H38V31.4142L32.4143 25.8284L22.9749 35.2677L33.7071 46Z" fill="#CFD8DC"/>
<path fill-rule="evenodd" clip-rule="evenodd" d="M71 29V31H48V29H71ZM66.1212 33V35H48V33H66.1212ZM68 39V37H48V39H68Z" fill="#CFD8DC"/>
<path fill-rule="evenodd" clip-rule="evenodd" d="M96 27V29H85V27H96Z" fill="#CFD8DC"/>
<path fill-rule="evenodd" clip-rule="evenodd" d="M96 23V25H85V23L96 23Z" fill="#CFD8DC"/>
<path fill-rule="evenodd" clip-rule="evenodd" d="M81 23V25H48V23L81 23Z" fill="#CFD8DC"/>
<path fill-rule="evenodd" clip-rule="evenodd" d="M38 56H10C8.89543 56 8 56.8954 8 58V86C8 87.1046 8.89543 88 10 88H38C39.1046 88 40 87.1046 40 86V58C40 56.8954 39.1046 56 38 56ZM10 71.7072V58H38V68.5857L32.4143 63L21.5607 73.8535L14.7072 67L10 71.7072ZM10 74.5356V86H30.8787L14.7072 69.8284L10 74.5356ZM33.7071 86H38V71.4142L32.4143 65.8284L22.9749 75.2677L33.7071 86Z" fill="#CFD8DC"/>
<path fill-rule="evenodd" clip-rule="evenodd" d="M71 69V71H48V69H71ZM66.1212 73V75H48V73H66.1212ZM68 79V77H48V79H68Z" fill="#CFD8DC"/>
<path fill-rule="evenodd" clip-rule="evenodd" d="M96 67V69H85V67H96Z" fill="#CFD8DC"/>
<path fill-rule="evenodd" clip-rule="evenodd" d="M96 63V65H85V63L96 63Z" fill="#CFD8DC"/>
<path fill-rule="evenodd" clip-rule="evenodd" d="M81 63V65H48V63L81 63Z" fill="#CFD8DC"/>
</svg>
