<svg width="98" height="16" viewBox="0 0 98 16" fill="none" xmlns="http://www.w3.org/2000/svg">
<path d="M2.85714 8.20101H0V16H20V8.20101H17.1429V13.164H2.85714V8.20101Z" fill="#69C200"/>
<path fill-rule="evenodd" clip-rule="evenodd" d="M10 3.62372L1.71504 10.3755L0 8.15349L9.97815 0.0218588L9.99502 0L10 0.00405464L10.005 0L10.0218 0.0218588L20 8.15349L18.285 10.3755L10 3.62372Z" fill="#69C200"/>
<path d="M32.9918 15.8225H25.3334V2.85292H32.9918V5.10619H28.153V7.95383H32.6553V10.2071H28.153V13.5515H32.9918V15.8225Z" fill="#263238"/>
<path d="M43.6244 12.2209C43.6244 13.3918 43.1909 14.3144 42.3238 14.9886C41.4627 15.6629 40.2621 16 38.722 16C37.3031 16 36.0479 15.7397 34.9564 15.2193V12.6644C35.8538 13.0547 36.6118 13.3297 37.2303 13.4894C37.8548 13.6491 38.4248 13.7289 38.9402 13.7289C39.5587 13.7289 40.0317 13.6136 40.3591 13.383C40.6926 13.1523 40.8594 12.8093 40.8594 12.3539C40.8594 12.0996 40.7866 11.8749 40.6411 11.6797C40.4956 11.4786 40.2803 11.2864 39.9953 11.1031C39.7164 10.9197 39.1434 10.627 38.2763 10.2248C37.4637 9.85225 36.8543 9.49445 36.4481 9.15143C36.0418 8.80842 35.7174 8.40921 35.4749 7.95383C35.2323 7.49844 35.111 6.96618 35.111 6.35702C35.111 5.20969 35.5082 4.30779 36.3026 3.65132C37.103 2.99486 38.2065 2.66663 39.6133 2.66663C40.3046 2.66663 40.9625 2.74647 41.587 2.90615C42.2177 3.06583 42.8756 3.29056 43.5608 3.58035L42.6512 5.7183C41.9418 5.43442 41.3536 5.2363 40.8867 5.12393C40.4258 5.01157 39.9711 4.95538 39.5224 4.95538C38.9888 4.95538 38.5795 5.07662 38.2945 5.3191C38.0095 5.56158 37.867 5.87798 37.867 6.26831C37.867 6.51079 37.9246 6.7237 38.0398 6.90703C38.155 7.08446 38.3369 7.25892 38.5855 7.43043C38.8402 7.59603 39.4375 7.89765 40.3773 8.33529C41.6204 8.91487 42.4723 9.49741 42.9332 10.0829C43.394 10.6625 43.6244 11.3751 43.6244 12.2209Z" fill="#263238"/>
<path d="M51.1646 15.8225H48.345V5.14168H44.7341V2.85292H54.7755V5.14168H51.1646V15.8225Z" fill="#263238"/>
<path d="M64.9625 15.8225L63.9984 12.7354H59.1505L58.1863 15.8225H55.1484L59.8417 2.79969H63.2889L68.0004 15.8225H64.9625ZM63.3253 10.4289C62.4339 7.63151 61.9306 6.04949 61.8154 5.68282C61.7063 5.31614 61.6275 5.02635 61.579 4.81344C61.3788 5.57045 60.8058 7.44226 59.8599 10.4289H63.3253Z" fill="#263238"/>
<path d="M74.8129 15.8225H71.9933V5.14168H68.3824V2.85292H78.4238V5.14168H74.8129V15.8225Z" fill="#263238"/>
<path d="M80.4703 15.8225V2.85292H83.2899V15.8225H80.4703Z" fill="#263238"/>
<path d="M97.3334 15.8225H94.1318L90.6482 10.3579L89.4567 11.1918V15.8225H86.6371V2.85292H89.4567V8.78772L90.5663 7.26188L94.1681 2.85292H97.297L92.6583 8.59255L97.3334 15.8225Z" fill="#263238"/>
</svg>
