<svg width="56" height="56" viewBox="0 0 56 56" fill="none" xmlns="http://www.w3.org/2000/svg">
<circle cx="28" cy="28" r="28" fill="#E1F5FE"/>
<path fill-rule="evenodd" clip-rule="evenodd" d="M24 25C24 21.134 27.134 18 31 18C34.866 18 38 21.134 38 25C38 28.866 34.866 32 31 32H29V34H27V36H25V38H18V32.5858L24.148 26.4378C24.05 25.9685 24 25.4873 24 25ZM27 30H31C33.7614 30 36 27.7614 36 25C36 22.2386 33.7614 20 31 20C28.2386 20 26 22.2386 26 25C26 25.4986 26.0727 25.9864 26.2141 26.4529L26.3879 27.0263L20 33.4142V36H23V34H25V32H27V30ZM30 21V24H27V26H30V29H32V26H35V24H32V21H30Z" fill="#4FC3F7"/>
</svg>
