<svg width="104" height="104" viewBox="0 0 104 104" fill="none" xmlns="http://www.w3.org/2000/svg">
<path fill-rule="evenodd" clip-rule="evenodd" d="M72 89V87H8V89H72ZM56 93V91H8V93H56Z" fill="#CFD8DC"/>
<path fill-rule="evenodd" clip-rule="evenodd" d="M72 23V25H60V23H72Z" fill="#CFD8DC"/>
<path fill-rule="evenodd" clip-rule="evenodd" d="M72 27V29H60V27H72Z" fill="#CFD8DC"/>
<path fill-rule="evenodd" clip-rule="evenodd" d="M72 31V33H60V31H72Z" fill="#CFD8DC"/>
<path fill-rule="evenodd" clip-rule="evenodd" d="M18 67H10C8.89543 67 8 67.8954 8 69V77C8 78.1046 8.89543 79 10 79H18C19.1046 79 20 78.1046 20 77V69C20 67.8954 19.1046 67 18 67ZM10 77V69H18V77H10Z" fill="#CFD8DC"/>
<path fill-rule="evenodd" clip-rule="evenodd" d="M36 67H28C26.8954 67 26 67.8954 26 69V77C26 78.1046 26.8954 79 28 79H36C37.1046 79 38 78.1046 38 77V69C38 67.8954 37.1046 67 36 67ZM28 77V69H36V77H28Z" fill="#CFD8DC"/>
<path fill-rule="evenodd" clip-rule="evenodd" d="M54 67H46C44.8954 67 44 67.8954 44 69V77C44 78.1046 44.8954 79 46 79H54C55.1046 79 56 78.1046 56 77V69C56 67.8954 55.1046 67 54 67ZM46 77V69H54V77H46Z" fill="#CFD8DC"/>
<path fill-rule="evenodd" clip-rule="evenodd" d="M54 23H10C8.89543 23 8 23.8954 8 25V55.6214V59C8 60.1046 8.89543 61 10 61H54C55.1046 61 56 60.1046 56 59V25C56 23.8954 55.1046 23 54 23ZM10 56.4498V59H43.7929L25.6214 40.8284L10 56.4498ZM46.6214 59H54V53.3282L53.9142 53.414L38.3285 37.8284L31.8891 44.2678L46.6214 59ZM30.4749 42.8535L25.6214 38L10 53.6214V25H54V50.6714L38.3285 35L30.4749 42.8535Z" fill="#CFD8DC"/>
<path fill-rule="evenodd" clip-rule="evenodd" d="M66 11V9H8V11H66ZM51 15V13H8V15H51Z" fill="#CFD8DC"/>
<path fill-rule="evenodd" clip-rule="evenodd" d="M94.0488 9H81.9512C80.8736 9 80 9.89013 80 10.9882V91.0118C80 92.1099 80.8736 93 81.9512 93H94.0488C95.1264 93 96 92.1099 96 91.0118V10.9882C96 9.89013 95.1264 9 94.0488 9ZM82 91V11H94V91H82Z" fill="#CFD8DC"/>
</svg>
