<svg width="104" height="104" viewBox="0 0 104 104" fill="none" xmlns="http://www.w3.org/2000/svg">
<path fill-rule="evenodd" clip-rule="evenodd" d="M54 12H10C8.89543 12 8 12.8954 8 14V44.6214V48C8 49.1046 8.89543 50 10 50H54C55.1046 50 56 49.1046 56 48V14C56 12.8954 55.1046 12 54 12ZM10 45.4498V48H43.7929L25.6214 29.8284L10 45.4498ZM46.6214 48H54V42.3282L53.9142 42.414L38.3285 26.8284L31.8891 33.2678L46.6214 48ZM30.4749 31.8535L25.6214 27L10 42.6214V14H54V39.6714L38.3285 24L30.4749 31.8535Z" fill="#CFD8DC"/>
<path fill-rule="evenodd" clip-rule="evenodd" d="M72 60V58H56V60H72ZM72 72V74H8V72H72ZM56 76V78H8V76H56ZM72 62V64H56V62H72ZM48 58V60H8V58H48ZM40 62V64H8V62H40Z" fill="#CFD8DC"/>
<path fill-rule="evenodd" clip-rule="evenodd" d="M56 90V92H8V90H56Z" fill="#CFD8DC"/>
<path fill-rule="evenodd" clip-rule="evenodd" d="M72 86V88H8V86H72Z" fill="#CFD8DC"/>
<path fill-rule="evenodd" clip-rule="evenodd" d="M70 12H62C60.8954 12 60 12.8954 60 14V20C60 21.1046 60.8954 22 62 22H70C71.1046 22 72 21.1046 72 20V14C72 12.8954 71.1046 12 70 12ZM62 20V14H70V20H62Z" fill="#CFD8DC"/>
<path fill-rule="evenodd" clip-rule="evenodd" d="M70 26H62C60.8954 26 60 26.8954 60 28V34C60 35.1046 60.8954 36 62 36H70C71.1046 36 72 35.1046 72 34V28C72 26.8954 71.1046 26 70 26ZM62 34V28H70V34H62Z" fill="#CFD8DC"/>
<path fill-rule="evenodd" clip-rule="evenodd" d="M70 40H62C60.8954 40 60 40.8954 60 42V48C60 49.1046 60.8954 50 62 50H70C71.1046 50 72 49.1046 72 48V42C72 40.8954 71.1046 40 70 40ZM62 48V42H70V48H62Z" fill="#CFD8DC"/>
<path fill-rule="evenodd" clip-rule="evenodd" d="M94.0488 12H81.9512C80.8736 12 80 12.8901 80 13.9882V90.0118C80 91.1099 80.8736 92 81.9512 92H94.0488C95.1264 92 96 91.1099 96 90.0118V13.9882C96 12.8901 95.1264 12 94.0488 12ZM82 90V14H94V90H82Z" fill="#CFD8DC"/>
</svg>
