<svg width="104" height="104" viewBox="0 0 104 104" fill="none" xmlns="http://www.w3.org/2000/svg">
<path fill-rule="evenodd" clip-rule="evenodd" d="M70 9H10C8.89543 9 8 9.89543 8 11V47C8 48.1046 8.89543 49 10 49H70C71.1046 49 72 48.1046 72 47V11C72 9.89543 71.1046 9 70 9ZM10 46.2072V11H70V46.0857L44.9143 21L37.0607 28.8535L32.2071 24L10 46.2072ZM12.0356 47H52.3787L32.2071 26.8284L12.0356 47ZM55.2072 47H68.0858L44.9143 23.8284L38.4749 30.2677L55.2072 47Z" fill="#CFD8DC"/>
<path fill-rule="evenodd" clip-rule="evenodd" d="M72 76V74H56V76H72ZM72 88V90H8V88H72ZM56 92V94H8V92H56ZM72 78V80H56V78H72ZM48 74V76H8V74H48ZM40 78V80H8V78H40Z" fill="#CFD8DC"/>
<path fill-rule="evenodd" clip-rule="evenodd" d="M18 53H10C8.89543 53 8 53.8954 8 55V63C8 64.1046 8.89543 65 10 65H18C19.1046 65 20 64.1046 20 63V55C20 53.8954 19.1046 53 18 53ZM10 63V55H18V63H10Z" fill="#CFD8DC"/>
<path fill-rule="evenodd" clip-rule="evenodd" d="M35 53H27C25.8954 53 25 53.8954 25 55V63C25 64.1046 25.8954 65 27 65H35C36.1046 65 37 64.1046 37 63V55C37 53.8954 36.1046 53 35 53ZM27 63V55H35V63H27Z" fill="#CFD8DC"/>
<path fill-rule="evenodd" clip-rule="evenodd" d="M52 53H44C42.8954 53 42 53.8954 42 55V63C42 64.1046 42.8954 65 44 65H52C53.1046 65 54 64.1046 54 63V55C54 53.8954 53.1046 53 52 53ZM44 63V55H52V63H44Z" fill="#CFD8DC"/>
<path fill-rule="evenodd" clip-rule="evenodd" d="M69 53H61C59.8954 53 59 53.8954 59 55V63C59 64.1046 59.8954 65 61 65H69C70.1046 65 71 64.1046 71 63V55C71 53.8954 70.1046 53 69 53ZM61 63V55H69V63H61Z" fill="#CFD8DC"/>
<path fill-rule="evenodd" clip-rule="evenodd" d="M94.0488 9H81.9512C80.8736 9 80 9.89013 80 10.9882V91.0118C80 92.1099 80.8736 93 81.9512 93H94.0488C95.1264 93 96 92.1099 96 91.0118V10.9882C96 9.89013 95.1264 9 94.0488 9ZM82 91V11H94V91H82Z" fill="#CFD8DC"/>
</svg>
