<svg width="104" height="104" viewBox="0 0 104 104" fill="none" xmlns="http://www.w3.org/2000/svg">
<path fill-rule="evenodd" clip-rule="evenodd" d="M92 9H12C10.8954 9 10 9.89543 10 11V47C10 48.1046 10.8954 49 12 49H92C93.1046 49 94 48.1046 94 47V11C94 9.89543 93.1046 9 92 9ZM12 47V11H92V47H82.9143L56.9143 21L49.5607 28.3536L45.2071 24L22.2072 47H12ZM25.0356 47H65.3787L45.2071 26.8284L25.0356 47ZM68.2072 47H80.0858L56.9143 23.8284L50.9749 29.7678L68.2072 47Z" fill="#CFD8DC"/>
<path fill-rule="evenodd" clip-rule="evenodd" d="M84 76V74H68V76H84ZM84 88V90H20V88H84ZM68 92V94H20V92H68ZM84 78V80H68V78H84ZM60 74V76H20V74H60ZM52 78V80H20V78H52Z" fill="#CFD8DC"/>
<path fill-rule="evenodd" clip-rule="evenodd" d="M20 53H12C10.8954 53 10 53.8954 10 55V63C10 64.1046 10.8954 65 12 65H20C21.1046 65 22 64.1046 22 63V55C22 53.8954 21.1046 53 20 53ZM12 63V55H20V63H12Z" fill="#CFD8DC"/>
<path fill-rule="evenodd" clip-rule="evenodd" d="M38 53H30C28.8954 53 28 53.8954 28 55V63C28 64.1046 28.8954 65 30 65H38C39.1046 65 40 64.1046 40 63V55C40 53.8954 39.1046 53 38 53ZM30 63V55H38V63H30Z" fill="#CFD8DC"/>
<path fill-rule="evenodd" clip-rule="evenodd" d="M56 53H48C46.8954 53 46 53.8954 46 55V63C46 64.1046 46.8954 65 48 65H56C57.1046 65 58 64.1046 58 63V55C58 53.8954 57.1046 53 56 53ZM48 63V55H56V63H48Z" fill="#CFD8DC"/>
<path fill-rule="evenodd" clip-rule="evenodd" d="M74 53H66C64.8954 53 64 53.8954 64 55V63C64 64.1046 64.8954 65 66 65H74C75.1046 65 76 64.1046 76 63V55C76 53.8954 75.1046 53 74 53ZM66 63V55H74V63H66Z" fill="#CFD8DC"/>
<path fill-rule="evenodd" clip-rule="evenodd" d="M92 53H84C82.8954 53 82 53.8954 82 55V63C82 64.1046 82.8954 65 84 65H92C93.1046 65 94 64.1046 94 63V55C94 53.8954 93.1046 53 92 53ZM84 63V55H92V63H84Z" fill="#CFD8DC"/>
</svg>
