<svg width="104" height="104" viewBox="0 0 104 104" fill="none" xmlns="http://www.w3.org/2000/svg">
<path fill-rule="evenodd" clip-rule="evenodd" d="M70 9H10C8.89543 9 8 9.89543 8 11V51C8 52.1046 8.89543 53 10 53H70C71.1046 53 72 52.1046 72 51V11C72 9.89543 71.1046 9 70 9ZM10 50.2072V11H70V50.0857L44.9143 25L37.0607 32.8536L32.2071 28L10 50.2072ZM12.0356 51H52.3787L32.2071 30.8284L12.0356 51ZM55.2072 51H68.0859L44.9143 27.8284L38.4749 34.2678L55.2072 51Z" fill="#CFD8DC"/>
<path fill-rule="evenodd" clip-rule="evenodd" d="M84 63V61H68V63H84ZM84 75V77H20V75H84ZM68 79V81H20V79H68ZM84 65V67H68V65H84ZM60 61V63H20V61H60ZM52 65V67H20V65H52Z" fill="#CFD8DC"/>
<path fill-rule="evenodd" clip-rule="evenodd" d="M68 93V95H20V93H68Z" fill="#CFD8DC"/>
<path fill-rule="evenodd" clip-rule="evenodd" d="M84 89V91H20V89H84Z" fill="#CFD8DC"/>
<path fill-rule="evenodd" clip-rule="evenodd" d="M94 9H78C76.8954 9 76 9.89543 76 11V19C76 20.1046 76.8954 21 78 21H94C95.1046 21 96 20.1046 96 19V11C96 9.89543 95.1046 9 94 9ZM78 19V11H94V19H78Z" fill="#CFD8DC"/>
<path fill-rule="evenodd" clip-rule="evenodd" d="M94 25H78C76.8954 25 76 25.8954 76 27V35C76 36.1046 76.8954 37 78 37H94C95.1046 37 96 36.1046 96 35V27C96 25.8954 95.1046 25 94 25ZM78 35V27H94V35H78Z" fill="#CFD8DC"/>
<path fill-rule="evenodd" clip-rule="evenodd" d="M94 41H78C76.8954 41 76 41.8954 76 43V51C76 52.1046 76.8954 53 78 53H94C95.1046 53 96 52.1046 96 51V43C96 41.8954 95.1046 41 94 41ZM78 51V43H94V51H78Z" fill="#CFD8DC"/>
</svg>
