<svg xmlns="http://www.w3.org/2000/svg" width="840" height="680"><path d="M0 0 C277.2 0 554.4 0 840 0 C840 224.4 840 448.8 840 680 C562.8 680 285.6 680 0 680 C0 455.6 0 231.2 0 0 Z " fill="#FEFEFE" transform="translate(0,0)"></path><path d="M0 0 C33.62879903 -0.94729011 63.25095442 12.84606939 87.31893921 35.50942993 C93.08361305 41.01710145 98.68220395 46.69579002 104.30078125 52.3515625 C105.64299176 53.69880427 106.98543836 55.04581087 108.328125 56.39257812 C111.57172893 59.6470445 114.81215497 62.90464298 118.05078125 66.1640625 C116.67462765 69.25585386 115.0991968 71.36045003 112.70263672 73.73925781 C111.68180496 74.75986298 111.68180496 74.75986298 110.64035034 75.80108643 C109.90696442 76.52414978 109.17357849 77.24721313 108.41796875 77.9921875 C107.66613312 78.74119324 106.91429749 79.49019897 106.13967896 80.26190186 C103.73970224 82.6506927 101.33286116 85.03243147 98.92578125 87.4140625 C97.29641773 89.03339419 95.66750591 90.65318052 94.0390625 92.2734375 C90.04819319 96.24226755 86.0516671 100.20533149 82.05078125 104.1640625 C77.15584542 100.10484601 72.61858709 95.8227901 68.19140625 91.26171875 C66.89759323 89.94551336 65.60330741 88.6297726 64.30859375 87.31445312 C62.30534262 85.2742588 60.30533587 83.23125309 58.31347656 81.17993164 C49.12438336 71.73053384 40.33405572 63.32931874 27.86328125 58.3515625 C26.94160156 57.97386719 26.01992188 57.59617188 25.0703125 57.20703125 C8.56847624 51.50717319 -9.94306669 52.40494537 -25.8515625 59.44921875 C-42.6227022 67.89359344 -53.38152983 81.51999014 -59.984375 98.88671875 C-65.29115834 116.43612786 -62.42396307 135.87492966 -53.953125 151.80859375 C-44.43648182 167.74386956 -30.74487142 176.95595461 -13.22265625 182.30078125 C4.04676191 186.38426184 22.56062197 183.12141643 37.72802734 174.33300781 C40.97899605 172.21092067 43.68674797 169.9761216 46.52734375 167.3359375 C47.28703461 166.62989632 47.28703461 166.62989632 48.06207275 165.90959167 C54.80134062 159.59568734 61.2940661 153.02801764 67.80078125 146.4765625 C69.0948143 145.17749746 70.38908389 143.87866801 71.68359375 142.58007812 C74.80871229 139.44410457 77.93065051 136.30499837 81.05078125 133.1640625 C86.03671 137.34184015 90.71782409 141.69533527 95.296875 146.3125 C96.28084007 147.29858749 96.28084007 147.29858749 97.28468323 148.30459595 C99.35493393 150.38039112 101.42165776 152.45965677 103.48828125 154.5390625 C104.90145987 155.9572633 106.31486919 157.37523426 107.72851562 158.79296875 C111.1719419 162.24735027 114.61221224 165.7048462 118.05078125 169.1640625 C116.69467812 172.18476212 115.17016711 174.30427061 112.84887695 176.65649414 C112.19671707 177.32141373 111.54455719 177.98633331 110.87263489 178.67140198 C110.164431 179.38183151 109.45622711 180.09226105 108.7265625 180.82421875 C107.61887764 181.94188881 107.61887764 181.94188881 106.48881531 183.08213806 C104.91861966 184.66246287 103.34569258 186.24007773 101.77026367 187.81518555 C99.40667032 190.18309421 97.05948735 192.56643522 94.71289062 194.95117188 C83.57825923 206.17020002 71.98677783 216.71079203 57.80078125 223.9765625 C57.1044458 224.33637207 56.40811035 224.69618164 55.69067383 225.06689453 C27.97759164 238.84803634 -4.78416317 241.05783523 -34.13671875 231.4765625 C-64.87975296 220.83654348 -89.91996708 199.57880056 -104.25048828 170.19946289 C-107.44503084 163.37221741 -109.9013124 156.42482137 -111.94921875 149.1640625 C-112.26890625 148.101875 -112.58859375 147.0396875 -112.91796875 145.9453125 C-120.67696044 115.1967158 -113.69170988 82.8143348 -98.02880859 55.92333984 C-95.03991132 51.05269449 -91.55902544 46.58384349 -87.94921875 42.1640625 C-87.30210937 41.36355469 -86.655 40.56304687 -85.98828125 39.73828125 C-80.92849269 33.75946987 -75.15530649 28.9171029 -68.94921875 24.1640625 C-68.16933594 23.55691406 -67.38945312 22.94976562 -66.5859375 22.32421875 C-47.16005821 7.9262141 -23.84174094 1.32629552 0 0 Z " fill="#169200" transform="translate(300.94921875,70.8359375)"></path><path d="M0 0 C1.50681968 1.2627398 3.00752091 2.53284242 4.5 3.8125 C5.44939453 4.58013672 5.44939453 4.58013672 6.41796875 5.36328125 C24.02451835 19.7827733 35.40955971 41.21912079 41.5 62.8125 C41.8196875 63.8746875 42.139375 64.936875 42.46875 66.03125 C47.0172283 84.05670104 46.51556467 105.91141958 41.5 123.8125 C41.18289063 125.00617188 40.86578125 126.19984375 40.5390625 127.4296875 C31.83065565 156.64299558 11.28236046 182.37223581 -15.51855469 196.90722656 C-19.46445941 198.97953624 -23.45867872 200.9319468 -27.5 202.8125 C-33.04430048 198.19186741 -38.18218557 193.276466 -43.27734375 188.16796875 C-44.08869278 187.35757645 -44.90004181 186.54718414 -45.73597717 185.7122345 C-47.43727402 184.01161444 -49.1373236 182.30974579 -50.83618164 180.60668945 C-53.45019665 177.98727713 -56.06955855 175.37329589 -58.68945312 172.75976562 C-60.34407111 171.10448759 -61.99837927 169.44889978 -63.65234375 167.79296875 C-64.4397142 167.00762253 -65.22708466 166.22227631 -66.03831482 165.41313171 C-67.11557579 164.3311425 -67.11557579 164.3311425 -68.21459961 163.22729492 C-68.8507872 162.59031174 -69.48697479 161.95332855 -70.1424408 161.29704285 C-71.5 159.8125 -71.5 159.8125 -71.5 158.8125 C-70.65179687 158.72613281 -69.80359375 158.63976562 -68.9296875 158.55078125 C-55.31027011 156.91944444 -43.67571831 152.93863505 -32.5 144.8125 C-31.85546875 144.35230469 -31.2109375 143.89210937 -30.546875 143.41796875 C-18.48923785 133.99454512 -10.51532734 117.82138522 -8.5 102.8125 C-7.0575552 83.85147408 -10.33465806 68.36820594 -21.5 52.8125 C-21.97050781 52.13960938 -22.44101562 51.46671875 -22.92578125 50.7734375 C-29.77759704 41.92064895 -40.1070544 35.59850161 -50.5 31.8125 C-51.34046875 31.49410156 -52.1809375 31.17570312 -53.046875 30.84765625 C-68.30915044 26.06165369 -86.04666104 27.20927345 -100.5 33.8125 C-101.46808594 34.2353125 -102.43617188 34.658125 -103.43359375 35.09375 C-117.96863026 42.18602313 -128.683993 54.81793372 -134.375 69.8125 C-136.2044772 75.31928755 -137.34271939 80.72847918 -138.04296875 86.484375 C-138.5 88.8125 -138.5 88.8125 -140.5 90.8125 C-154.36 76.9525 -168.22 63.0925 -182.5 48.8125 C-172.71626843 19.4613053 -149.18132063 -1.16249407 -122.23828125 -14.84375 C-82.64445429 -33.21153718 -34.08149466 -26.96614479 0 0 Z " fill="#169200" transform="translate(637.5,96.1875)"></path><path d="M0 0 C3.31673494 1.44740477 5.50174262 3.25205122 8.05295181 5.80406284 C8.8551302 6.60164243 9.65730858 7.39922202 10.4837954 8.22097069 C11.35928025 9.1015991 12.2347651 9.98222751 13.13677979 10.88954163 C14.53848124 12.28762146 14.53848124 12.28762146 15.9684999 13.71394533 C18.56353911 16.30256474 21.15228977 18.89739472 23.74006414 21.49327385 C26.5312408 24.2910227 29.32817044 27.08300977 32.12438965 29.87571716 C37.60111302 35.34739617 43.07247582 40.82440557 48.54205111 46.30322892 C54.90638383 52.6779364 61.27593099 59.04742288 67.64569613 65.41670137 C79.00587075 76.77637524 90.36120494 88.14087548 101.71386719 99.50805664 C112.74148846 110.54977391 123.77261432 121.58797421 134.80761719 132.62231445 C135.48760129 133.30225859 136.16758538 133.98220274 136.86817506 134.68275125 C137.54696048 135.36149631 138.22574589 136.04024137 138.92510056 136.73955446 C151.47424816 149.28801312 164.02010719 161.83975505 176.56442983 174.39303695 C181.00806115 178.83969044 185.45267404 183.28536139 189.89759064 187.73073006 C195.30869949 193.1425194 200.71792318 198.556185 206.12476519 203.97223742 C208.88600949 206.73811409 211.64805134 209.50318178 214.41223907 212.2661171 C217.40126327 215.2538526 220.38641956 218.24542185 223.37115479 221.23744202 C224.25556252 222.12030115 225.13997025 223.00316028 226.05117822 223.91277272 C227.23879931 225.10523048 227.23879931 225.10523048 228.45041275 226.3217783 C229.14085434 227.01292431 229.83129593 227.70407033 230.54266 228.41616017 C232 230 232 230 232 231 C208.49106378 238.21949142 181.01392254 241.51982808 158 231 C139.19009767 220.34552928 123.47667208 203.7849264 108.3359375 188.5625 C107.80710295 188.03160295 107.27826841 187.50070589 106.73340857 186.95372105 C92.95509806 173.10508427 79.55492308 158.91264371 66.2658999 144.59586906 C58.53638601 136.27539369 50.71342555 128.05156985 42.82080078 119.88574219 C42.26076518 119.30626505 41.70072957 118.7267879 41.12372319 118.12975085 C38.31215283 115.22156924 35.49900652 112.31491782 32.68507457 109.40902138 C9.54076963 85.50427285 -13.32034856 61.34619019 -36 37 C-35.03934626 35.87409674 -34.07796608 34.74881326 -33.11627769 33.6237936 C-32.58098674 32.99708529 -32.04569579 32.37037698 -31.4941839 31.7246775 C-29.91230249 29.89877422 -28.27678575 28.15594479 -26.56494141 26.45141602 C-25.96477203 25.85132217 -25.36460266 25.25122833 -24.74624634 24.63294983 C-24.12100067 24.01286545 -23.495755 23.39278107 -22.8515625 22.75390625 C-22.19417084 22.09792953 -21.53677917 21.44195282 -20.85946655 20.76609802 C-18.78367138 18.69584732 -16.70440573 16.62912349 -14.625 14.5625 C-13.2067992 13.14932138 -11.78882824 11.73591206 -10.37109375 10.32226562 C-6.91671223 6.87883935 -3.4592163 3.43856901 0 0 Z " fill="#169200" transform="translate(433,153)"></path><path d="M0 0 C17.82 0 35.64 0 54 0 C52.62227358 6.88863208 51.19624189 13.74760801 49.68359375 20.60546875 C42.92570451 54.16321587 50.61864272 90.64925576 68.3125 119.6875 C79.27463665 136.04409668 92.01996058 149.67690838 108.17578125 160.953125 C109.10777344 161.62859375 110.03976563 162.3040625 111 163 C111 163.33 111 163.66 111 164 C101.26455069 164.32546738 91.53040925 164.57365915 81.79061317 164.72537041 C77.2668104 164.79821925 72.74674732 164.89685414 68.22509766 165.05615234 C63.85456563 165.20914942 59.48760926 165.29214281 55.11460495 165.3282814 C53.45322723 165.35400231 51.79202951 165.40424315 50.1321907 165.48022079 C37.48977237 166.0354918 37.48977237 166.0354918 33.32316017 162.62911415 C29.85055606 158.81785693 27.42873588 154.52269306 25 150 C24.06459726 148.54182548 23.11996839 147.08933846 22.15234375 145.65234375 C8.15533374 122.62441934 -0.07536709 97.56183032 -4 71 C-4.15686279 69.97229492 -4.15686279 69.97229492 -4.31689453 68.92382812 C-5.33600489 61.24495011 -5.24092787 53.48251112 -5.25 45.75 C-5.25167175 44.99899017 -5.25334351 44.24798035 -5.25506592 43.47421265 C-5.25704946 28.57801926 -4.10700993 14.37453477 0 0 Z " fill="#169201" transform="translate(118,144)"></path><path d="M0 0 C10.56 0 21.12 0 32 0 C32.02104359 7.88666803 32.04107093 15.77323274 32.05175018 23.65990448 C32.05700281 27.33358477 32.0640072 31.0072415 32.07543945 34.6809082 C32.08640599 38.22762977 32.09230561 41.77432867 32.09487724 45.3210659 C32.09758965 47.31433739 32.10537919 49.30759993 32.11329651 51.30085754 C32.11374053 58.59302432 31.82489563 65.7528321 31 73 C31.83917969 71.77990234 31.83917969 71.77990234 32.6953125 70.53515625 C38.15097705 62.7044413 43.94422899 55.25530168 50.08837891 47.95141602 C50.65347168 47.27780029 51.21856445 46.60418457 51.80078125 45.91015625 C52.29747314 45.32371338 52.79416504 44.73727051 53.3059082 44.13305664 C54.9867816 42.12657506 54.9867816 42.12657506 56.01808167 40.22200012 C57.21568454 38.23455035 58.32997654 36.61517279 60 35 C63.14886513 34.35378879 65.24212055 34.16835339 68.36328125 34.31640625 C69.15526413 34.32631088 69.94724701 34.33621552 70.76322937 34.34642029 C73.28157398 34.38546716 75.79548419 34.47325094 78.3125 34.5625 C80.02402537 34.59762731 81.7356194 34.62956386 83.44726562 34.65820312 C87.63320711 34.73519482 91.81585311 34.85589381 96 35 C93.21193638 39.24595404 90.26822115 43.17155734 86.9375 47 C81.92340371 52.83967625 77.13599326 58.83208348 72.41015625 64.90625 C70.29456948 67.62188164 68.15714188 70.31733632 66 73 C67.3059874 76.51112827 68.84703955 79.55409497 70.87109375 82.703125 C71.44021484 83.59290039 72.00933594 84.48267578 72.59570312 85.39941406 C73.20349609 86.34010742 73.81128906 87.28080078 74.4375 88.25 C75.06205078 89.22420898 75.68660156 90.19841797 76.33007812 91.20214844 C79.26054732 95.76812414 82.20746622 100.3233701 85.16015625 104.875 C85.88344116 105.9902002 85.88344116 105.9902002 86.62133789 107.12792969 C87.5024559 108.484168 88.38556259 109.83911772 89.27124023 111.19238281 C92.65168706 116.38025711 95.83961279 121.67567068 99 127 C67.14942651 130.32716253 67.14942651 130.32716253 59.08447266 125.11621094 C54.69828166 120.2987356 52.25773659 114.63974287 50.01123047 108.58203125 C48.6412588 105.08400604 46.80887725 102.28202344 44.6875 99.1875 C43.78815542 97.7939264 42.89161685 96.39853046 42 95 C38.47358643 96.53787471 35.66766769 98.20362629 33 101 C31.72496429 105.47044043 31.83202128 109.75280253 31.9375 114.375 C31.958125 118.54125 31.97875 122.7075 32 127 C21.44 127 10.88 127 0 127 C0 85.09 0 43.18 0 0 Z " fill="#169200" transform="translate(562,437)"></path><path d="M0 0 C-0.93539524 2.52163182 -1.87325455 5.04230241 -2.8125 7.5625 C-3.20405273 8.61920898 -3.20405273 8.61920898 -3.60351562 9.69726562 C-5.28078041 14.1906787 -7.07721815 18.60589494 -9 23 C-12.35125149 22.38906389 -15.46770517 21.53914881 -18.6875 20.4375 C-25.11717568 18.49230751 -30.92392953 18.03160744 -37.375 20.0625 C-41.58929613 23.17305191 -43.34597583 27.0379275 -45 32 C-45.17560807 34.91048781 -45.27718869 37.77549369 -45.3125 40.6875 C-45.34150391 41.46544922 -45.37050781 42.24339844 -45.40039062 43.04492188 C-45.47092539 49.55039724 -43.87162889 54.70229904 -39.55200195 59.6628418 C-35.35935318 63.27510188 -29.16951448 62.3641419 -24 62 C-16.31395953 60.6717897 -10.23130314 58.21391251 -3 55 C-3 63.58 -3 72.16 -3 81 C-18.37782456 87.98992025 -35.14599302 91.56228899 -51.875 86.375 C-62.79530543 81.82619353 -70.61149873 75.07183018 -75.3125 64.0625 C-80.69276142 48.98391328 -81.08637775 31.85280149 -74.7109375 16.99609375 C-68.97696827 5.72746439 -60.74938458 -1.2770993 -48.8125 -5.3125 C-33.28150853 -9.39521771 -13.78414306 -8.975123 0 0 Z " fill="#179201" transform="translate(530,477)"></path><path d="M0 0 C1.29852905 0.00132935 1.29852905 0.00132935 2.62329102 0.00268555 C12.63836785 0.18364218 23.00845621 1.75156778 31.5 7.375 C30.56745036 10.08512808 29.62915006 12.79303435 28.6875 15.5 C28.29594727 16.64082031 28.29594727 16.64082031 27.89648438 17.8046875 C26.37195297 22.17124659 24.67844114 26.27979234 22.5 30.375 C19.14874851 29.76406389 16.03229483 28.91414881 12.8125 27.8125 C6.38282432 25.86730751 0.57607047 25.40660744 -5.875 27.4375 C-10.08929613 30.54805191 -11.84597583 34.4129275 -13.5 39.375 C-14.39314202 52.32222932 -14.39314202 52.32222932 -10.5 64.375 C-5.54797067 69.08546692 -2.27453242 69.663215 4.359375 69.59375 C13.21361483 68.97703678 20.39222292 65.97845648 28.5 62.375 C28.5 70.955 28.5 79.535 28.5 88.375 C13.12217544 95.36492025 -3.64599302 98.93728899 -20.375 93.75 C-31.27319074 89.21040531 -39.07804851 82.46582515 -43.8125 71.5 C-49.54162156 55.56664906 -49.07946121 37.72427839 -42.0859375 22.26171875 C-36.14738467 11.45238244 -27.15048294 5.5350257 -15.61962891 1.75927734 C-10.41623564 0.30315708 -5.38580932 -0.01000786 0 0 Z " fill="#169201" transform="translate(250.5,469.625)"></path><path d="M0 0 C10.56 0 21.12 0 32 0 C32 41.91 32 83.82 32 127 C21.44 127 10.88 127 0 127 C0 85.09 0 43.18 0 0 Z " fill="#169100" transform="translate(314,437)"></path><path d="M0 0 C10.56 0 21.12 0 32 0 C32 39.27 32 78.54 32 119 C21.44 119 10.88 119 0 119 C0 79.73 0 40.46 0 0 Z " fill="#FEBB33" transform="translate(135,445)"></path><path d="M0 0 C1.69533616 0.01493203 3.39070698 0.02631452 5.08609009 0.03430176 C9.53562733 0.0647615 13.98305547 0.14326699 18.4317627 0.23193359 C22.97635364 0.31396079 27.52128747 0.35034897 32.06640625 0.390625 C40.97488203 0.47627074 49.88179649 0.61269981 58.7890625 0.78125 C55.69133458 3.94845967 52.49450531 6.54011598 48.9140625 9.15625 C37.65303451 17.66036203 28.1704285 27.52671006 20.16796875 39.13671875 C19.78871246 39.68665497 19.40945618 40.23659119 19.01870728 40.80319214 C17.69069873 42.8583181 17.69069873 42.8583181 16.48788452 45.50564575 C12.49134711 53.19818275 12.49134711 53.19818275 7.96000671 54.7502594 C4.47066749 55.05551228 1.13562234 55.0195483 -2.36328125 54.85546875 C-3.61855118 54.83990433 -4.87382111 54.8243399 -6.16712952 54.80830383 C-9.48658132 54.75728821 -12.79752779 54.65878151 -16.11462402 54.53656006 C-19.50601099 54.42348669 -22.8982822 54.37368152 -26.29101562 54.31835938 C-32.9333194 54.19729075 -39.57163811 54.0134094 -46.2109375 53.78125 C-45.4183834 51.701668 -44.62400437 49.62278144 -43.82885742 47.54418945 C-43.38668381 46.38643509 -42.94451019 45.22868073 -42.48893738 44.0358429 C-41.00182665 40.24872202 -39.36638785 36.59344934 -37.5234375 32.96875 C-37.02577881 31.98261719 -37.02577881 31.98261719 -36.51806641 30.9765625 C-32.9369426 24.02855608 -28.97327777 17.20999772 -24.51298523 10.7858429 C-23.1680926 8.82336875 -23.1680926 8.82336875 -22.26013184 6.69555664 C-17.60803361 -1.94685608 -8.54438722 -0.22060724 0 0 Z " fill="#FEBB35" transform="translate(170.2109375,70.21875)"></path><path d="M0 0 C10.56 0 21.12 0 32 0 C33.85581966 1.85581966 33.12004366 4.49398306 33.12442017 6.96286011 C33.11902725 8.24786911 33.11902725 8.24786911 33.11352539 9.55883789 C33.11367142 10.45631241 33.11381744 11.35378693 33.1139679 12.27845764 C33.11326842 15.25988134 33.10547441 18.2412434 33.09765625 21.22265625 C33.09579219 23.28388942 33.09436823 25.34512304 33.09336853 27.40635681 C33.08954237 32.8430401 33.07971126 38.27969686 33.06866455 43.71636963 C33.05845253 49.25947714 33.05387136 54.80258892 33.04882812 60.34570312 C33.03808908 71.23048231 33.02049149 82.1152348 33 93 C22.11 93 11.22 93 0 93 C0 62.31 0 31.62 0 0 Z " fill="#1E9508" transform="translate(384,471)"></path><path d="M0 0 C2.97 0 5.94 0 9 0 C9.99 0.99 10.98 1.98 12 3 C12.474375 2.505 12.94875 2.01 13.4375 1.5 C17.23065952 -0.72038606 20.71058851 -0.81958398 25 0 C28.82779226 2.8504836 30.54442877 5.52523081 32 10 C32.84803246 18.2535252 32.69171715 25.0294488 28 32 C24.76085771 34.15942819 23.75140267 34.27232978 20 34.25 C19.13375 34.25515625 18.2675 34.2603125 17.375 34.265625 C15 34 15 34 12 32 C11.67 37.61 11.34 43.22 11 49 C7.37 49 3.74 49 0 49 C0 32.83 0 16.66 0 0 Z " fill="#4A4A4A" transform="translate(349,607)"></path><path d="M0 0 C3.526875 -0.061875 7.05375 -0.12375 10.6875 -0.1875 C12.342052 -0.22846802 12.342052 -0.22846802 14.0300293 -0.27026367 C20.36653546 -0.32416425 23.86235489 0.31058991 28.75 4.5 C31.51163883 7.8139666 31.27731305 11.63001631 31.2109375 15.71875 C30.77287212 20.45634596 28.92703326 23.14249423 25.5 26.3125 C20.6120672 28.66918188 16.40957183 28.73611845 11 29 C11 33.62 11 38.24 11 43 C7.37 43 3.74 43 0 43 C0 28.81 0 14.62 0 0 Z " fill="#4A4A4A" transform="translate(135,598)"></path><path d="M0 0 C0.804375 0.721875 1.60875 1.44375 2.4375 2.1875 C3.30375 2.8371875 3.30375 2.8371875 4.1875 3.5 C7.54402148 8.031304 7.91448902 13.74982523 7.4375 19.1875 C6.10793055 24.71352302 4.35850599 28.03300898 -0.5625 31.1875 C-5.21091644 33.51170822 -11.50352593 32.60188695 -16.5625 32.1875 C-20.2525031 30.95526666 -22.09608007 28.83083784 -24.375 25.6875 C-27.0293092 20.09948063 -27.65784518 13.94202656 -25.9140625 7.96484375 C-24.10555793 3.83001493 -21.95540882 0.84519239 -17.75390625 -1.1875 C-11.66567247 -2.92389466 -5.63865282 -2.86878828 0 0 Z " fill="#4A4A4A" transform="translate(298.5625,608.8125)"></path><path d="M0 0 C3.96 0 7.92 0 12 0 C13.98 6.27 15.96 12.54 18 19 C20.50997937 12.31620763 20.50997937 12.31620763 22.625 5.5625 C23.8891258 1.1108742 23.8891258 1.1108742 25 0 C27.01964199 -0.07244053 29.04167124 -0.08377188 31.0625 -0.0625 C32.71958984 -0.04896484 32.71958984 -0.04896484 34.41015625 -0.03515625 C35.26480469 -0.02355469 36.11945312 -0.01195312 37 0 C33.4607558 10.39652985 29.80971009 20.73120636 25.75 30.9375 C25.42128906 31.77055664 25.09257813 32.60361328 24.75390625 33.46191406 C20.74767677 43.41616793 20.74767677 43.41616793 17 46.8125 C12.40682175 48.63063306 7.87977427 48.23074239 3 48 C3 45.03 3 42.06 3 39 C4.11375 38.7525 5.2275 38.505 6.375 38.25 C9.92907234 37.37365097 9.92907234 37.37365097 11.37841797 35.34985352 C12.30304084 31.85437232 10.95546383 29.33158537 9.5703125 26.15234375 C9.30113007 25.49923721 9.03194763 24.84613068 8.75460815 24.17323303 C7.89254761 22.0882715 7.00993517 20.01284361 6.125 17.9375 C5.25082024 15.8572982 4.38109768 13.77538858 3.51681519 11.6910553 C2.9780689 10.39504416 2.43296657 9.10165303 1.88088989 7.81126404 C0.70816518 5.01861668 0 3.06578987 0 0 Z " fill="#4A4A4A" transform="translate(624,607)"></path><path d="M0 0 C4.4794723 2.08527159 7.22248707 4.35871625 9 9 C9.23555544 12.70607225 9.13451698 16.27836351 9 20 C2.4 20 -4.2 20 -11 20 C-10.01 21.65 -9.02 23.3 -8 25 C-5.67011153 25.64118363 -5.67011153 25.64118363 -3.125 25.375 C-2.24328125 25.33117187 -1.3615625 25.28734375 -0.453125 25.2421875 C2.0841393 24.99169325 4.53376934 24.65766151 7 24 C7.29296875 30.0546875 7.29296875 30.0546875 7 32 C3.20402106 34.53065263 0.08794111 34.36752261 -4.3125 34.375 C-5.05951172 34.39949219 -5.80652344 34.42398438 -6.57617188 34.44921875 C-11.85862241 34.47704553 -14.79114805 33.4476766 -19 30 C-23.35624716 25.04289116 -23.28384681 20.30516761 -23.21484375 13.94921875 C-22.83997186 8.80325003 -21.21031667 6.09223699 -17.4375 2.6875 C-12.02084427 -1.06249243 -6.4298794 -0.56320112 0 0 Z " fill="#494949" transform="translate(446,607)"></path><path d="M0 0 C3.50006922 3.58981458 4.87062128 6.285732 5.25 11.3125 C4.97084473 15.43004024 4.2830626 17.5754061 2 21 C-4.08596682 25.79108027 -9.44122373 26.67023632 -17 26 C-21.45204807 25.07672817 -24.26796103 23.73203897 -27.5 20.5 C-29.61349872 15.568503 -29.74722933 11.28566433 -29 6 C-27.54177552 2.44954039 -26.44228929 0.74239645 -23.01171875 -1.0234375 C-15.20816506 -3.96156307 -7.41678057 -4.160633 0 0 Z " fill="#199303" transform="translate(413,437)"></path><path d="M0 0 C2.97 0 5.94 0 9 0 C9 1.98 9 3.96 9 6 C11.64 6 14.28 6 17 6 C17 8.97 17 11.94 17 15 C14.36 15 11.72 15 9 15 C9 20.28 9 25.56 9 31 C12.96 30.505 12.96 30.505 17 30 C17 32.97 17 35.94 17 39 C14.18792765 40.40603618 11.75990534 40.24557505 8.625 40.3125 C6.91183594 40.36857422 6.91183594 40.36857422 5.1640625 40.42578125 C1.38425078 39.91713992 0.3134766 38.95489073 -2 36 C-3.17426264 33.65147472 -3.11508173 32.26225935 -3.09765625 29.6484375 C-3.09443359 28.79765625 -3.09121094 27.946875 -3.08789062 27.0703125 C-3.07951172 26.18085937 -3.07113281 25.29140625 -3.0625 24.375 C-3.05798828 23.4778125 -3.05347656 22.580625 -3.04882812 21.65625 C-3.03702591 19.43743352 -3.02056155 17.21874982 -3 15 C-4.32 15 -5.64 15 -7 15 C-7.3125 12.8125 -7.3125 12.8125 -7 10 C-5.37660195 8.29115995 -3.70680947 6.62553283 -2 5 C-0.680982 2.33466965 -0.680982 2.33466965 0 0 Z " fill="#4A4A4A" transform="translate(568,601)"></path><path d="M0 0 C2.97 0 5.94 0 9 0 C9.33 1.65 9.66 3.3 10 5 C11.5159375 3.7625 11.5159375 3.7625 13.0625 2.5 C16.75145487 -0.17261016 19.42010577 -0.46733615 24 0 C23.67 3.63 23.34 7.26 23 11 C21.72125 11.12375 20.4425 11.2475 19.125 11.375 C15.65209064 11.69042399 15.65209064 11.69042399 13 14 C12.63047951 16.12860662 12.63047951 16.12860662 12.5859375 18.5703125 C12.52792969 19.91416016 12.52792969 19.91416016 12.46875 21.28515625 C12.42234375 22.69087891 12.42234375 22.69087891 12.375 24.125 C12.31699219 25.54232422 12.31699219 25.54232422 12.2578125 26.98828125 C12.1633918 29.3251935 12.08060102 31.6625703 12 34 C8.04 34 4.08 34 0 34 C0 22.78 0 11.56 0 0 Z " fill="#494949" transform="translate(498,607)"></path><path d="M0 0 C7.26 0 14.52 0 22 0 C22 7.59 22 15.18 22 23 C14.74 23 7.48 23 0 23 C0 15.41 0 7.82 0 0 Z " fill="#FEBD3A" transform="translate(437,280)"></path><path d="M0 0 C7.26 0 14.52 0 22 0 C22 7.59 22 15.18 22 23 C14.74 23 7.48 23 0 23 C0 15.41 0 7.82 0 0 Z " fill="#FEBD3A" transform="translate(409,280)"></path><path d="M0 0 C2.64 0 5.28 0 8 0 C10 2 10 2 11 4 C11.680625 3.34 12.36125 2.68 13.0625 2 C16.64457375 -0.43885872 18.75519536 -0.33292585 23 0 C23 3.63 23 7.26 23 11 C19.58203125 11.24414062 19.58203125 11.24414062 16.1640625 11.48828125 C13.62078662 11.82990528 13.62078662 11.82990528 12 15 C11.63566627 17.12337771 11.63566627 17.12337771 11.5859375 19.44921875 C11.52792969 20.72055664 11.52792969 20.72055664 11.46875 22.01757812 C11.42234375 23.33918945 11.42234375 23.33918945 11.375 24.6875 C11.31699219 26.02651367 11.31699219 26.02651367 11.2578125 27.39257812 C11.16360349 29.59471378 11.08071506 31.79732847 11 34 C7.37 34 3.74 34 0 34 C0 22.78 0 11.56 0 0 Z " fill="#494949" transform="translate(209,607)"></path><path d="M0 0 C7.26 0 14.52 0 22 0 C22 7.26 22 14.52 22 22 C14.74 22 7.48 22 0 22 C0 14.74 0 7.48 0 0 Z " fill="#FEBB33" transform="translate(437,309)"></path><path d="M0 0 C7.26 0 14.52 0 22 0 C22 7.26 22 14.52 22 22 C14.74 22 7.48 22 0 22 C0 14.74 0 7.48 0 0 Z " fill="#FEBA33" transform="translate(409,309)"></path><path d="M0 0 C2.4375 0.8125 2.4375 0.8125 5 2 C6.23446068 5.70338204 6.44981274 9.14660418 6 13 C4.5 16 4.5 16 3 18 C0.625 17.6875 0.625 17.6875 -2 17 C-4.80908387 12.7863742 -4.69707949 8.95250658 -4 4 C-2 1.375 -2 1.375 0 0 Z " fill="#FBFBFB" transform="translate(288,615)"></path><path d="M0 0 C4.55555556 0.55555556 4.55555556 0.55555556 6 2 C6.12514928 3.97619447 6.1757276 5.95738173 6.1875 7.9375 C6.20167969 9.01902344 6.21585937 10.10054687 6.23046875 11.21484375 C6 14 6 14 4 16 C1.5 15.875 1.5 15.875 -1 15 C-2.99203719 11.99866396 -3.19838588 9.90308888 -2.75 6.375 C-2.66234375 5.59898437 -2.5746875 4.82296875 -2.484375 4.0234375 C-2 2 -2 2 0 0 Z " fill="#FAFAFA" transform="translate(363,616)"></path><path d="M0 0 C2.875 -0.125 2.875 -0.125 6 0 C8 2 8 2 8.3125 4.4375 C8 7 8 7 6.8125 8.8125 C5 10 5 10 0 10 C0 6.7 0 3.4 0 0 Z " fill="#FDFDFD" transform="translate(146,607)"></path><path d="M0 0 C1.4540625 0.0309375 1.4540625 0.0309375 2.9375 0.0625 C3.5975 1.7125 4.2575 3.3625 4.9375 5.0625 C1.6375 5.0625 -1.6625 5.0625 -5.0625 5.0625 C-3.81634615 0.07788462 -3.81634615 0.07788462 0 0 Z " fill="#F8F8F8" transform="translate(440.0625,614.9375)"></path></svg>